<svg xmlns="http://www.w3.org/2000/svg" width="74" height="73" viewBox="0 0 74 73">
  <path id="Icon_awesome-instagram" data-name="Icon awesome-instagram" d="M37,20.021A18.718,18.718,0,1,0,55.971,38.738,18.814,18.814,0,0,0,37,20.021Zm0,30.884A12.169,12.169,0,1,1,49.335,38.738,12.273,12.273,0,0,1,37,50.906Zm24.169-31.65a4.425,4.425,0,1,1-4.424-4.366A4.385,4.385,0,0,1,61.172,19.256Zm12.563,4.431c-.281-5.848-1.634-11.028-5.976-15.3-4.325-4.268-9.575-5.6-15.5-5.9-6.108-.342-24.416-.342-30.524,0-5.91.277-11.16,1.613-15.5,5.88S.552,17.822.255,23.67c-.347,6.027-.347,24.092,0,30.119.281,5.848,1.634,11.028,5.976,15.3s9.575,5.6,15.5,5.9c6.108.342,24.416.342,30.524,0,5.927-.277,11.176-1.613,15.5-5.9,4.325-4.268,5.679-9.448,5.976-15.3.347-6.027.347-24.075,0-30.1ZM65.844,60.256a12.4,12.4,0,0,1-7.033,6.939C53.941,69.1,42.385,68.661,37,68.661s-16.954.424-21.808-1.466a12.4,12.4,0,0,1-7.033-6.939C6.231,55.45,6.677,44.048,6.677,38.738S6.247,22.009,8.162,17.22A12.4,12.4,0,0,1,15.2,10.28C20.065,8.375,31.621,8.814,37,8.814s16.954-.424,21.808,1.466a12.4,12.4,0,0,1,7.033,6.939c1.932,4.805,1.486,16.208,1.486,21.518S67.775,55.467,65.844,60.256Z" transform="translate(0.005 -2.238)"/>
</svg>
