<svg xmlns="http://www.w3.org/2000/svg" width="100.848" height="44.121" viewBox="0 0 100.848 44.121">
  <path id="Icon_metro-soundcloud" data-name="Icon metro-soundcloud" d="M90.415,30.694a13.431,13.431,0,0,0-5.029.971c-1.035-11.262-10.862-20.1-22.848-20.1a23.99,23.99,0,0,0-8.3,1.493c-.981.365-1.239.741-1.239,1.469V54.192a1.516,1.516,0,0,0,1.391,1.477c.033,0,35.8.021,36.034.021a12.755,12.755,0,0,0,13-12.5,12.76,12.76,0,0,0-13-12.5ZM41.964,55.689h3.152l1.576-22.082L45.116,11.568H41.965L40.389,33.607Zm-9.455,0H29.358L27.783,39.661l1.576-15.487H32.51l1.576,15.758Zm-15.758,0H19.9L21.48,43.083,19.9,30.477H16.752L15.177,43.083Zm-12.606-6.3H7.3l1.576-6.3L7.3,36.78H4.146l-1.576,6.3Z" transform="translate(-2.571 -11.568)"/>
</svg>
