<svg xmlns="http://www.w3.org/2000/svg" width="74" height="74" viewBox="0 0 74 74">
  <path id="Icon_awesome-spotify" data-name="Icon awesome-spotify" d="M37,.563a37,37,0,1,0,37,37A37.013,37.013,0,0,0,37,.563ZM52.024,55a2.847,2.847,0,0,1-1.6-.537c-9.31-5.61-20.141-5.848-30.838-3.655a9.633,9.633,0,0,1-1.775.388,2.323,2.323,0,0,1-2.357-2.357,2.364,2.364,0,0,1,2.029-2.506c12.219-2.7,24.706-2.462,35.359,3.909a2.523,2.523,0,0,1,1.447,2.462A2.254,2.254,0,0,1,52.024,55Zm4.013-9.787A3.684,3.684,0,0,1,54.2,44.59c-9.325-5.52-23.229-7.743-35.6-4.386a6.145,6.145,0,0,1-1.775.388A2.9,2.9,0,0,1,13.935,37.7a2.936,2.936,0,0,1,2.312-3.088,50.182,50.182,0,0,1,14.591-2.029,52.226,52.226,0,0,1,26.407,6.788,3.11,3.11,0,0,1,1.686,2.939,2.891,2.891,0,0,1-2.894,2.909Zm4.625-11.369a3.431,3.431,0,0,1-1.925-.582C48.115,26.925,29.123,25.4,16.829,28.835a7.086,7.086,0,0,1-1.925.388A3.443,3.443,0,0,1,11.428,25.7a3.525,3.525,0,0,1,2.6-3.566,62.529,62.529,0,0,1,17.53-2.268c10.891,0,22.3,2.268,30.644,7.131a3.5,3.5,0,0,1,1.925,3.372,3.457,3.457,0,0,1-3.461,3.476Z" transform="translate(0 -0.563)"/>
</svg>
