<svg xmlns="http://www.w3.org/2000/svg" width="74" height="67" viewBox="0 0 74 67">
  <path id="Icon_awesome-twitter" data-name="Icon awesome-twitter" d="M66.394,20.078c.047.733.047,1.466.047,2.2,0,22.351-15.26,48.1-43.151,48.1A39.721,39.721,0,0,1,0,62.791,28.177,28.177,0,0,0,3.662,63a28.452,28.452,0,0,0,18.829-7.223c-6.668-.157-12.255-5.025-14.18-11.725a17.2,17.2,0,0,0,2.864.262,14.489,14.489,0,0,0,3.991-.576C8.217,42.167,3,35.363,3,27.145v-.209A14.109,14.109,0,0,0,9.86,29.081,17.476,17.476,0,0,1,3.1,15,18.274,18.274,0,0,1,5.165,6.469c7.466,10.259,18.688,16.959,31.272,17.692a21.194,21.194,0,0,1-.376-3.873c0-9.317,6.761-16.907,15.166-16.907A14.453,14.453,0,0,1,62.308,8.72a28.065,28.065,0,0,0,9.626-4.083,16.659,16.659,0,0,1-6.668,9.317A27.978,27.978,0,0,0,74,11.337a34.892,34.892,0,0,1-7.606,8.741Z" transform="translate(0 -3.381)"/>
</svg>
