<svg xmlns="http://www.w3.org/2000/svg" width="74" height="50.073" viewBox="0 0 74 50.073">
  <path id="Icon_simple-youtube" data-name="Icon simple-youtube" d="M72.462,13.156a9.132,9.132,0,0,0-6.44-6.236c-5.768-1.5-28.982-1.5-28.982-1.5s-23.155-.03-28.982,1.5a9.132,9.132,0,0,0-6.44,6.236A90.436,90.436,0,0,0,.008,30.492a90.435,90.435,0,0,0,1.61,17.27A9.132,9.132,0,0,0,8.058,54c5.762,1.5,28.982,1.5,28.982,1.5s23.152,0,28.982-1.5a9.132,9.132,0,0,0,6.44-6.236A90.43,90.43,0,0,0,74,30.492a90.429,90.429,0,0,0-1.542-17.336ZM29.631,41.216V19.735L48.952,30.492Z" transform="translate(-0.007 -5.424)"/>
</svg>
