<svg xmlns="http://www.w3.org/2000/svg" xmlns:xlink="http://www.w3.org/1999/xlink" width="1024" height="580" viewBox="0 0 1024 580">
  <defs>
    <clipPath id="clip-Artboard_1">
      <rect width="1024" height="580"/>
    </clipPath>
  </defs>
  <g id="Artboard_1" data-name="Artboard – 1" clip-path="url(#clip-Artboard_1)">
    <rect width="1024" height="580" fill="#fff"/>
    <g id="Rectangle_14" data-name="Rectangle 14" fill="rgba(41,44,48,0)" stroke="#707070" stroke-width="1">
      <rect width="1920" height="580" stroke="none"/>
      <rect x="0.5" y="0.5" width="1919" height="579" fill="none"/>
    </g>
    <g id="Group_13" data-name="Group 13" transform="translate(-1256.969 69.374)">
      <g id="Group_10" data-name="Group 10" transform="translate(1342.986 62.93)">
        <path id="Path_30" data-name="Path 30" d="M1429.4,200.262l-38.952,15.563,8.135,12.821,17.21-6.88a25.878,25.878,0,0,1-4.676,11.186,25.579,25.579,0,0,1-11.465,8.818,26.026,26.026,0,0,1-10.389,1.928,26.819,26.819,0,0,1-18.432-7.655,25.6,25.6,0,0,1-5.854-8.677A25.2,25.2,0,0,1,1363,217.14a26.53,26.53,0,0,1,28.28-25.744,27.034,27.034,0,0,1,10.987,3.219l1.2.65,6.692-15.584-1.043-.5a46.467,46.467,0,0,0-17.469-4.465,42.779,42.779,0,0,0-18.484,3.1,42.181,42.181,0,0,0-14.392,9.41,44.365,44.365,0,0,0-9.292,13.591A42.354,42.354,0,0,0,1346,216.869a42.27,42.27,0,0,0,12.79,30.872,44.011,44.011,0,0,0,13.88,9.061,45.908,45.908,0,0,0,16.313,3.36c.337.007.672.012,1.009.012a42.9,42.9,0,0,0,15.984-3.145,42.2,42.2,0,0,0,14.392-9.407,43.693,43.693,0,0,0,9.241-13.577,43.05,43.05,0,0,0,3.446-15.976,40.747,40.747,0,0,0-3.188-16.689Z" transform="translate(-1345.986 -105.586)" fill="#c0996b" stroke="#000" stroke-width="1"/>
        <path id="Path_31" data-name="Path 31" d="M1551.292,176.122a11.841,11.841,0,0,0-8.978-1.023,11.613,11.613,0,0,0-7.14,5.447,11.419,11.419,0,0,0,4.52,15.9,11.959,11.959,0,0,0,5.708,1.484,12.316,12.316,0,0,0,3.276-.454,11.623,11.623,0,0,0,7.14-5.447,10.85,10.85,0,0,0,1.175-8.81A11.277,11.277,0,0,0,1551.292,176.122Z" transform="translate(-1408.667 -105.586)" fill="#fff" stroke="#000" stroke-width="1"/>
        <path id="Path_32" data-name="Path 32" d="M1563.6,144.06a44.109,44.109,0,0,0-12.7-10.62,45.089,45.089,0,0,0-15.769-5.178,43.89,43.89,0,0,0-32.633,8.952,44.655,44.655,0,0,0-10.806,12.463,42.49,42.49,0,0,0-5.315,15.566,42.136,42.136,0,0,0,9.129,32.1,43.81,43.81,0,0,0,12.742,10.55,45.767,45.767,0,0,0,15.818,5.162,41.145,41.145,0,0,0,5.626.384,43.906,43.906,0,0,0,11.62-1.6,42.406,42.406,0,0,0,15.388-7.739,43.935,43.935,0,0,0,10.753-12.456,43.225,43.225,0,0,0,5.272-15.486,40.66,40.66,0,0,0-1.234-16.939A41.5,41.5,0,0,0,1563.6,144.06Zm-7.576,30.062a26.289,26.289,0,0,1-3.2,9.514,26.641,26.641,0,0,1-6.6,7.623,26.1,26.1,0,0,1-9.419,4.722,26.458,26.458,0,0,1-10.546.756,27.3,27.3,0,0,1-9.67-3.159,26.9,26.9,0,0,1-7.754-6.507,25.46,25.46,0,0,1-4.812-9.275,25.18,25.18,0,0,1-.777-10.38,26.222,26.222,0,0,1,3.2-9.511,26.571,26.571,0,0,1,6.606-7.624,26.11,26.11,0,0,1,9.416-4.724,27,27,0,0,1,7.148-.98,25.538,25.538,0,0,1,3.4.226,27.28,27.28,0,0,1,9.67,3.159,26.979,26.979,0,0,1,7.756,6.505,25.5,25.5,0,0,1,4.81,9.275A25.209,25.209,0,0,1,1556.025,174.121Z" transform="translate(-1392.772 -89.958)" fill="#c0996b" stroke="#000" stroke-width="1"/>
        <path id="Path_33" data-name="Path 33" d="M1710.007,115.586a43.934,43.934,0,0,0-11.569-11.8,44.974,44.974,0,0,0-15.171-6.679,43.987,43.987,0,0,0-33.374,5.751,44.843,44.843,0,0,0-12,11.358,42.683,42.683,0,0,0-6.852,14.974,42.054,42.054,0,0,0,5.865,32.832,43.579,43.579,0,0,0,11.621,11.733,45.6,45.6,0,0,0,15.223,6.665,41.617,41.617,0,0,0,9.657,1.123,44.774,44.774,0,0,0,7.626-.662,42.49,42.49,0,0,0,16.09-6.212,44.168,44.168,0,0,0,11.951-11.353,43.321,43.321,0,0,0,6.8-14.9,40.631,40.631,0,0,0,.471-16.974A41.333,41.333,0,0,0,1710.007,115.586Zm-10.554,29.185a26.4,26.4,0,0,1-4.139,9.155,26.725,26.725,0,0,1-7.337,6.947,27.063,27.063,0,0,1-20.416,3.52,27.217,27.217,0,0,1-9.307-4.08,26.772,26.772,0,0,1-7.065-7.226,25.966,25.966,0,0,1-3.59-20.1,26.369,26.369,0,0,1,4.138-9.155,26.777,26.777,0,0,1,7.339-6.947,26.2,26.2,0,0,1,9.845-3.789,27.536,27.536,0,0,1,4.682-.4,25.785,25.785,0,0,1,5.888.676,27.276,27.276,0,0,1,9.306,4.078,26.879,26.879,0,0,1,7.066,7.228,25.364,25.364,0,0,1,3.854,9.693v0A25.168,25.168,0,0,1,1699.453,144.771Z" transform="translate(-1440.858 -79.303)" fill="#c0996b" stroke="#000" stroke-width="1"/>
        <path id="Path_34" data-name="Path 34" d="M1695.935,149.853a7.979,7.979,0,0,0-5.961-1.277,7.877,7.877,0,0,0-5.163,3.193,7.694,7.694,0,0,0,1.959,10.974,7.944,7.944,0,0,0,4.5,1.4,8.664,8.664,0,0,0,1.462-.127,7.884,7.884,0,0,0,5.163-3.193,7.338,7.338,0,0,0,1.386-5.835A7.563,7.563,0,0,0,1695.935,149.853Z" transform="translate(-1458.705 -96.833)" fill="#fff" stroke="#000" stroke-width="1"/>
        <path id="Path_35" data-name="Path 35" d="M1845.719,122.6a21.772,21.772,0,0,0-8.133-6.394l0,0c-6.557-3.079-15.527-4.144-26.655-3.149a60.566,60.566,0,0,1-9.627.2,30.262,30.262,0,0,1-6.379-1.053,8.552,8.552,0,0,1-3.29-1.649c-.762-.718-.907-1.18-.927-1.39a9.2,9.2,0,0,1,.522-2.9,12.3,12.3,0,0,1,2.509-4.389,18.914,18.914,0,0,1,5.645-4.317,26.05,26.05,0,0,1,9.881-2.535,26.843,26.843,0,0,1,10.022.667,19.794,19.794,0,0,1,6.338,3.062,11.252,11.252,0,0,1,3.287,3.753,13.171,13.171,0,0,1,1.2,3.109l.247,1.317,16.107-4.655-.295-1.129a28.9,28.9,0,0,0-11.719-16.3,37.7,37.7,0,0,0-11.5-5.15,43.2,43.2,0,0,0-15.2-1.081,42.74,42.74,0,0,0-15.906,4.243,36.561,36.561,0,0,0-10.65,8.025,27.905,27.905,0,0,0-5.8,9.916,24.752,24.752,0,0,0-1.278,9.8,20.752,20.752,0,0,0,.679,3.39,17.263,17.263,0,0,0,2.027,4.472,19.5,19.5,0,0,0,4.129,4.615,24.44,24.44,0,0,0,6.948,3.887,42.324,42.324,0,0,0,10.25,2.323,72.025,72.025,0,0,0,14.274-.052c7-.619,12.234-.374,15.563.73,2.906.968,4.562,2.1,4.663,3.2a10.464,10.464,0,0,1-.457,3.121,11.509,11.509,0,0,1-2.436,4.431,18.909,18.909,0,0,1-5.644,4.337,26.281,26.281,0,0,1-9.994,2.552,26.907,26.907,0,0,1-10.021-.665,19.06,19.06,0,0,1-6.331-3.112,11.718,11.718,0,0,1-3.305-3.819,13.678,13.678,0,0,1-1.2-3.105l-.242-1.307-16.122,4.523.3,1.136a29.3,29.3,0,0,0,4,8.665,28.169,28.169,0,0,0,7.733,7.7,37.735,37.735,0,0,0,11.492,5.1,39.608,39.608,0,0,0,10.372,1.281q2.338,0,4.825-.221a42.814,42.814,0,0,0,15.905-4.241,36,36,0,0,0,10.651-8.088,28.5,28.5,0,0,0,5.791-9.968,24.727,24.727,0,0,0,1.277-9.8A17.474,17.474,0,0,0,1845.719,122.6Z" transform="translate(-1489.02 -73.424)" fill="#c0996b" stroke="#000" stroke-width="1"/>
        <path id="Path_36" data-name="Path 36" d="M1917.8,140.978l-.163-7.676,29.793-.613,2.893-16.536-33.037.678-.607-28.422,49.17-1.011-.355-16.47-65.817,1.357,1.823,85.506,65.817-1.357-.35-16.468Z" transform="translate(-1531.004 -70.93)" fill="#c0996b" stroke="#000" stroke-width="1"/>
        <path id="Path_37" data-name="Path 37" d="M2080.522,116.884a27.454,27.454,0,0,0-5.884-6.031,26.491,26.491,0,0,0-5.7-3.256,20.29,20.29,0,0,0,3.792-5.093,19.816,19.816,0,0,0,2.245-8.4,19.138,19.138,0,0,0-1.288-7.984,21.154,21.154,0,0,0-4.157-6.627,21.538,21.538,0,0,0-6.332-4.684,20.065,20.065,0,0,0-7.974-2l-38.591-1.764-4.044,85.433,44.468,2.031q.658.031,1.3.03a26.462,26.462,0,0,0,9.257-1.633,27.535,27.535,0,0,0,8.838-5.3,26.975,26.975,0,0,0,6.191-8.149,26.449,26.449,0,0,0,1.566-18.965A26.228,26.228,0,0,0,2080.522,116.884Zm-25.706-19.724A5.279,5.279,0,0,1,2050.8,98.6l-18.64-.853.528-11.068,18.635.85a5.5,5.5,0,0,1,5.289,5.732A5.419,5.419,0,0,1,2054.816,97.161Zm-23.735,21,24.524,1.119a11.3,11.3,0,0,1,4.466,1.124,12.865,12.865,0,0,1,3.661,2.653,11.429,11.429,0,0,1,2.375,3.755,11.051,11.051,0,0,1-.419,8.889,11.482,11.482,0,0,1-2.72,3.522,12.845,12.845,0,0,1-3.9,2.309,11.479,11.479,0,0,1-4.552.711l-24.526-1.121Z" transform="translate(-1568.736 -70.968)" fill="#c0996b" stroke="#000" stroke-width="1"/>
        <path id="Path_38" data-name="Path 38" d="M2193.883,83.575l-6.781,56.486c-.479,3.99-2.233,6.794-5.356,8.568-3.2,1.816-7.738,2.394-13.475,1.739-5.822-.676-10.081-2.224-12.665-4.6-2.511-2.314-3.495-5.412-3.007-9.476l6.809-56.714-16.541-1.913-6.807,56.709a28.43,28.43,0,0,0,.744,10.986,26,26,0,0,0,4.841,9.485c5.325,6.453,13.631,10.373,24.689,11.652a56.4,56.4,0,0,0,6.523.4,36.375,36.375,0,0,0,9.492-1.143,30.965,30.965,0,0,0,11.31-5.478,25.284,25.284,0,0,0,7-8.54,29.925,29.925,0,0,0,2.985-9.758l6.783-56.49Z" transform="translate(-1609.918 -73.181)" fill="#c0996b" stroke="#000" stroke-width="1"/>
        <path id="Path_39" data-name="Path 39" d="M2243.238,175.852l15.212,3.034,13.972-40.64,6.754,19.3,7.865,21.837,11.712-12.543-26.673-74.984Z" transform="translate(-1645.808 -77.923)" fill="#c0996b" stroke="#000" stroke-width="1"/>
        <path id="Path_40" data-name="Path 40" d="M2320.1,155.605l5.8,16.228,17.095-18.386-3.519,42.894,15.21,3.034,7.052-88.326Z" transform="translate(-1671.492 -84.336)" fill="#c0996b" stroke="#000" stroke-width="1"/>
        <path id="Path_41" data-name="Path 41" d="M2463.776,160.948a32.414,32.414,0,0,0-3.732-11.73,32.977,32.977,0,0,0-7.908-9.523h0a31.749,31.749,0,0,0-11.389-6.01l-33.681-9.94-25.051,81.909,15.95,4.707,10.976-35.886-1.682,16.372,14.679,4.33a32.133,32.133,0,0,0,12.876,1.147,33.769,33.769,0,0,0,11.945-3.663,33.277,33.277,0,0,0,9.7-7.77,31.669,31.669,0,0,0,7.323-23.943ZM2418.19,144.23l17.731,5.228a15.326,15.326,0,0,1,5.567,2.954,16.442,16.442,0,0,1,3.856,4.655,16.073,16.073,0,0,1,1.844,5.708,14.515,14.515,0,0,1-.551,6.168,14.692,14.692,0,0,1-3,5.447,17.358,17.358,0,0,1-4.773,3.829,15.677,15.677,0,0,1-5.8,1.786,16.14,16.14,0,0,1-6.306-.6l-17.728-5.23Z" transform="translate(-1692.18 -88.578)" fill="#c0996b" stroke="#000" stroke-width="1"/>
        <path id="Path_42" data-name="Path 42" d="M2584.966,206.25a28.086,28.086,0,0,0-3.265-10.3,36.849,36.849,0,0,0-7.8-9.773,42.606,42.606,0,0,0-12.993-7.822,43.444,43.444,0,0,0-16.107-3.418,37.134,37.134,0,0,0-13.216,2.314,28.681,28.681,0,0,0-9.8,6.184,25.167,25.167,0,0,0-5.723,8.13,20.566,20.566,0,0,0-.983,3.315,17.126,17.126,0,0,0-.295,4.887,19.177,19.177,0,0,0,1.5,5.96,23.79,23.79,0,0,0,4.351,6.592,41.533,41.533,0,0,0,8.013,6.691,71.136,71.136,0,0,0,12.7,6.406c6.508,2.607,11.041,5.19,13.478,7.678,2.125,2.172,3.063,3.93,2.641,4.947a10.579,10.579,0,0,1-1.869,2.568,11.773,11.773,0,0,1-4.238,2.834,19.255,19.255,0,0,1-7.042,1.3,26.775,26.775,0,0,1-10.07-2.245,26.443,26.443,0,0,1-8.587-5.119,18.537,18.537,0,0,1-4.163-5.626,11.44,11.44,0,0,1-1.147-4.879,13.571,13.571,0,0,1,.388-3.3l.4-1.272-16.435-3.267-.268,1.145a29.231,29.231,0,0,0-.509,9.5,27.6,27.6,0,0,0,3.26,10.333,36.923,36.923,0,0,0,7.818,9.72,47.981,47.981,0,0,0,28.865,11.224h.242a36.606,36.606,0,0,0,13.245-2.368,29.26,29.26,0,0,0,9.808-6.234,25.153,25.153,0,0,0,5.726-8.131,17.341,17.341,0,0,0,1.135-9.659,21.256,21.256,0,0,0-4.229-9.353l0,0c-4.378-5.7-11.845-10.689-22.195-14.838a58.857,58.857,0,0,1-8.639-4.175,29.706,29.706,0,0,1-5.171-3.817,8.281,8.281,0,0,1-2.147-2.95,2.439,2.439,0,0,1-.175-1.649,9.447,9.447,0,0,1,1.825-2.344,12.578,12.578,0,0,1,4.281-2.763,19.254,19.254,0,0,1,7.035-1.282,31.806,31.806,0,0,1,18.546,7.332,19.28,19.28,0,0,1,4.193,5.583,11,11,0,0,1,1.161,4.818,13.526,13.526,0,0,1-.389,3.3l-.4,1.282,16.483,3.143.266-1.135A28.52,28.52,0,0,0,2584.966,206.25Z" transform="translate(-1732.865 -105.683)" fill="#c0996b" stroke="#000" stroke-width="1"/>
      </g>
      <g id="Group_9" data-name="Group 9" transform="translate(1539.638 140.86)">
        <g id="Group_5" data-name="Group 5" transform="translate(226.955 1.438)">
          <g id="Group_3" data-name="Group 3" transform="translate(71.048)">
            <path id="Path_4" data-name="Path 4" d="M2085.885,285.189v-3.9a1.9,1.9,0,0,0,.149-.424,20.412,20.412,0,0,1,2.443-7.815c1.356-2.493,2.8-4.942,4.219-7.4a7.687,7.687,0,0,1,3.077-3.145,12.632,12.632,0,0,0,4.55-4.086c1.477-2.042,3.242-3.874,4.885-5.8l-.9.229-.138-.163a4.993,4.993,0,0,1,.666-.771c1.073-.833,2.134-1.692,3.268-2.437a26.508,26.508,0,0,1,14-4.832,3.672,3.672,0,0,0,1.085-.208,15.768,15.768,0,0,0,4.544-2.459c1.782-1.381,3.609-2.707,5.4-4.074a3.748,3.748,0,0,0,.828-.861c.913-1.359,1.849-2.707,2.668-4.123.781-1.35,1.985-2.492,1.976-4.259,0-.583.5-1.161.744-1.753a3.541,3.541,0,0,0,.138-.7c-.571.005-.245-.309-.168-.506a3.415,3.415,0,0,0,.337-1.364c0-.409.583-.822.9-1.241a1.906,1.906,0,0,0,.161-.362h-.724l2.277-1.853-.347-.276.948-1.577-.556-.218,1.133-1.005-.1-.117-1.245.454c.649-.758,1.65-1.038,2.1-2l-.75-.107,2.362-2.135-.772-.057c.352-.655.729-1.284,1.035-1.947.185-.4.186-.894.4-1.27.4-.7.9-1.337,1.357-2.006l-.5-.24.965-.808-.361-.338,2.573-1.718-.872-.329.323-.36-1-.332c1.582-.338,3.1-.669,4.088-2.057l-.512-.15,1.188-.74.078-1.232,1.009-.443-.332-.353,1.028-.508-.809-.24c1.017-.635,1.988-1.236,2.952-1.85.091-.059.123-.2.2-.3a11.6,11.6,0,0,1,1.077-1.283c.5-.46,1.08-.836,1.72-1.32l-1.4-.727h1.081l-.172-.239a7.214,7.214,0,0,0,1.715-.69,9.959,9.959,0,0,1,2.8-1.5c.109-.035.292-.163.281-.194-.2-.571.368-.595.593-.86.249-.293.428-.651.7-.916a7.835,7.835,0,0,1,.785-.481,8.638,8.638,0,0,1,1.329-1.061,27.038,27.038,0,0,1,2.581-.953.8.8,0,0,1,.376-.533c.3-.14.67-.136.943-.3.773-.471,1.732-.425,2.485-1.007a4.131,4.131,0,0,1,1.567-.52,24.593,24.593,0,0,1,4.417-.934,43.536,43.536,0,0,0,5.24-.977h3.156c.235.059.468.134.706.176,1.426.251,2.875.408,4.276.76,2.152.541,4.291,1.16,6.4,1.851a38.966,38.966,0,0,1,4.466,1.777,26.707,26.707,0,0,1,6.986,5.285,15.01,15.01,0,0,1,4.3,7.314c.3,1.2.577,2.4.791,3.616a37.954,37.954,0,0,0,1.776,6.19,33.255,33.255,0,0,0,4.57,8.849,62.986,62.986,0,0,0,10.962,11.033,11.3,11.3,0,0,1,3.789,4.771v1.486c-.125.314-.243.631-.375.942-.762,1.787-1.673,1.918-3.016.485a2.406,2.406,0,0,0-1.068-.619c-1.483-.417-3.006-.7-4.469-1.173a34.7,34.7,0,0,1-9.381-4.56c-1.465-1.029-2.9-2.109-4.434-3.027-3.128-1.873-6.311-3.655-9.478-5.462a2.894,2.894,0,0,0-.857-.3,16.1,16.1,0,0,1-2.267-.421,28.294,28.294,0,0,0-10.671-1.787c-.122,0-.243.022-.365.028-.838.041-1.677.115-2.516.111-.81,0-1.619-.13-2.429-.127-.972,0-1.948.052-2.916.145q-2.094.2-4.177.5a7.687,7.687,0,0,1-1.836.388c-.743-.1-1.127.306-1.614.651-.19.134-.48.33-.64.27-.4-.152-.592.065-.766.314-.527.754-1.716.784-1.978,1.822a.178.178,0,0,1-.147.095c-.691-.216-.891.4-1.213.749a8.374,8.374,0,0,0-1.9,3.355c-.092.316-.234.778-.463.858-.489.171-.512.551-.661.9-.4.936-.806,1.866-1.206,2.8a3.615,3.615,0,0,0-.415,1.074c-.1,1.6-.134,3.213-.2,4.819-.121,2.809-.172,5.626-.416,8.424a16.665,16.665,0,0,0,.114,3.587.991.991,0,0,0,.781.89c4.875,1.661,9.182,4.391,13.422,7.226,1.409.942,2.62,2.179,4.017,3.139,2.7,1.855,5.468,3.612,8.213,5.4a2.153,2.153,0,0,0,.676.278,14.2,14.2,0,0,1,4.341,1.807,1.062,1.062,0,0,0,.845.084,3.672,3.672,0,0,1,3.64.037,2.348,2.348,0,0,0,.514.206c.283.095.57.178.854.266l.064-.17-.818-.682c.085-.036.115-.062.141-.057a1.738,1.738,0,0,1,.266.069,8.435,8.435,0,0,1,5.121,5.382c.449,1.232.845,2.482,1.266,3.724l.261.028a14.69,14.69,0,0,0,.647-1.471,37.357,37.357,0,0,0,1.52-8.268c.04-.467.094-.934.16-1.582a3.13,3.13,0,0,1,.776,2.162c-.116,1.474-.268,2.948-.47,4.413-.21,1.52-.5,3.029-.759,4.589l1.705.752c1.726-2.22,3.426-4.407,5.125-6.594a5.288,5.288,0,0,1-1.181,3.5,6.661,6.661,0,0,0-.7,1.081c-.38.81-.632,1.686-1.073,2.458-.489.856.5,1.768-.2,2.571-.03.035.039.171.079.251.2.4.49.41.921.316a17.3,17.3,0,0,1,7.9-.238,9.643,9.643,0,0,1,4.357,2.153,10.234,10.234,0,0,0-6.931.027c.217.517.286,1.145.635,1.426a39.642,39.642,0,0,0,3.272,2.271,2.59,2.59,0,0,0,2.024.443,3.3,3.3,0,0,1,.817.053,7.782,7.782,0,0,0,1.063.027,6,6,0,0,0,.895-.21,5.634,5.634,0,0,1-3.655,1.424c-1.571-.009-3.143-.073-4.711-.17-.673-.042-1.336-.236-2-.346-.967-.158-1.2.006-1.41.962a2.847,2.847,0,0,1-.107.3l-.552-.232c-.528,1.087-.454,1.442.338,2.217a2.588,2.588,0,0,1,.716.948,3.3,3.3,0,0,1-.068,1.155l1.358.775-.056.131-1.44-.58-.078.173,1.041.621-1.008-.087c.4.454.7.847,1.048,1.185a5.507,5.507,0,0,0,1.249,1.023c1.57.787,3.19,1.475,4.762,2.259a6.628,6.628,0,0,1,1.492,1.083.88.88,0,0,1-.233,1.573,2.385,2.385,0,0,1-.871.3c-1.316.124-2.635.236-3.956.3a2.3,2.3,0,0,1-1.821-.761c-1.206-1.262-2.837-1.608-4.442-1.992a3.992,3.992,0,0,0-.862.043l2.05,2.127-.066.055-2.114-1.471a1.9,1.9,0,0,0,1.118,1.578c.051.031.07.117.14.243l-.957-.184,1.46,1.561-.109.107-1.49-.942-.052.089.755.937a1.023,1.023,0,0,1-.567-.152c-.295-.139-.585-.405-.922-.083s-.081.615.075.908q.261.491.521.983l-.167.1-.726-.568c-1.5.028-1.438,1.15-1.429,2.089.026,2.719.15,5.437.214,8.156a14.112,14.112,0,0,1-.071,2.213,13.09,13.09,0,0,1-1.638,4.3c-.034.065,0,.162,0,.228l.747-.25c-.914,1.5-1.923,2.861-2.935,4.221-.073.1-.253.244-.24.262.525.705-.284.654-.517.805a19.758,19.758,0,0,1-1.969.99l.806.332-.156.268-2.057.478.707.635h-2.07l.089.617-2.026-.172-.042.126.967.517-2.318.611v.226l1.171.487-.038.159h-1.377l-.011.131.95.377a.8.8,0,0,1-.593.244,20.857,20.857,0,0,1-2.109-.264.786.786,0,0,0-.949.392l1.834.633-.055.242a9.019,9.019,0,0,1-2.2-.384,1.407,1.407,0,0,0-1.742.348,8.1,8.1,0,0,0-.921,1.537l-.958-.615-3.97,2.657.748.174a16.816,16.816,0,0,1-1.323,1.207c-.622.455-1.3.838-1.943,1.264-.172.114-.468.3-.447.405.11.54-.323.617-.614.773a24.515,24.515,0,0,1-6.2,2.5c-.417,1.468-.841,2.946-1.257,4.426a67.6,67.6,0,0,0-2.4,11.59c-.159,1.6-.4,3.187-.691,4.763-.125.677-.543,1.294-.716,1.968a9.853,9.853,0,0,0-.145,4.847,2.488,2.488,0,0,1-1.49,2.974.877.877,0,0,0-.627,1.128,1.543,1.543,0,0,1-.887,1.776,42.211,42.211,0,0,0-4.476,2.563,3.9,3.9,0,0,1-1.308.446c-.973.162-1.958.254-2.937.378a8.544,8.544,0,0,0-3.946,1.1h-.929l-1.6-.392-.163-.562a18.083,18.083,0,0,1-2.625-.617,22.51,22.51,0,0,0-6.878-1.36c-3.974-.274-7.958-.394-11.937-.6a6.337,6.337,0,0,1-1.088-.246l-.051-.3a5.4,5.4,0,0,1,1.09-.74,27.118,27.118,0,0,1,3.339-1.077,6.147,6.147,0,0,0,3.505-2.428c.707-.908.652-1.123-.237-2.007l-2,.568c.335-.981-.233-1.009-.789-1-2.1.023-4.207.039-6.309.1a29.342,29.342,0,0,1-7.393-.239,5.491,5.491,0,0,1-.16.742,2.548,2.548,0,0,1-.37.738c-.486.6-1.264.531-1.426-.19-.26-1.154-1.091-1.572-2.042-1.914a23.134,23.134,0,0,0-6.342-1.251c-2.528-.164-5.067-.148-7.6-.231-.543-.018-1.233.16-1.344-.726-.009-.077-.241-.13-.374-.184-.636-.263-.733-.591-.176-.961a6.573,6.573,0,0,1,1.832-.84c1.9-.534,3.811-1,5.72-1.486,1.97-.5,3.927-1.066,5.918-1.465,1.388-.278,2.823-.319,4.235-.473a18.415,18.415,0,0,0,2.568-.319c1.522-.389,3.031-.848,4.511-1.374a33.221,33.221,0,0,0,3.743-1.585,2.984,2.984,0,0,0,1.289-2.771,28.212,28.212,0,0,1-.394-4.04c.027-3.124.185-6.246.287-9.368a5.588,5.588,0,0,0,0-.926c-.225-1.651-.485-3.3-.7-4.949a1.337,1.337,0,0,0-.872-1.175c-2.06-.917-4.1-1.87-6.143-2.831a50.187,50.187,0,0,1-7.468-3.885,82.23,82.23,0,0,1-16-15.257c-1.324-1.588-2.581-3.238-3.968-4.768-2.118-2.336-4.44-4.494-6.466-6.9a28.563,28.563,0,0,1-6.459-14.545C2086.249,287.374,2086.06,286.282,2085.885,285.189Zm85.027,62.587a9.889,9.889,0,0,1-7.05-.075,1.215,1.215,0,0,0-.505-.037,6.391,6.391,0,0,1-1.213.145c-.666-.067-1.321-.242-1.994-.376l-.088.591c-.976-.32-1.908-.549-2.776-.926-5.041-2.186-10.067-4.407-15.1-6.617l-1.431-.63a7.521,7.521,0,0,0-.22.721,4.7,4.7,0,0,0-.054.647,34.93,34.93,0,0,0,1.326,10.068,6.3,6.3,0,0,0,1.994,3.379,29.966,29.966,0,0,0,4.44,3.462,6.349,6.349,0,0,1,.781.674,8.175,8.175,0,0,1-.912.178,7.3,7.3,0,0,1-.8-.029c-.766,1.371-2.34,1.5-3.918.242a5.246,5.246,0,0,0,.248,1.432,11.431,11.431,0,0,0,1.489,2.423c1.083,1.227,2.3,2.331,3.464,3.488a5.672,5.672,0,0,1,2.073,4.065,15.92,15.92,0,0,0,2.069.133c2.312-.148,4.633-.266,6.926-.569a36.322,36.322,0,0,0,4.492-1.072,1.913,1.913,0,0,0,1.3-1.093c1.169-2.555,2.42-5.074,3.523-7.656a31.068,31.068,0,0,0,2.4-8.429A7.276,7.276,0,0,0,2170.912,347.777Zm28.34-78.076a3.778,3.778,0,0,0,.54.618c.242.182.556.263.815.425,1.369.855,2.579,1.827,2.657,3.638a.678.678,0,0,0,.292.513c1.039.429,2.1.815,3.325,1.282a5.268,5.268,0,0,0-.018-1.2,5.092,5.092,0,0,0-.549-1.266A7.991,7.991,0,0,0,2199.252,269.7Z" transform="translate(-2085.885 -182.129)"/>
          </g>
          <g id="Group_4" data-name="Group 4" transform="translate(0 67.371)">
            <path id="Path_5" data-name="Path 5" d="M2060.508,327.344q2.447,1.568,4.887,3.13c-5.667-.326-10.714-2.444-15.494-5.36-.1.16-.193.313-.293.473q3.316,2.727,6.638,5.453c-8.356-1.678-14.362-7.631-21.873-11.739,2.011,2.357,3.742,4.388,5.48,6.419-.173.18-.34.36-.512.546-5.347-4.122-10.561-8.509-17.678-9.342.879.566,1.758,1.125,3.11,1.991-4.421-1.565-8.523-3.016-12.711-4.5-1.279-.453-2.563-.912-3.869-1.372-.013-.007-.02-.007-.033-.013a.094.094,0,0,0,.007-.04c.026-.14.106-.639.239-1.119q.09-.3.18-.6.669-2.277,1.405-4.534c.9-2.723-.28-4.721-2.41-6.519,2.264-1.764,3.908-3.8,4.055-6.825a37.309,37.309,0,0,1-2.776,3.6,6.562,6.562,0,0,1-5.806,2,22.471,22.471,0,0,1-7.624-1.978,3.929,3.929,0,0,0-2.157-.366c1.911,1.039,3.875,1.984,5.726,3.123,3.962,2.444,6.712,5.793,7.4,10.547a4.952,4.952,0,0,1-.04,2.191c-.333,1.005-1.178,1.558-1.958.473-2.317-3.229-5.593-4.142-9.315-4.248-4.6-.14-7.564-2.943-9.988-6.505-.306.346-.526.6-.752.859-3.7-4.355-2.783-11.792.926-16.074a4.778,4.778,0,0,1,2.483-1.212c10.134-2.244,20.362-3.243,30.722-1.858a5.884,5.884,0,0,0,1.052-.053c-1.212-1.232,8.762,2.677,7.7,1.585,8.7,4.528,42.363,3.488,42.7,1.6-1.105,14.149.038,28.478,5.351,41.7C2070.136,329.715,2065.362,328.529,2060.508,327.344Z" transform="translate(-1980.12 -283.31)"/>
            <path id="Path_6" data-name="Path 6" d="M2004.873,326.635c-5.544,4.118-13.624,3.4-15.783-.98,2.964-.555,5.971-1.3,9.022-1.637A8.023,8.023,0,0,1,2004.873,326.635Z" transform="translate(-1982.493 -296.896)"/>
            <path id="Path_7" data-name="Path 7" d="M2009.563,331.949c-2.081,2.128-5.568,2.37-6.784.652,1.224-.437,2.454-.955,3.729-1.308A3.458,3.458,0,0,1,2009.563,331.949Z" transform="translate(-1987.067 -299.303)"/>
            <path id="Path_8" data-name="Path 8" d="M1979.581,306.282c1.385,6.112,7.005,7.763,11.436,11.132-3.51.541-6.7.58-9.207-1.955A9.013,9.013,0,0,1,1979.581,306.282Z" transform="translate(-1979.182 -290.986)"/>
            <path id="Path_9" data-name="Path 9" d="M2012.569,308.845c2.823.546,5.575,1.055,6.52,4.119.267.863-.372,2-.7,3.5Z" transform="translate(-1990.338 -291.842)"/>
          </g>
          <path id="Path_10" data-name="Path 10" d="M2030.512,333.529a12.664,12.664,0,0,1-1.9-1.551l.2-1.119-.386.939c-.313-.32-.606-.653-.892-1.005l.3-.965c-.04.073-.253.479-.446.786a17.279,17.279,0,0,1-2.25-3.869l3.2-2.171a14.436,14.436,0,0,1,2.024,3.809,9.214,9.214,0,0,1,.466,2.324A7.926,7.926,0,0,1,2030.512,333.529Z" transform="translate(-1994.536 -229.727)"/>
          <path id="Path_11" data-name="Path 11" d="M2024.858,330.844a10.273,10.273,0,0,1-3.529-4.454.2.2,0,0,1-.027-.053c.027-.14.106-.639.24-1.119l.18-.6,1.791-1.365a10.125,10.125,0,0,1,1.685,4.508A7.823,7.823,0,0,1,2024.858,330.844Z" transform="translate(-1993.256 -229.286)"/>
          <path id="Path_12" data-name="Path 12" d="M2036.89,334.149l-.433-.226.42.419a6.133,6.133,0,0,1-.4,1.725,11.8,11.8,0,0,1-1.491-1.445l.253-.393a4.5,4.5,0,0,0-.346.293,12.019,12.019,0,0,1-.966-1.292l.806-.293a3.42,3.42,0,0,1-.986.007,8.524,8.524,0,0,1-.533-.926,15.576,15.576,0,0,1-.912-2.1l.446-.226,2.384-1.192A9.842,9.842,0,0,1,2036.89,334.149Z" transform="translate(-1996.932 -231.041)"/>
          <path id="Path_13" data-name="Path 13" d="M2048.876,339.237l.586.679c-.02.466-.053.939-.107,1.4l-.879-.273.839.553a16.744,16.744,0,0,1-.386,2.031,23.036,23.036,0,0,1-5.26-4.395l.586-.513-.832.233a26.287,26.287,0,0,1-2.151-2.863l1.192-1.691a19.71,19.71,0,0,0-1.318,1.5,33.625,33.625,0,0,1-2.6-4.881l5.946-4.947q4.954,6.652,4.98,13.164Z" transform="translate(-1999.017 -230.229)"/>
          <path id="Path_14" data-name="Path 14" d="M2071.257,355.927a50.71,50.71,0,0,1-7.264-5.014l.746-2.87-1.525,2.2a46.785,46.785,0,0,1-3.582-3.4l.833-2.923-1.638,2.064a59.439,59.439,0,0,1-7.644-10.407l9.715-6.525Q2073.821,343.3,2071.257,355.927Z" transform="translate(-2003.241 -231.224)"/>
          <path id="Path_15" data-name="Path 15" d="M2062.794,338.163a103.742,103.742,0,0,0,7.079,10.553Q2066.594,343.463,2062.794,338.163Z" transform="translate(-2007.121 -234.269)" fill="#fff"/>
          <path id="Path_16" data-name="Path 16" d="M2045.785,334.014c.954,2.345,2.06,4.672,3.281,6.984Q2047.558,337.553,2045.785,334.014Z" transform="translate(-2001.438 -232.882)" fill="#fff"/>
        </g>
        <g id="Group_8" data-name="Group 8">
          <g id="Group_6" data-name="Group 6">
            <path id="Path_17" data-name="Path 17" d="M1790.076,286.31a28.565,28.565,0,0,1-6.459,14.545c-2.025,2.41-4.348,4.568-6.466,6.9-1.388,1.53-2.643,3.18-3.968,4.768a82.223,82.223,0,0,1-16,15.256,50.154,50.154,0,0,1-7.468,3.885c-2.039.961-4.083,1.914-6.143,2.831a1.336,1.336,0,0,0-.872,1.175c-.216,1.652-.475,3.3-.7,4.949a5.589,5.589,0,0,0,0,.926c.1,3.122.26,6.244.287,9.368a28.105,28.105,0,0,1-.394,4.04,2.984,2.984,0,0,0,1.289,2.771,33.2,33.2,0,0,0,3.743,1.585c1.48.526,2.989.985,4.511,1.374a18.417,18.417,0,0,0,2.567.319c1.412.154,2.847.194,4.235.473,1.991.4,3.949.964,5.919,1.465,1.909.485,3.824.952,5.719,1.486a6.578,6.578,0,0,1,1.832.84c.558.37.461.7-.176.961-.132.055-.364.108-.373.184-.111.886-.8.708-1.344.726-2.533.083-5.072.067-7.6.231a23.14,23.14,0,0,0-6.342,1.251c-.952.342-1.782.76-2.042,1.914-.162.721-.94.791-1.426.19a2.536,2.536,0,0,1-.37-.738,5.42,5.42,0,0,1-.16-.742,29.347,29.347,0,0,1-7.393.239c-2.1-.059-4.205-.075-6.309-.1-.556-.005-1.124.023-.789,1l-2-.568c-.89.884-.945,1.1-.238,2.007a6.148,6.148,0,0,0,3.506,2.428,27.149,27.149,0,0,1,3.338,1.077,5.4,5.4,0,0,1,1.09.74l-.051.3a6.337,6.337,0,0,1-1.088.246c-3.979.2-7.963.323-11.937.6a22.513,22.513,0,0,0-6.878,1.36,18.077,18.077,0,0,1-2.625.617l-.163.562-1.6.392h-.929a8.546,8.546,0,0,0-3.946-1.1c-.979-.123-1.964-.215-2.937-.378a3.894,3.894,0,0,1-1.308-.446,42.278,42.278,0,0,0-4.476-2.563,1.543,1.543,0,0,1-.887-1.776.877.877,0,0,0-.627-1.128,2.488,2.488,0,0,1-1.49-2.974,9.858,9.858,0,0,0-.145-4.847c-.173-.674-.591-1.292-.716-1.968-.292-1.577-.532-3.168-.69-4.763a67.6,67.6,0,0,0-2.4-11.59c-.416-1.48-.841-2.958-1.257-4.426a24.535,24.535,0,0,1-6.2-2.5c-.291-.156-.724-.233-.614-.773.021-.1-.275-.292-.448-.406-.645-.426-1.32-.809-1.943-1.264a16.953,16.953,0,0,1-1.322-1.206l.748-.174-3.97-2.657-.958.615a8.085,8.085,0,0,0-.922-1.537,1.406,1.406,0,0,0-1.742-.348,9.023,9.023,0,0,1-2.2.384l-.055-.242,1.834-.633a.786.786,0,0,0-.95-.392,20.842,20.842,0,0,1-2.109.264.8.8,0,0,1-.593-.244l.951-.377-.011-.13h-1.377l-.039-.159,1.171-.487v-.226l-2.318-.611.967-.517-.042-.126-2.025.172.089-.617h-2.07l.707-.635-2.057-.478-.156-.268.806-.332a19.707,19.707,0,0,1-1.97-.99c-.233-.151-1.042-.1-.517-.8.013-.017-.167-.164-.24-.262-1.012-1.36-2.021-2.721-2.936-4.221l.747.25c0-.067.029-.164,0-.228a13.1,13.1,0,0,1-1.639-4.3,14.186,14.186,0,0,1-.071-2.213c.065-2.719.188-5.437.214-8.156.009-.94.075-2.061-1.429-2.089l-.726.568-.168-.1.521-.983c.156-.292.421-.576.075-.908s-.627-.056-.922.083a1.024,1.024,0,0,1-.567.152l.754-.937-.051-.089-1.49.941-.109-.107,1.459-1.561-.957.184c.07-.126.089-.212.14-.243a1.9,1.9,0,0,0,1.118-1.578l-2.114,1.471-.065-.055,2.05-2.127a3.987,3.987,0,0,0-.862-.043c-1.6.384-3.236.729-4.441,1.992a2.3,2.3,0,0,1-1.822.761c-1.32-.06-2.639-.172-3.956-.3a2.388,2.388,0,0,1-.872-.3.88.88,0,0,1-.232-1.573,6.617,6.617,0,0,1,1.492-1.083c1.572-.783,3.192-1.471,4.762-2.259a5.5,5.5,0,0,0,1.249-1.023c.352-.338.651-.731,1.048-1.185l-1.008.087,1.042-.621-.078-.173-1.439.58-.057-.131,1.358-.775a3.313,3.313,0,0,1-.068-1.155,2.593,2.593,0,0,1,.716-.948c.793-.775.866-1.13.338-2.217l-.552.232a2.791,2.791,0,0,1-.107-.3c-.213-.956-.444-1.121-1.41-.962-.669.11-1.332.3-2,.346-1.568.1-3.14.161-4.711.17a5.634,5.634,0,0,1-3.655-1.424,5.991,5.991,0,0,0,.894.21,7.78,7.78,0,0,0,1.063-.027,3.3,3.3,0,0,1,.817-.053,2.589,2.589,0,0,0,2.023-.443,39.557,39.557,0,0,0,3.272-2.271c.348-.281.417-.908.635-1.426a10.232,10.232,0,0,0-6.931-.027,9.638,9.638,0,0,1,4.356-2.153,17.3,17.3,0,0,1,7.9.238c.431.095.716.087.921-.316.041-.08.109-.216.079-.251-.7-.8.29-1.716-.2-2.571-.441-.772-.694-1.648-1.073-2.458a6.679,6.679,0,0,0-.7-1.081,5.286,5.286,0,0,1-1.181-3.5l5.125,6.593,1.705-.752c-.261-1.56-.548-3.069-.758-4.589-.2-1.465-.354-2.938-.47-4.413a3.132,3.132,0,0,1,.776-2.162c.066.649.12,1.115.16,1.582a37.393,37.393,0,0,0,1.52,8.268,14.613,14.613,0,0,0,.648,1.471l.261-.028c.42-1.242.817-2.492,1.266-3.724a8.435,8.435,0,0,1,5.121-5.382,1.7,1.7,0,0,1,.266-.069c.025,0,.056.021.141.057l-.818.682.064.17c.285-.088.571-.172.854-.266a2.338,2.338,0,0,0,.515-.206,3.672,3.672,0,0,1,3.64-.037,1.062,1.062,0,0,0,.845-.084,14.2,14.2,0,0,1,4.341-1.807,2.154,2.154,0,0,0,.675-.278c2.745-1.789,5.513-3.546,8.213-5.4,1.4-.961,2.608-2.2,4.017-3.139,4.24-2.835,8.548-5.566,13.423-7.226a.991.991,0,0,0,.78-.89,16.634,16.634,0,0,0,.114-3.587c-.244-2.8-.295-5.615-.416-8.424-.07-1.606-.1-3.215-.2-4.819a3.6,3.6,0,0,0-.415-1.074c-.4-.935-.808-1.866-1.206-2.8-.149-.35-.172-.73-.661-.9-.229-.08-.371-.543-.463-.858a8.371,8.371,0,0,0-1.9-3.355c-.322-.35-.521-.965-1.213-.749a.178.178,0,0,1-.146-.095c-.262-1.039-1.452-1.069-1.978-1.822-.173-.248-.362-.466-.766-.314-.159.06-.449-.136-.64-.27-.488-.344-.871-.746-1.614-.651a7.686,7.686,0,0,1-1.836-.388q-2.083-.3-4.178-.5c-.968-.093-1.944-.141-2.916-.145-.81,0-1.619.123-2.429.127-.838,0-1.677-.07-2.516-.111-.123-.006-.244-.024-.365-.028a28.3,28.3,0,0,0-10.672,1.787,16.092,16.092,0,0,1-2.266.421,2.89,2.89,0,0,0-.857.3c-3.167,1.807-6.35,3.589-9.478,5.462-1.533.918-2.969,2-4.434,3.027a34.7,34.7,0,0,1-9.381,4.56c-1.463.472-2.986.755-4.469,1.173a2.409,2.409,0,0,0-1.068.619c-1.343,1.433-2.254,1.3-3.016-.485-.132-.311-.25-.628-.375-.942v-1.486a11.3,11.3,0,0,1,3.788-4.771,62.98,62.98,0,0,0,10.962-11.033,33.257,33.257,0,0,0,4.57-8.849,37.979,37.979,0,0,0,1.776-6.19c.214-1.215.49-2.42.791-3.616a15.011,15.011,0,0,1,4.3-7.314,26.714,26.714,0,0,1,6.986-5.285,38.956,38.956,0,0,1,4.466-1.777q3.165-1.037,6.4-1.851c1.4-.352,2.849-.509,4.275-.76.238-.042.471-.117.706-.176h3.157a43.526,43.526,0,0,0,5.24.977,24.586,24.586,0,0,1,4.417.934,4.133,4.133,0,0,1,1.567.52c.752.582,1.712.535,2.485,1.007.273.167.647.162.943.3a.8.8,0,0,1,.376.533,27.1,27.1,0,0,1,2.581.953,8.623,8.623,0,0,1,1.329,1.061,7.84,7.84,0,0,1,.786.481c.272.266.451.623.7.916.226.266.79.289.594.86-.011.031.172.158.281.194a9.966,9.966,0,0,1,2.8,1.5,7.212,7.212,0,0,0,1.715.69l-.172.239h1.081l-1.4.727c.64.484,1.219.86,1.72,1.32a11.577,11.577,0,0,1,1.077,1.283c.075.093.107.238.2.3.963.614,1.934,1.215,2.951,1.85l-.809.24,1.027.508-.332.353,1.009.443.078,1.232,1.188.74-.511.15c.989,1.388,2.506,1.719,4.088,2.057l-1,.332.323.36-.872.329,2.573,1.718-.361.338.965.808-.5.24c.46.669.957,1.309,1.357,2.006.216.376.217.87.4,1.27.306.663.683,1.292,1.035,1.947l-.772.057,2.363,2.135-.75.107c.449.965,1.45,1.245,2.1,2l-1.245-.454-.1.117,1.133,1.005-.556.218.948,1.577-.347.276,2.277,1.853h-.724a1.939,1.939,0,0,0,.161.362c.315.419.9.832.9,1.241a3.407,3.407,0,0,0,.337,1.364c.077.2.4.511-.168.506a3.559,3.559,0,0,0,.138.7c.244.592.746,1.171.744,1.753-.009,1.766,1.2,2.909,1.976,4.259.82,1.416,1.756,2.764,2.669,4.123a3.738,3.738,0,0,0,.828.861c1.793,1.368,3.619,2.693,5.4,4.074a15.768,15.768,0,0,0,4.544,2.459,3.673,3.673,0,0,0,1.085.208,26.507,26.507,0,0,1,14,4.832c1.134.745,2.195,1.6,3.269,2.437a5.045,5.045,0,0,1,.665.771l-.138.163-.9-.229c1.642,1.925,3.408,3.757,4.885,5.8a12.635,12.635,0,0,0,4.55,4.086,7.687,7.687,0,0,1,3.077,3.145c1.424,2.456,2.863,4.905,4.219,7.4a20.412,20.412,0,0,1,2.443,7.815,1.9,1.9,0,0,0,.149.424v3.9C1790.422,284.122,1790.234,285.214,1790.076,286.31ZM1705.1,349.755a31.06,31.06,0,0,0,2.4,8.429c1.1,2.582,2.354,5.1,3.523,7.656a1.913,1.913,0,0,0,1.3,1.093A36.333,36.333,0,0,0,1716.82,368c2.294.3,4.614.421,6.926.569a15.918,15.918,0,0,0,2.069-.133,5.673,5.673,0,0,1,2.073-4.065c1.161-1.157,2.382-2.261,3.464-3.488a11.4,11.4,0,0,0,1.489-2.423,5.237,5.237,0,0,0,.248-1.432c-1.577,1.258-3.151,1.129-3.918-.242a7.322,7.322,0,0,1-.8.029,8.175,8.175,0,0,1-.912-.178,6.314,6.314,0,0,1,.782-.674,30,30,0,0,0,4.44-3.462,6.3,6.3,0,0,0,1.994-3.379A34.914,34.914,0,0,0,1736,339.061a4.7,4.7,0,0,0-.054-.647,7.534,7.534,0,0,0-.22-.721l-1.431.63c-5.031,2.209-10.057,4.431-15.1,6.617-.868.376-1.8.605-2.776.926l-.089-.59c-.673.133-1.328.308-1.994.375a6.391,6.391,0,0,1-1.213-.145,1.214,1.214,0,0,0-.505.037,9.89,9.89,0,0,1-7.05.075A7.274,7.274,0,0,0,1705.1,349.755Zm-34.93-78.2a5.109,5.109,0,0,0-.549,1.266,5.277,5.277,0,0,0-.017,1.2c1.229-.467,2.286-.852,3.325-1.282a.679.679,0,0,0,.292-.513c.077-1.81,1.288-2.783,2.657-3.637.26-.162.574-.244.816-.426a3.75,3.75,0,0,0,.54-.618A7.992,7.992,0,0,0,1670.169,271.552Z" transform="translate(-1638.328 -179.969)"/>
          </g>
          <g id="Group_7" data-name="Group 7" transform="translate(128.154 67.371)">
            <path id="Path_18" data-name="Path 18" d="M1845.572,325.184q-2.447,1.568-4.887,3.129c5.666-.326,10.713-2.444,15.494-5.36.1.16.193.313.293.473q-3.316,2.727-6.638,5.453c8.356-1.678,14.362-7.631,21.873-11.739-2.011,2.357-3.742,4.388-5.48,6.419.173.18.34.36.513.546,5.347-4.122,10.56-8.51,17.678-9.342-.879.566-1.758,1.125-3.11,1.991,4.421-1.565,8.523-3.016,12.711-4.5,1.278-.453,2.563-.912,3.869-1.372.013-.007.02-.007.033-.013a.1.1,0,0,1-.007-.04c-.026-.14-.106-.639-.24-1.119l-.18-.6q-.669-2.277-1.4-4.534c-.9-2.723.28-4.721,2.41-6.519-2.264-1.764-3.909-3.8-4.055-6.825a37.306,37.306,0,0,0,2.777,3.6,6.562,6.562,0,0,0,5.806,2,22.472,22.472,0,0,0,7.624-1.978,3.927,3.927,0,0,1,2.157-.366c-1.911,1.039-3.875,1.984-5.726,3.123-3.962,2.444-6.712,5.793-7.4,10.547a4.956,4.956,0,0,0,.04,2.191c.333,1.005,1.179,1.558,1.958.473,2.317-3.229,5.593-4.142,9.315-4.248,4.6-.14,7.564-2.943,9.988-6.505.306.346.526.6.752.859,3.7-4.355,2.783-11.792-.926-16.073a4.778,4.778,0,0,0-2.484-1.212c-10.134-2.244-20.362-3.243-30.722-1.858a5.894,5.894,0,0,1-1.052-.053c1.212-1.232-8.762,2.677-7.7,1.585-8.7,4.528-42.363,3.488-42.7,1.6,1.105,14.149-.037,28.478-5.351,41.7C1835.944,327.555,1840.718,326.369,1845.572,325.184Z" transform="translate(-1830.797 -281.15)"/>
            <path id="Path_19" data-name="Path 19" d="M1940.105,324.475c5.544,4.118,13.624,3.4,15.783-.98-2.964-.555-5.971-1.3-9.022-1.637A8.024,8.024,0,0,0,1940.105,324.475Z" transform="translate(-1867.323 -294.736)"/>
            <path id="Path_20" data-name="Path 20" d="M1939.932,329.789c2.081,2.128,5.568,2.37,6.784.652-1.224-.437-2.454-.955-3.729-1.308A3.458,3.458,0,0,0,1939.932,329.789Z" transform="translate(-1867.265 -297.143)"/>
            <path id="Path_21" data-name="Path 21" d="M1967.38,304.122c-1.385,6.112-7.006,7.763-11.437,11.132,3.51.541,6.7.58,9.207-1.955A9.015,9.015,0,0,0,1967.38,304.122Z" transform="translate(-1872.615 -288.826)"/>
            <path id="Path_22" data-name="Path 22" d="M1937.026,306.685c-2.823.546-5.575,1.055-6.52,4.119-.266.863.372,2,.7,3.5Z" transform="translate(-1864.094 -289.682)"/>
          </g>
          <path id="Path_23" data-name="Path 23" d="M1919.524,331.369a12.666,12.666,0,0,0,1.9-1.551l-.2-1.119.386.939c.313-.32.606-.653.892-1.005l-.3-.965c.04.073.253.479.446.786a17.27,17.27,0,0,0,2.25-3.869l-3.2-2.171a14.449,14.449,0,0,0-2.024,3.809,9.224,9.224,0,0,0-.466,2.324A7.92,7.92,0,0,0,1919.524,331.369Z" transform="translate(-1732.182 -227.567)"/>
          <path id="Path_24" data-name="Path 24" d="M1926.071,328.684a10.277,10.277,0,0,0,3.529-4.454.2.2,0,0,0,.026-.053c-.026-.14-.106-.639-.24-1.119l-.18-.6-1.791-1.365a10.122,10.122,0,0,0-1.685,4.508A7.818,7.818,0,0,0,1926.071,328.684Z" transform="translate(-1734.355 -227.126)"/>
          <path id="Path_25" data-name="Path 25" d="M1913.7,331.989l.433-.226-.419.419a6.14,6.14,0,0,0,.4,1.725,11.8,11.8,0,0,0,1.492-1.445l-.253-.393c.046.033.22.173.346.293a12.087,12.087,0,0,0,.966-1.292l-.806-.293a3.415,3.415,0,0,0,.985.007,8.555,8.555,0,0,0,.533-.926,15.546,15.546,0,0,0,.912-2.1l-.446-.226-2.384-1.192A9.841,9.841,0,0,0,1913.7,331.989Z" transform="translate(-1730.343 -228.881)"/>
          <path id="Path_26" data-name="Path 26" d="M1898.54,337.077l-.586.679c.02.466.053.939.106,1.4l.879-.273-.839.553a16.7,16.7,0,0,0,.386,2.031,23.029,23.029,0,0,0,5.26-4.395l-.586-.513.832.233a26.355,26.355,0,0,0,2.151-2.863l-1.192-1.691a19.631,19.631,0,0,1,1.318,1.5,33.6,33.6,0,0,0,2.6-4.881l-5.946-4.947q-4.954,6.652-4.981,13.164Z" transform="translate(-1725.081 -228.069)"/>
          <path id="Path_27" data-name="Path 27" d="M1871.354,353.767a50.7,50.7,0,0,0,7.265-5.014l-.746-2.87,1.525,2.2a46.74,46.74,0,0,0,3.582-3.4l-.832-2.923,1.638,2.064a59.461,59.461,0,0,0,7.644-10.407l-9.715-6.525Q1868.79,341.135,1871.354,353.767Z" transform="translate(-1716.053 -229.064)"/>
          <path id="Path_28" data-name="Path 28" d="M1886.552,336a103.823,103.823,0,0,1-7.079,10.553Q1882.753,341.3,1886.552,336Z" transform="translate(-1718.908 -232.109)" fill="#fff"/>
          <path id="Path_29" data-name="Path 29" d="M1905.467,331.854c-.954,2.345-2.06,4.672-3.281,6.984Q1903.694,335.393,1905.467,331.854Z" transform="translate(-1726.498 -230.722)" fill="#fff"/>
        </g>
      </g>
      <g id="Group_11" data-name="Group 11" transform="translate(1737.443 305.842)">
        <rect id="Rectangle_3" data-name="Rectangle 3" width="6.721" height="53.377" transform="translate(0 0)" fill="#a07822"/>
        <path id="Path_43" data-name="Path 43" d="M2025.9,463.6l-1.612,1.458,1.612,1.6V493.5h-6.726V440.125h6.726Z" transform="translate(-1963.396 -431.884)" fill="#a07822"/>
        <rect id="Rectangle_4" data-name="Rectangle 4" width="6.721" height="44.198" transform="translate(32.485 14.053)" fill="#a07822"/>
        <rect id="Rectangle_5" data-name="Rectangle 5" width="6.721" height="24.819" transform="translate(24.028 28.559)" fill="#a07822"/>
        <rect id="Rectangle_6" data-name="Rectangle 6" width="6.8" height="62.505" transform="translate(0 6.8) rotate(-90)" fill="#a07822"/>
        <rect id="Rectangle_7" data-name="Rectangle 7" width="6.8" height="62.505" transform="translate(0 72.975) rotate(-90)"/>
        <rect id="Rectangle_8" data-name="Rectangle 8" width="6.8" height="47.131" transform="translate(15.374 15.044) rotate(-90)" fill="#a07822"/>
        <rect id="Rectangle_9" data-name="Rectangle 9" width="6.8" height="62.505" transform="translate(0 61.65) rotate(-90)" fill="#a07822"/>
        <rect id="Rectangle_10" data-name="Rectangle 10" width="6.8" height="30.749" transform="translate(0 53.377) rotate(-90)" fill="#a07822"/>
        <rect id="Rectangle_11" data-name="Rectangle 11" width="6.8" height="15.374" transform="translate(15.374 35.358) rotate(-90)" fill="#a07822"/>
        <rect id="Rectangle_12" data-name="Rectangle 12" width="6.8" height="19.239" transform="translate(37.722 36.577) rotate(-90)" fill="#a07822"/>
      </g>
    </g>
  </g>
</svg>
