<svg xmlns="http://www.w3.org/2000/svg" viewBox="0 0 1281 474.93"><defs><style>.cls-1{fill:#c0996b;}.cls-2{fill:none;stroke:#000;}.cls-3{fill:#a07822;}</style></defs><title>Asset 4</title><g id="Layer_2" data-name="Layer 2"><g id="Layer_1-2" data-name="Layer 1"><path class="cls-1" d="M125.77,142.7l-58.5,23.37,12.22,19.26L105.34,175a39,39,0,0,1-7,16.8A38.45,38.45,0,0,1,81.1,205a39.21,39.21,0,0,1-15.61,2.89,40.93,40.93,0,0,1-15-3.09,40.48,40.48,0,0,1-12.71-8.4,38.55,38.55,0,0,1-8.79-13,37.85,37.85,0,0,1-3-15.36,39.86,39.86,0,0,1,42.48-38.67A40.62,40.62,0,0,1,85,134.22l1.79,1,10.05-23.4L95.31,111a70,70,0,0,0-26.24-6.7A64.19,64.19,0,0,0,41.31,109,63.32,63.32,0,0,0,19.7,123.11a66.56,66.56,0,0,0-14,20.41A63.54,63.54,0,0,0,.52,167.64,63.4,63.4,0,0,0,19.72,214a66,66,0,0,0,20.85,13.61,68.92,68.92,0,0,0,24.5,5l1.51,0a64.41,64.41,0,0,0,24-4.73,63.13,63.13,0,0,0,21.61-14.13,64.3,64.3,0,0,0,19.06-44.38,61.16,61.16,0,0,0-4.79-25.06Z"/><path class="cls-2" d="M125.77,142.7l-58.5,23.37,12.22,19.26L105.34,175a39,39,0,0,1-7,16.8A38.45,38.45,0,0,1,81.1,205a39.21,39.21,0,0,1-15.61,2.89,40.93,40.93,0,0,1-15-3.09,40.48,40.48,0,0,1-12.71-8.4,38.55,38.55,0,0,1-8.79-13,37.85,37.85,0,0,1-3-15.36,39.86,39.86,0,0,1,42.48-38.67A40.62,40.62,0,0,1,85,134.22l1.79,1,10.05-23.4L95.31,111a70,70,0,0,0-26.24-6.7A64.19,64.19,0,0,0,41.31,109,63.32,63.32,0,0,0,19.7,123.11a66.56,66.56,0,0,0-14,20.41A63.54,63.54,0,0,0,.52,167.64,63.4,63.4,0,0,0,19.72,214a66,66,0,0,0,20.85,13.61,68.92,68.92,0,0,0,24.5,5l1.51,0a64.41,64.41,0,0,0,24-4.73,63.13,63.13,0,0,0,21.61-14.13,64.3,64.3,0,0,0,19.06-44.38,61.16,61.16,0,0,0-4.79-25.06Z"/><path class="cls-3" d="M214.7,106.44a17.78,17.78,0,0,0-13.48-1.53,17.41,17.41,0,0,0-10.73,8.18A17.16,17.16,0,0,0,197.28,137a18,18,0,0,0,8.57,2.23,18.7,18.7,0,0,0,4.92-.68,17.51,17.51,0,0,0,10.73-8.18,16.32,16.32,0,0,0,1.76-13.24A17,17,0,0,0,214.7,106.44Z"/><path class="cls-2" d="M214.7,106.44a17.78,17.78,0,0,0-13.48-1.53,17.41,17.41,0,0,0-10.73,8.18A17.16,17.16,0,0,0,197.28,137a18,18,0,0,0,8.57,2.23,18.7,18.7,0,0,0,4.92-.68,17.51,17.51,0,0,0,10.73-8.18,16.32,16.32,0,0,0,1.76-13.24A17,17,0,0,0,214.7,106.44Z"/><path class="cls-1" d="M245.68,126.91a39.49,39.49,0,0,1-4.8,14.29A40.23,40.23,0,0,1,231,152.65a39.21,39.21,0,0,1-14.15,7.09A39.64,39.64,0,0,1,201,160.87a41,41,0,0,1-14.53-4.74,40.35,40.35,0,0,1-11.64-9.77,38.28,38.28,0,0,1-7.23-13.93,37.82,37.82,0,0,1-1.17-15.59,39.5,39.5,0,0,1,4.81-14.29,39.92,39.92,0,0,1,9.92-11.45A39.08,39.08,0,0,1,195.28,84,40.56,40.56,0,0,1,206,82.54a37.92,37.92,0,0,1,5.11.34,41,41,0,0,1,14.52,4.74,40.52,40.52,0,0,1,11.65,9.77,38.26,38.26,0,0,1,7.22,13.93A37.81,37.81,0,0,1,245.68,126.91Zm11.38-45.15a66.27,66.27,0,0,0-19.07-16A67.69,67.69,0,0,0,214.31,58a64.11,64.11,0,0,0-25.9,1.82A63.45,63.45,0,0,0,165.3,71.48,67.06,67.06,0,0,0,149.07,90.2a63.69,63.69,0,0,0-8,23.38,63.22,63.22,0,0,0,13.71,48.21,65.87,65.87,0,0,0,19.13,15.85,68.9,68.9,0,0,0,23.76,7.75,62.8,62.8,0,0,0,8.45.57,66.1,66.1,0,0,0,17.45-2.39,63.86,63.86,0,0,0,23.11-11.63,66,66,0,0,0,16.15-18.7A64.9,64.9,0,0,0,270.77,130a61.07,61.07,0,0,0-1.85-25.44A62.26,62.26,0,0,0,257.06,81.76Z"/><path class="cls-2" d="M245.68,126.91a39.49,39.49,0,0,1-4.8,14.29A40.23,40.23,0,0,1,231,152.65a39.21,39.21,0,0,1-14.15,7.09A39.64,39.64,0,0,1,201,160.87a41,41,0,0,1-14.53-4.74,40.35,40.35,0,0,1-11.64-9.77,38.28,38.28,0,0,1-7.23-13.93,37.82,37.82,0,0,1-1.17-15.59,39.5,39.5,0,0,1,4.81-14.29,39.92,39.92,0,0,1,9.92-11.45A39.08,39.08,0,0,1,195.28,84,40.56,40.56,0,0,1,206,82.54a37.92,37.92,0,0,1,5.11.34,41,41,0,0,1,14.52,4.74,40.52,40.52,0,0,1,11.65,9.77,38.26,38.26,0,0,1,7.22,13.93A37.81,37.81,0,0,1,245.68,126.91Zm11.38-45.15a66.27,66.27,0,0,0-19.07-16A67.69,67.69,0,0,0,214.31,58a64.11,64.11,0,0,0-25.9,1.82A63.45,63.45,0,0,0,165.3,71.48,67.06,67.06,0,0,0,149.07,90.2a63.69,63.69,0,0,0-8,23.38,63.22,63.22,0,0,0,13.71,48.21,65.87,65.87,0,0,0,19.13,15.85,68.9,68.9,0,0,0,23.76,7.75,62.8,62.8,0,0,0,8.45.57,66.1,66.1,0,0,0,17.45-2.39,63.86,63.86,0,0,0,23.11-11.63,66,66,0,0,0,16.15-18.7A64.9,64.9,0,0,0,270.77,130a61.07,61.07,0,0,0-1.85-25.44A62.26,62.26,0,0,0,257.06,81.76Z"/><path class="cls-1" d="M388.87,98.83a39.42,39.42,0,0,1-6.21,13.75,40.13,40.13,0,0,1-11,10.44A40.61,40.61,0,0,1,341,128.3a40.77,40.77,0,0,1-14-6.12,40.21,40.21,0,0,1-10.61-10.86A39,39,0,0,1,311,81.14a39.58,39.58,0,0,1,6.21-13.75,40.13,40.13,0,0,1,11-10.44A39.58,39.58,0,0,1,343,51.26a42.09,42.09,0,0,1,7-.61,38.42,38.42,0,0,1,8.84,1,41.14,41.14,0,0,1,14,6.12,40.5,40.5,0,0,1,10.61,10.86,38.08,38.08,0,0,1,5.79,14.56h0A37.79,37.79,0,0,1,388.87,98.83ZM404.72,55a66,66,0,0,0-17.37-17.71,67.36,67.36,0,0,0-22.79-10,66,66,0,0,0-50.12,8.63,67.35,67.35,0,0,0-18,17.06,64.24,64.24,0,0,0-10.29,22.49,63.18,63.18,0,0,0,8.81,49.31,65.61,65.61,0,0,0,17.45,17.62,68.62,68.62,0,0,0,22.87,10,62.7,62.7,0,0,0,14.5,1.69,66.7,66.7,0,0,0,11.45-1,63.67,63.67,0,0,0,24.17-9.33,66.41,66.41,0,0,0,17.95-17.05,65.08,65.08,0,0,0,10.21-22.38,61.17,61.17,0,0,0,.71-25.49A62.25,62.25,0,0,0,404.72,55Z"/><path class="cls-2" d="M388.87,98.83a39.42,39.42,0,0,1-6.21,13.75,40.13,40.13,0,0,1-11,10.44A40.61,40.61,0,0,1,341,128.3a40.77,40.77,0,0,1-14-6.12,40.21,40.21,0,0,1-10.61-10.86A39,39,0,0,1,311,81.14a39.58,39.58,0,0,1,6.21-13.75,40.13,40.13,0,0,1,11-10.44A39.58,39.58,0,0,1,343,51.26a42.09,42.09,0,0,1,7-.61,38.42,38.42,0,0,1,8.84,1,41.14,41.14,0,0,1,14,6.12,40.5,40.5,0,0,1,10.61,10.86,38.08,38.08,0,0,1,5.79,14.56h0A37.79,37.79,0,0,1,388.87,98.83ZM404.72,55a66,66,0,0,0-17.37-17.71,67.36,67.36,0,0,0-22.79-10,66,66,0,0,0-50.12,8.63,67.35,67.35,0,0,0-18,17.06,64.24,64.24,0,0,0-10.29,22.49,63.18,63.18,0,0,0,8.81,49.31,65.61,65.61,0,0,0,17.45,17.62,68.62,68.62,0,0,0,22.87,10,62.7,62.7,0,0,0,14.5,1.69,66.7,66.7,0,0,0,11.45-1,63.67,63.67,0,0,0,24.17-9.33,66.41,66.41,0,0,0,17.95-17.05,65.08,65.08,0,0,0,10.21-22.38,61.17,61.17,0,0,0,.71-25.49A62.25,62.25,0,0,0,404.72,55Z"/><path class="cls-3" d="M356.78,80.14a12,12,0,0,0-8.95-1.92,11.8,11.8,0,0,0-7.75,4.8A11.56,11.56,0,0,0,343,99.5a12,12,0,0,0,6.76,2.11,12.85,12.85,0,0,0,2.2-.2,11.83,11.83,0,0,0,7.75-4.79,11,11,0,0,0,2.08-8.76A11.32,11.32,0,0,0,356.78,80.14Z"/><path class="cls-2" d="M356.78,80.14a12,12,0,0,0-8.95-1.92,11.8,11.8,0,0,0-7.75,4.8A11.56,11.56,0,0,0,343,99.5a12,12,0,0,0,6.76,2.11,12.85,12.85,0,0,0,2.2-.2,11.83,11.83,0,0,0,7.75-4.79,11,11,0,0,0,2.08-8.76A11.32,11.32,0,0,0,356.78,80.14Z"/><path class="cls-1" d="M536.21,74.36A32.75,32.75,0,0,0,524,64.76h0c-9.85-4.63-23.32-6.23-40-4.73a90.42,90.42,0,0,1-14.46.29,45,45,0,0,1-9.58-1.58A12.8,12.8,0,0,1,455,56.27c-1.15-1.08-1.37-1.78-1.39-2.09a13.41,13.41,0,0,1,.78-4.36,18.54,18.54,0,0,1,3.77-6.59,28.29,28.29,0,0,1,8.48-6.48c3.68-2,8.67-3.26,14.84-3.81s11.12-.2,15.05,1a30,30,0,0,1,9.52,4.6A16.91,16.91,0,0,1,511,44.18a19.34,19.34,0,0,1,1.8,4.67l.38,2,24.19-7-.45-1.7a43.42,43.42,0,0,0-17.6-24.48A56.59,56.59,0,0,0,502,9.93,65,65,0,0,0,479.18,8.3c-9.3.83-17.33,3-23.89,6.37a54.94,54.94,0,0,0-16,12.06,41.67,41.67,0,0,0-8.71,14.89,37.09,37.09,0,0,0-1.92,14.72,30.43,30.43,0,0,0,1,5.09,25.84,25.84,0,0,0,3,6.72,29.5,29.5,0,0,0,6.2,6.93,36.77,36.77,0,0,0,10.44,5.84,63.87,63.87,0,0,0,15.39,3.49,108.9,108.9,0,0,0,21.44-.08c10.52-.93,18.37-.56,23.37,1.09,4.37,1.46,6.85,3.16,7,4.81a15.86,15.86,0,0,1-.69,4.69,17.25,17.25,0,0,1-3.66,6.66,28.4,28.4,0,0,1-8.47,6.51c-3.69,2-8.73,3.27-15,3.83-6.07.54-11.13.21-15.05-1a28.42,28.42,0,0,1-9.51-4.67,17.81,17.81,0,0,1-5-5.73,21.08,21.08,0,0,1-1.8-4.67l-.36-2-24.21,6.79.44,1.71a44.1,44.1,0,0,0,6,13A42.23,42.23,0,0,0,450.91,127a56.43,56.43,0,0,0,17.26,7.66,59.44,59.44,0,0,0,15.57,1.93c2.35,0,4.76-.11,7.25-.34,9.29-.82,17.33-3,23.89-6.37a53.9,53.9,0,0,0,16-12.14,42.79,42.79,0,0,0,8.7-15A37.23,37.23,0,0,0,541.49,88,26.28,26.28,0,0,0,536.21,74.36Z"/><path class="cls-2" d="M536.21,74.36A32.75,32.75,0,0,0,524,64.76h0c-9.85-4.63-23.32-6.23-40-4.73a90.42,90.42,0,0,1-14.46.29,45,45,0,0,1-9.58-1.58A12.8,12.8,0,0,1,455,56.27c-1.15-1.08-1.37-1.78-1.39-2.09a13.41,13.41,0,0,1,.78-4.36,18.54,18.54,0,0,1,3.77-6.59,28.29,28.29,0,0,1,8.48-6.48c3.68-2,8.67-3.26,14.84-3.81s11.12-.2,15.05,1a30,30,0,0,1,9.52,4.6A16.91,16.91,0,0,1,511,44.18a19.34,19.34,0,0,1,1.8,4.67l.38,2,24.19-7-.45-1.7a43.42,43.42,0,0,0-17.6-24.48A56.59,56.59,0,0,0,502,9.93,65,65,0,0,0,479.18,8.3c-9.3.83-17.33,3-23.89,6.37a54.94,54.94,0,0,0-16,12.06,41.67,41.67,0,0,0-8.71,14.89,37.09,37.09,0,0,0-1.92,14.72,30.43,30.43,0,0,0,1,5.09,25.84,25.84,0,0,0,3,6.72,29.5,29.5,0,0,0,6.2,6.93,36.77,36.77,0,0,0,10.44,5.84,63.87,63.87,0,0,0,15.39,3.49,108.9,108.9,0,0,0,21.44-.08c10.52-.93,18.37-.56,23.37,1.09,4.37,1.46,6.85,3.16,7,4.81a15.86,15.86,0,0,1-.69,4.69,17.25,17.25,0,0,1-3.66,6.66,28.4,28.4,0,0,1-8.47,6.51c-3.69,2-8.73,3.27-15,3.83-6.07.54-11.13.21-15.05-1a28.42,28.42,0,0,1-9.51-4.67,17.81,17.81,0,0,1-5-5.73,21.08,21.08,0,0,1-1.8-4.67l-.36-2-24.21,6.79.44,1.71a44.1,44.1,0,0,0,6,13A42.23,42.23,0,0,0,450.91,127a56.43,56.43,0,0,0,17.26,7.66,59.44,59.44,0,0,0,15.57,1.93c2.35,0,4.76-.11,7.25-.34,9.29-.82,17.33-3,23.89-6.37a53.9,53.9,0,0,0,16-12.14,42.79,42.79,0,0,0,8.7-15A37.23,37.23,0,0,0,541.49,88,26.28,26.28,0,0,0,536.21,74.36Z"/><polygon class="cls-1" points="581.41 105.71 581.16 94.19 625.91 93.27 630.25 68.43 580.63 69.45 579.72 26.76 653.57 25.25 653.04 0.51 554.19 2.55 556.93 130.97 655.77 128.93 655.25 104.19 581.41 105.71"/><polygon class="cls-2" points="581.41 105.71 581.16 94.19 625.91 93.27 630.25 68.43 580.63 69.45 579.72 26.76 653.57 25.25 653.04 0.51 554.19 2.55 556.93 130.97 655.77 128.93 655.25 104.19 581.41 105.71"/><path class="cls-1" d="M694.87,71.38l36.84,1.69a17,17,0,0,1,6.7,1.68,19.23,19.23,0,0,1,5.5,4,17.2,17.2,0,0,1,3.57,5.64,16.69,16.69,0,0,1-.63,13.35,17.35,17.35,0,0,1-4.09,5.29,19.07,19.07,0,0,1-5.85,3.46,17.12,17.12,0,0,1-6.84,1.07l-36.83-1.68Zm35.65-31.53a8,8,0,0,1-6,2.16l-28-1.28.79-16.63,28,1.28A8.26,8.26,0,0,1,733.22,34,8.15,8.15,0,0,1,730.52,39.85Zm38.61,29.62a41.47,41.47,0,0,0-8.84-9.06,40,40,0,0,0-8.56-4.89,30.47,30.47,0,0,0,5.7-7.65,29.64,29.64,0,0,0,3.37-12.62,28.76,28.76,0,0,0-1.93-12,31.66,31.66,0,0,0-6.25-10,32.21,32.21,0,0,0-9.51-7,30.29,30.29,0,0,0-12-3l-58-2.65-6.07,128.31,66.78,3c.66,0,1.31.05,2,.05a39.54,39.54,0,0,0,13.9-2.46,41.13,41.13,0,0,0,13.28-8,40.54,40.54,0,0,0,9.3-12.23,39.85,39.85,0,0,0,2.35-28.49A39.56,39.56,0,0,0,769.13,69.47Z"/><path class="cls-2" d="M694.87,71.38l36.84,1.69a17,17,0,0,1,6.7,1.68,19.23,19.23,0,0,1,5.5,4,17.2,17.2,0,0,1,3.57,5.64,16.69,16.69,0,0,1-.63,13.35,17.35,17.35,0,0,1-4.09,5.29,19.07,19.07,0,0,1-5.85,3.46,17.12,17.12,0,0,1-6.84,1.07l-36.83-1.68Zm35.65-31.53a8,8,0,0,1-6,2.16l-28-1.28.79-16.63,28,1.28A8.26,8.26,0,0,1,733.22,34,8.15,8.15,0,0,1,730.52,39.85Zm38.61,29.62a41.47,41.47,0,0,0-8.84-9.06,40,40,0,0,0-8.56-4.89,30.47,30.47,0,0,0,5.7-7.65,29.64,29.64,0,0,0,3.37-12.62,28.76,28.76,0,0,0-1.93-12,31.66,31.66,0,0,0-6.25-10,32.21,32.21,0,0,0-9.51-7,30.29,30.29,0,0,0-12-3l-58-2.65-6.07,128.31,66.78,3c.66,0,1.31.05,2,.05a39.54,39.54,0,0,0,13.9-2.46,41.13,41.13,0,0,0,13.28-8,40.54,40.54,0,0,0,9.3-12.23,39.85,39.85,0,0,0,2.35-28.49A39.56,39.56,0,0,0,769.13,69.47Z"/><path class="cls-1" d="M877.53,16.12,867.34,101c-.72,6-3.35,10.21-8,12.87s-11.62,3.6-20.24,2.61-15.14-3.34-19-6.9-5.25-8.13-4.51-14.23l10.22-85.18L800.91,7.25,790.69,92.42a42.82,42.82,0,0,0,1.11,16.5,39.21,39.21,0,0,0,7.27,14.24c8,9.69,20.48,15.58,37.08,17.5a84.77,84.77,0,0,0,9.8.6,54.37,54.37,0,0,0,14.26-1.72,46.62,46.62,0,0,0,17-8.22,38,38,0,0,0,10.51-12.83,44.74,44.74,0,0,0,4.48-14.66L902.37,19Z"/><path class="cls-2" d="M877.53,16.12,867.34,101c-.72,6-3.35,10.21-8,12.87s-11.62,3.6-20.24,2.61-15.14-3.34-19-6.9-5.25-8.13-4.51-14.23l10.22-85.18L800.91,7.25,790.69,92.42a42.82,42.82,0,0,0,1.11,16.5,39.21,39.21,0,0,0,7.27,14.24c8,9.69,20.48,15.58,37.08,17.5a84.77,84.77,0,0,0,9.8.6,54.37,54.37,0,0,0,14.26-1.72,46.62,46.62,0,0,0,17-8.22,38,38,0,0,0,10.51-12.83,44.74,44.74,0,0,0,4.48-14.66L902.37,19Z"/><polygon class="cls-1" points="897.75 147.59 920.6 152.14 941.58 91.11 951.73 120.1 963.54 152.89 981.13 134.05 941.07 21.44 897.75 147.59"/><polygon class="cls-2" points="897.75 147.59 920.6 152.14 941.58 91.11 951.73 120.1 963.54 152.89 981.13 134.05 941.07 21.44 897.75 147.59"/><polygon class="cls-1" points="974.62 107.55 983.32 131.92 1009 104.31 1003.71 168.73 1026.55 173.28 1037.14 40.63 974.62 107.55"/><polygon class="cls-2" points="974.62 107.55 983.32 131.92 1009 104.31 1003.71 168.73 1026.55 173.28 1037.14 40.63 974.62 107.55"/><path class="cls-1" d="M1090.86,84.09l26.63,7.85a23.11,23.11,0,0,1,8.36,4.44,24.68,24.68,0,0,1,5.79,7,24,24,0,0,1,2.77,8.57,21.78,21.78,0,0,1-.83,9.27,22,22,0,0,1-4.5,8.18,26.22,26.22,0,0,1-7.17,5.75,23.66,23.66,0,0,1-8.71,2.68,24.05,24.05,0,0,1-9.47-.91l-26.62-7.85Zm68.46,25.11a48.59,48.59,0,0,0-5.6-17.62,49.47,49.47,0,0,0-11.88-14.3h0a47.73,47.73,0,0,0-17.11-9l-50.58-14.92-37.62,123,24,7.07,16.49-53.9-2.53,24.59,22,6.51a48.28,48.28,0,0,0,19.33,1.72,50.69,50.69,0,0,0,17.94-5.5,50.12,50.12,0,0,0,14.57-11.67,47.61,47.61,0,0,0,11-36Z"/><path class="cls-2" d="M1090.86,84.09l26.63,7.85a23.11,23.11,0,0,1,8.36,4.44,24.68,24.68,0,0,1,5.79,7,24,24,0,0,1,2.77,8.57,21.78,21.78,0,0,1-.83,9.27,22,22,0,0,1-4.5,8.18,26.22,26.22,0,0,1-7.17,5.75,23.66,23.66,0,0,1-8.71,2.68,24.05,24.05,0,0,1-9.47-.91l-26.62-7.85Zm68.46,25.11a48.59,48.59,0,0,0-5.6-17.62,49.47,49.47,0,0,0-11.88-14.3h0a47.73,47.73,0,0,0-17.11-9l-50.58-14.92-37.62,123,24,7.07,16.49-53.9-2.53,24.59,22,6.51a48.28,48.28,0,0,0,19.33,1.72,50.69,50.69,0,0,0,17.94-5.5,50.12,50.12,0,0,0,14.57-11.67,47.61,47.61,0,0,0,11-36Z"/><path class="cls-1" d="M1280.23,151.55a42.38,42.38,0,0,0-4.9-15.48,55.79,55.79,0,0,0-11.71-14.68,64,64,0,0,0-19.52-11.74,65.2,65.2,0,0,0-24.19-5.14,55.94,55.94,0,0,0-19.85,3.48,43,43,0,0,0-14.71,9.29,37.53,37.53,0,0,0-8.59,12.21,30.42,30.42,0,0,0-1.48,5,25.65,25.65,0,0,0-.44,7.34,28.54,28.54,0,0,0,2.25,8.95,35.8,35.8,0,0,0,6.54,9.9,62.06,62.06,0,0,0,12,10,106,106,0,0,0,19.08,9.62c9.77,3.92,16.58,7.8,20.24,11.54,3.19,3.26,4.6,5.9,4,7.43a16.08,16.08,0,0,1-2.81,3.85,17.72,17.72,0,0,1-6.37,4.26,29,29,0,0,1-10.57,1.95c-4.18.07-9.29-1-15.12-3.37-5.64-2.26-10-4.84-12.9-7.69a27.62,27.62,0,0,1-6.25-8.45,17.23,17.23,0,0,1-1.73-7.33,20.51,20.51,0,0,1,.59-4.95l.59-1.91-24.68-4.91-.4,1.72a44.07,44.07,0,0,0-.77,14.27,41.61,41.61,0,0,0,4.9,15.52,55.61,55.61,0,0,0,11.74,14.6,64.36,64.36,0,0,0,19.52,11.72c8.5,3.41,16.52,5.13,23.83,5.13h.36a54.89,54.89,0,0,0,19.9-3.55,44.17,44.17,0,0,0,14.73-9.37,37.83,37.83,0,0,0,8.6-12.21,26.11,26.11,0,0,0,1.7-14.5,32,32,0,0,0-6.35-14h0c-6.58-8.56-17.79-16.06-33.34-22.29a88.35,88.35,0,0,1-13-6.27,44.57,44.57,0,0,1-7.77-5.73,12.46,12.46,0,0,1-3.22-4.43,3.64,3.64,0,0,1-.27-2.48,14.53,14.53,0,0,1,2.74-3.52,19.06,19.06,0,0,1,6.43-4.15,29.06,29.06,0,0,1,10.57-1.92c4.06-.1,9.22,1,14.95,3.32s10,4.84,12.9,7.69a28.8,28.8,0,0,1,6.3,8.38,16.48,16.48,0,0,1,1.74,7.24,20.14,20.14,0,0,1-.58,5l-.6,1.92,24.75,4.72.4-1.7A42.71,42.71,0,0,0,1280.23,151.55Z"/><path class="cls-2" d="M1280.23,151.55a42.38,42.38,0,0,0-4.9-15.48,55.79,55.79,0,0,0-11.71-14.68,64,64,0,0,0-19.52-11.74,65.2,65.2,0,0,0-24.19-5.14,55.94,55.94,0,0,0-19.85,3.48,43,43,0,0,0-14.71,9.29,37.53,37.53,0,0,0-8.59,12.21,30.42,30.42,0,0,0-1.48,5,25.65,25.65,0,0,0-.44,7.34,28.54,28.54,0,0,0,2.25,8.95,35.8,35.8,0,0,0,6.54,9.9,62.06,62.06,0,0,0,12,10,106,106,0,0,0,19.08,9.62c9.77,3.92,16.58,7.8,20.24,11.54,3.19,3.26,4.6,5.9,4,7.43a16.08,16.08,0,0,1-2.81,3.85,17.72,17.72,0,0,1-6.37,4.26,29,29,0,0,1-10.57,1.95c-4.18.07-9.29-1-15.12-3.37-5.64-2.26-10-4.84-12.9-7.69a27.62,27.62,0,0,1-6.25-8.45,17.23,17.23,0,0,1-1.73-7.33,20.51,20.51,0,0,1,.59-4.95l.59-1.91-24.68-4.91-.4,1.72a44.07,44.07,0,0,0-.77,14.27,41.61,41.61,0,0,0,4.9,15.52,55.61,55.61,0,0,0,11.74,14.6,64.36,64.36,0,0,0,19.52,11.72c8.5,3.41,16.52,5.13,23.83,5.13h.36a54.89,54.89,0,0,0,19.9-3.55,44.17,44.17,0,0,0,14.73-9.37,37.83,37.83,0,0,0,8.6-12.21,26.11,26.11,0,0,0,1.7-14.5,32,32,0,0,0-6.35-14h0c-6.58-8.56-17.79-16.06-33.34-22.29a88.35,88.35,0,0,1-13-6.27,44.57,44.57,0,0,1-7.77-5.73,12.46,12.46,0,0,1-3.22-4.43,3.64,3.64,0,0,1-.27-2.48,14.53,14.53,0,0,1,2.74-3.52,19.06,19.06,0,0,1,6.43-4.15,29.06,29.06,0,0,1,10.57-1.92c4.06-.1,9.22,1,14.95,3.32s10,4.84,12.9,7.69a28.8,28.8,0,0,1,6.3,8.38,16.48,16.48,0,0,1,1.74,7.24,20.14,20.14,0,0,1-.58,5l-.6,1.92,24.75,4.72.4-1.7A42.71,42.71,0,0,0,1280.23,151.55Z"/><path d="M913.66,251.23a6.07,6.07,0,0,0,.81.93c.36.27.84.39,1.23.64,2,1.28,3.87,2.74,4,5.46a1,1,0,0,0,.43.77c1.56.65,3.15,1.22,5,1.93a5,5,0,0,0-.85-3.71C921.93,253.33,918.38,251.4,913.66,251.23ZM871.1,368.49a14.81,14.81,0,0,1-10.59-.12,1.76,1.76,0,0,0-.76-.05,9.62,9.62,0,0,1-1.82.22c-1-.1-2-.37-3-.57l-.13.89c-1.46-.48-2.86-.82-4.17-1.39-7.57-3.28-15.12-6.62-22.67-9.94l-2.15-.94a9.94,9.94,0,0,0-.33,1.08,5.29,5.29,0,0,0-.08,1c-.26,5.16.77,10.15,2,15.12a9.51,9.51,0,0,0,3,5.08,45.34,45.34,0,0,0,6.67,5.19,9.47,9.47,0,0,1,1.17,1,12.51,12.51,0,0,1-1.37.26,9.5,9.5,0,0,1-1.2,0c-1.15,2.06-3.51,2.25-5.88.36a7.78,7.78,0,0,0,.37,2.15,16.87,16.87,0,0,0,2.24,3.64c1.62,1.84,3.46,3.5,5.2,5.24s3.1,3.47,3.11,6.11a24.12,24.12,0,0,0,3.11.19c3.47-.22,7-.4,10.4-.85A55.14,55.14,0,0,0,861,400.5a2.89,2.89,0,0,0,2-1.64c1.75-3.84,3.63-7.62,5.29-11.5a46.7,46.7,0,0,0,3.61-12.66A11,11,0,0,0,871.1,368.49Zm-127.7-94v-5.86a2.63,2.63,0,0,0,.22-.63,30.69,30.69,0,0,1,3.67-11.74c2-3.74,4.2-7.42,6.34-11.11a11.54,11.54,0,0,1,4.62-4.72,19,19,0,0,0,6.83-6.14c2.22-3.07,4.87-5.82,7.34-8.71l-1.35.34-.21-.24a7.45,7.45,0,0,1,1-1.16c1.61-1.25,3.2-2.54,4.91-3.66,6.38-4.2,13.25-7.05,21-7.26a5.35,5.35,0,0,0,1.63-.31,23.55,23.55,0,0,0,6.83-3.69c2.67-2.07,5.42-4.07,8.11-6.12a5.62,5.62,0,0,0,1.24-1.29c1.37-2,2.78-4.07,4-6.19s3-3.75,3-6.4c0-.88.75-1.74,1.12-2.63a5.27,5.27,0,0,0,.2-1.05c-.85,0-.36-.47-.25-.76a5.12,5.12,0,0,0,.51-2c0-.62.87-1.24,1.35-1.87a2.84,2.84,0,0,0,.24-.54h-1.09l3.42-2.78-.52-.42,1.42-2.37-.83-.32,1.7-1.51-.15-.18-1.87.68c1-1.14,2.48-1.56,3.15-3l-1.13-.16,3.55-3.2-1.16-.09c.53-1,1.1-1.93,1.56-2.92.27-.6.28-1.35.6-1.91.6-1,1.35-2,2-3l-.75-.36,1.45-1.22-.54-.5,3.86-2.58-1.31-.5.49-.54-1.5-.49c2.37-.51,4.65-1,6.14-3.09l-.77-.23,1.78-1.11.12-1.85,1.52-.67-.5-.53,1.54-.76-1.22-.36c1.53-1,3-1.86,4.44-2.78.13-.09.18-.31.3-.44a15.84,15.84,0,0,1,1.61-1.93c.76-.69,1.63-1.26,2.59-2l-2.1-1.1h1.62l-.25-.35a11.35,11.35,0,0,0,2.57-1,15,15,0,0,1,4.2-2.25c.17-.06.44-.25.42-.3-.29-.85.56-.89.9-1.29s.64-1,1.05-1.37a10.65,10.65,0,0,1,1.18-.73,13.47,13.47,0,0,1,2-1.59,40,40,0,0,1,3.88-1.43,1.18,1.18,0,0,1,.56-.8,14.75,14.75,0,0,0,1.42-.46c1.16-.71,2.6-.64,3.73-1.51a6.21,6.21,0,0,1,2.36-.78,36.77,36.77,0,0,1,6.63-1.4c2.73-.12,5.24-1,7.87-1.47h4.74c.35.09.7.2,1.06.26,2.14.38,4.32.62,6.42,1.15q4.84,1.22,9.61,2.78a57.09,57.09,0,0,1,6.71,2.66c4,1.91,7.29,4.86,10.49,7.94a22.53,22.53,0,0,1,6.46,11c.46,1.79.87,3.6,1.19,5.43a56.93,56.93,0,0,0,2.67,9.29,50.18,50.18,0,0,0,6.86,13.29,94.61,94.61,0,0,0,16.47,16.57,17.1,17.1,0,0,1,5.69,7.17v2.23c-.19.47-.37.95-.57,1.42-1.14,2.68-2.51,2.88-4.53.72a3.74,3.74,0,0,0-1.6-.93c-2.23-.62-4.52-1.05-6.71-1.76a51.8,51.8,0,0,1-14.09-6.84c-2.2-1.55-4.36-3.17-6.66-4.55-4.7-2.81-9.48-5.49-14.24-8.2a4.16,4.16,0,0,0-1.28-.45,23.6,23.6,0,0,1-3.41-.63,42.56,42.56,0,0,0-16-2.68c-.18,0-.36,0-.54,0-1.26.06-2.52.17-3.78.16s-2.43-.19-3.65-.19c-1.46,0-2.93.08-4.38.22q-3.15.3-6.27.75c-.94.14-1.88.7-2.76.58-1.12-.14-1.69.46-2.43,1-.28.2-.72.5-1,.41-.6-.23-.89.09-1.15.47-.79,1.13-2.57,1.17-3,2.73,0,.07-.16.16-.22.15-1-.33-1.34.6-1.82,1.12a12.53,12.53,0,0,0-2.86,5c-.14.47-.35,1.17-.69,1.29-.74.26-.77.83-1,1.35-.59,1.41-1.21,2.81-1.81,4.21a5.15,5.15,0,0,0-.62,1.61c-.16,2.41-.2,4.83-.31,7.24-.18,4.22-.26,8.45-.62,12.65a24.84,24.84,0,0,0,.17,5.39,1.49,1.49,0,0,0,1.17,1.34c7.32,2.49,13.79,6.59,20.16,10.85,2.11,1.41,3.93,3.27,6,4.71,4.06,2.79,8.21,5.43,12.34,8.12a3.3,3.3,0,0,0,1,.41,21.33,21.33,0,0,1,6.52,2.72,1.61,1.61,0,0,0,1.27.12c1.85-.78,3.65-1.09,5.46.06a4.09,4.09,0,0,0,.78.31l1.28.4.1-.26-1.23-1a.67.67,0,0,1,.21-.09,3,3,0,0,1,.4.11,12.69,12.69,0,0,1,7.69,8.08c.67,1.85,1.27,3.73,1.9,5.59l.39,0a19.73,19.73,0,0,0,1-2.21A55.65,55.65,0,0,0,933,248.64c.06-.71.14-1.41.24-2.38a4.71,4.71,0,0,1,1.16,3.25q-.26,3.31-.7,6.62c-.32,2.29-.75,4.55-1.14,6.9l2.56,1.13,7.7-9.91a8,8,0,0,1-1.78,5.25,10.05,10.05,0,0,0-1.05,1.63c-.57,1.21-.95,2.53-1.61,3.69s.75,2.65-.3,3.86c0,.05.06.26.12.38.31.6.74.61,1.38.47,3.93-.86,7.88-1.32,11.86-.36a14.6,14.6,0,0,1,6.55,3.24,15.32,15.32,0,0,0-10.41,0c.32.78.43,1.72,1,2.14a59.64,59.64,0,0,0,4.91,3.41,3.93,3.93,0,0,0,3,.67,4.3,4.3,0,0,1,1.23.08,14.25,14.25,0,0,0,1.6,0,9.3,9.3,0,0,0,1.34-.32,8.48,8.48,0,0,1-5.49,2.14c-2.36,0-4.72-.11-7.08-.26-1-.06-2-.35-3-.51-1.45-.24-1.79,0-2.11,1.44a3.45,3.45,0,0,1-.17.45l-.82-.35c-.8,1.63-.69,2.17.5,3.33a3.93,3.93,0,0,1,1.08,1.42,5,5,0,0,1-.1,1.74l2,1.16-.09.2-2.16-.87-.12.26,1.57.93-1.52-.13c.6.68,1,1.27,1.58,1.78a8.52,8.52,0,0,0,1.87,1.54c2.36,1.18,4.79,2.21,7.15,3.39a9.92,9.92,0,0,1,2.24,1.62,1.33,1.33,0,0,1-.34,2.37,3.76,3.76,0,0,1-1.31.44c-2,.19-4,.36-5.94.45a3.47,3.47,0,0,1-2.74-1.15c-1.81-1.89-4.26-2.41-6.67-3a6,6,0,0,0-1.29.07l3.07,3.19-.09.08L937.56,298a2.82,2.82,0,0,0,1.68,2.37c.08.05.1.18.21.37l-1.44-.28,2.2,2.35L940,303l-2.24-1.42-.07.14,1.13,1.4a1.5,1.5,0,0,1-.85-.22c-.44-.21-.88-.61-1.39-.13s-.12.92.12,1.36l.78,1.48-.25.15-1.09-.85c-2.26,0-2.16,1.72-2.15,3.13,0,4.09.23,8.17.32,12.25a21.77,21.77,0,0,1-.1,3.33,19.93,19.93,0,0,1-2.47,6.46c0,.09,0,.24,0,.34l1.12-.37c-1.37,2.25-2.89,4.29-4.41,6.33-.11.15-.38.37-.36.4.79,1.06-.43,1-.78,1.21a32.18,32.18,0,0,1-3,1.48l1.21.5-.24.4-3.09.72,1.06,1h-3.1l.13.92-3-.26-.07.19,1.46.78-3.48.92v.34l1.75.73,0,.24h-2.07l0,.19,1.43.57a1.21,1.21,0,0,1-.89.37c-1.06-.1-2.13-.2-3.17-.4a1.16,1.16,0,0,0-1.42.59l2.75.95-.08.36a13.64,13.64,0,0,1-3.31-.57,2.11,2.11,0,0,0-2.62.52,12.06,12.06,0,0,0-1.38,2.31l-1.44-.93-6,4,1.12.27a25,25,0,0,1-2,1.81c-.93.68-1.95,1.26-2.91,1.9-.26.17-.71.45-.68.61.17.81-.48.92-.92,1.16a36.4,36.4,0,0,1-9.31,3.75c-.62,2.21-1.26,4.43-1.88,6.65a101.36,101.36,0,0,0-3.6,17.41c-.24,2.39-.6,4.78-1,7.15-.19,1-.81,1.95-1.07,3a14.7,14.7,0,0,0-.22,7.28,3.73,3.73,0,0,1-2.24,4.46,1.32,1.32,0,0,0-.94,1.7,2.33,2.33,0,0,1-1.33,2.67,61.26,61.26,0,0,0-6.73,3.85,6,6,0,0,1-2,.67c-1.46.24-2.94.38-4.41.56-2.06.26-4.14.44-5.93,1.66h-1.39l-2.41-.59-.24-.85a26.59,26.59,0,0,1-3.94-.92,33.73,33.73,0,0,0-10.33-2c-6-.41-11.95-.6-17.93-.9a9.36,9.36,0,0,1-1.63-.37l-.08-.45a8.45,8.45,0,0,1,1.64-1.11,40,40,0,0,1,5-1.61,9.23,9.23,0,0,0,5.26-3.65c1.07-1.36,1-1.69-.35-3l-3,.85c.5-1.48-.35-1.52-1.19-1.51-3.16,0-6.32.06-9.47.15-3.7.1-7.4.47-11.11-.36a7,7,0,0,1-.24,1.11,3.84,3.84,0,0,1-.55,1.11c-.73.9-1.9.8-2.14-.29-.39-1.73-1.64-2.36-3.07-2.87a34.59,34.59,0,0,0-9.52-1.88c-3.8-.25-7.62-.22-11.42-.35-.81,0-1.85.24-2-1.09,0-.11-.36-.19-.56-.27-.95-.4-1.1-.89-.26-1.45a9.94,9.94,0,0,1,2.75-1.26c2.85-.8,5.72-1.5,8.59-2.23s5.9-1.6,8.89-2.2c2.08-.42,4.24-.48,6.36-.71a27.19,27.19,0,0,0,3.85-.48c2.29-.58,4.56-1.27,6.78-2.06a50.34,50.34,0,0,0,5.62-2.38,4.52,4.52,0,0,0,1.94-4.17,42.74,42.74,0,0,1-.6-6.06c0-4.69.28-9.38.44-14.07a9.21,9.21,0,0,0,0-1.39c-.34-2.48-.73-4.95-1-7.43a2,2,0,0,0-1.31-1.77c-3.1-1.38-6.16-2.81-9.23-4.25-3.81-1.8-7.72-3.4-11.21-5.83-9.2-6.4-16.9-14.36-24-22.92-2-2.38-3.87-4.86-5.95-7.16-3.19-3.51-6.67-6.75-9.72-10.37a43,43,0,0,1-9.7-21.84C744,277.77,743.66,276.13,743.4,274.49Z"/><path d="M757.43,287l7.34,4.7c-8.51-.49-16.09-3.67-23.27-8.05l-.44.71,10,8.19c-12.55-2.52-21.57-11.46-32.85-17.63l8.23,9.64-.77.82c-8-6.19-15.86-12.78-26.55-14l4.67,3-19.09-6.76-5.81-2.06-.05,0a.15.15,0,0,0,0-.06c0-.21.16-1,.36-1.68l.27-.9q1-3.42,2.11-6.81c1.35-4.09-.42-7.09-3.62-9.79,3.4-2.65,5.87-5.71,6.09-10.25a56,56,0,0,1-4.17,5.41,9.86,9.86,0,0,1-8.72,3,33.75,33.75,0,0,1-11.45-3,5.9,5.9,0,0,0-3.24-.55c2.87,1.56,5.82,3,8.6,4.69,6,3.67,10.08,8.7,11.12,15.84a7.44,7.44,0,0,1-.06,3.29c-.5,1.51-1.77,2.34-2.94.71-3.48-4.85-8.4-6.22-14-6.38-6.91-.21-11.36-4.42-15-9.77l-1.13,1.29c-5.56-6.54-4.18-17.71,1.39-24.14a7.18,7.18,0,0,1,3.73-1.82c15.22-3.37,30.58-4.87,46.14-2.79a8.85,8.85,0,0,0,1.58-.08c-1.82-1.85,13.16,4,11.56,2.38,13.07,6.8,63.62,5.24,64.13,2.41-1.66,21.25.06,42.77,8,62.63C771.89,290.58,764.72,288.8,757.43,287Z"/><path d="M670.31,265.55c-8.33,6.19-20.46,5.11-23.71-1.47,4.46-.83,9-1.94,13.55-2.46A12.09,12.09,0,0,1,670.31,265.55Z"/><path d="M670.48,269.92c-3.12,3.2-8.36,3.56-10.19,1,1.84-.66,3.69-1.44,5.6-2A5.21,5.21,0,0,1,670.48,269.92Z"/><path d="M637.3,243.86c2.08,9.18,10.52,11.66,17.17,16.72-5.27.81-10.06.87-13.83-2.94S635.9,249.19,637.3,243.86Z"/><path d="M670.08,246.43c4.24.82,8.38,1.58,9.8,6.18.4,1.3-.56,3-1.06,5.26C675.5,253.52,672.9,250.11,670.08,246.43Z"/><path d="M690.73,275.6a19,19,0,0,1-2.86-2.33l.3-1.68-.58,1.41c-.47-.48-.91-1-1.34-1.51l.45-1.45c-.06.11-.38.72-.67,1.18a25.94,25.94,0,0,1-3.38-5.81l4.8-3.26a21.7,21.7,0,0,1,3,5.72,13.86,13.86,0,0,1,.7,3.49A11.9,11.9,0,0,1,690.73,275.6Z"/><path d="M684.16,272.23a15.43,15.43,0,0,1-5.3-6.69l0-.08c0-.21.16-1,.36-1.68l.27-.9,2.69-2.05a15.21,15.21,0,0,1,2.53,6.77A11.75,11.75,0,0,1,684.16,272.23Z"/><path d="M696.71,274.56l-.65-.34.63.63a9.21,9.21,0,0,1-.6,2.59,17.71,17.71,0,0,1-2.24-2.17l.38-.59c-.07.05-.33.26-.52.44a18.12,18.12,0,0,1-1.45-1.94l1.21-.44a5.13,5.13,0,0,1-1.48,0,12.82,12.82,0,0,1-.8-1.39,23.4,23.4,0,0,1-1.37-3.15l.67-.34,3.58-1.79C696,269.16,696.85,272,696.71,274.56Z"/><path d="M711.58,283.42l.88,1c0,.7-.08,1.41-.16,2.11l-1.32-.41,1.26.83a25.18,25.18,0,0,1-.58,3,34.59,34.59,0,0,1-7.9-6.6l.88-.77-1.25.35a39.55,39.55,0,0,1-3.23-4.3l1.79-2.54a29.54,29.54,0,0,0-2,2.25,50.47,50.47,0,0,1-3.91-7.33l8.93-7.43q7.44,10,7.48,19.77Z"/><path d="M738.85,307a76.14,76.14,0,0,1-10.91-7.53l1.12-4.31-2.29,3.31a70.27,70.27,0,0,1-5.38-5.11l1.25-4.39-2.46,3.1a89.29,89.29,0,0,1-11.48-15.63l14.59-9.8Q742.7,288,738.85,307Z"/><path d="M623.49,224.29a7.18,7.18,0,0,0-3.73-1.82c-15.22-3.37-30.58-4.87-46.14-2.79a8.85,8.85,0,0,1-1.58-.08c1.82-1.85-13.16,4-11.56,2.38-12.56,6.54-59.72,5.35-63.84,2.74-.38-.43-.76-.86-1.13-1.3l1.35.34.21-.24a8,8,0,0,0-1-1.16c-1.61-1.25-3.21-2.54-4.91-3.66-6.38-4.2-13.25-7-21-7.26a5.41,5.41,0,0,1-1.63-.31,23.63,23.63,0,0,1-6.82-3.69c-2.68-2.07-5.42-4.07-8.11-6.12a5.67,5.67,0,0,1-1.25-1.29c-1.37-2-2.77-4.07-4-6.19s-3-3.75-3-6.4c0-.88-.75-1.74-1.12-2.63a6.1,6.1,0,0,1-.21-1.05c.86,0,.37-.47.26-.76a5.12,5.12,0,0,1-.51-2.05c0-.62-.87-1.24-1.35-1.87a2.84,2.84,0,0,1-.24-.54h1.09l-3.42-2.78.52-.42L439,173l.83-.32-1.7-1.51.15-.18,1.87.68c-1-1.14-2.48-1.56-3.15-3l1.12-.16-3.54-3.2,1.16-.09c-.53-1-1.1-1.93-1.56-2.92-.28-.6-.28-1.35-.6-1.91-.6-1-1.35-2-2-3l.75-.36-1.45-1.22.54-.5-3.86-2.58,1.31-.5-.49-.54,1.5-.49c-2.38-.51-4.65-1-6.14-3.09l.77-.23-1.79-1.11-.11-1.85L421,144.2l.5-.53-1.54-.76,1.21-.36c-1.52-1-3-1.86-4.43-2.78-.14-.09-.18-.31-.3-.44a15.91,15.91,0,0,0-1.62-1.93c-.75-.69-1.62-1.26-2.58-2l2.1-1.1h-1.63L413,134a11.16,11.16,0,0,1-2.57-1,15,15,0,0,0-4.2-2.25c-.17-.06-.44-.25-.43-.3.3-.85-.55-.89-.89-1.29s-.64-1-1.05-1.37a10.65,10.65,0,0,0-1.18-.73,14,14,0,0,0-2-1.59,40,40,0,0,0-3.88-1.43,1.16,1.16,0,0,0-.57-.8c-.44-.21-1-.21-1.41-.46-1.16-.71-2.6-.64-3.73-1.51a6.21,6.21,0,0,0-2.36-.78,36.77,36.77,0,0,0-6.63-1.4c-2.73-.12-5.24-1-7.87-1.47h-4.74c-.35.09-.7.2-1.06.26-2.14.38-4.32.62-6.42,1.15q-4.86,1.22-9.61,2.78a57.09,57.09,0,0,0-6.71,2.66c-4,1.91-7.29,4.86-10.49,7.94a22.54,22.54,0,0,0-6.47,11c-.45,1.79-.86,3.6-1.18,5.43a57.94,57.94,0,0,1-2.67,9.29A50.18,50.18,0,0,1,318,171.34a94.61,94.61,0,0,1-16.47,16.57c-2.46,2-4.57,4.16-5.69,7.17v2.23c.19.47.37.95.57,1.42,1.14,2.68,2.51,2.88,4.53.72a3.68,3.68,0,0,1,1.6-.93c2.23-.62,4.52-1.05,6.71-1.76a51.94,51.94,0,0,0,14.09-6.84c2.2-1.55,4.36-3.17,6.66-4.55,4.7-2.81,9.48-5.49,14.24-8.2a4.07,4.07,0,0,1,1.28-.45,23.86,23.86,0,0,0,3.41-.63,42.51,42.51,0,0,1,16-2.68c.19,0,.37,0,.55,0,1.26.06,2.52.17,3.78.16s2.43-.19,3.65-.19c1.46,0,2.92.08,4.38.22q3.15.3,6.27.75c.94.14,1.88.7,2.76.58a3.14,3.14,0,0,1,2.42,1c.29.2.73.5,1,.41.6-.23.89.09,1.15.47.79,1.13,2.57,1.17,3,2.73,0,.07.16.16.22.15,1-.33,1.33.6,1.82,1.12a12.53,12.53,0,0,1,2.86,5c.14.47.35,1.17.69,1.29.74.26.77.83,1,1.35.59,1.41,1.21,2.81,1.81,4.21a5.69,5.69,0,0,1,.62,1.61c.15,2.41.2,4.83.31,7.24.18,4.22.25,8.45.62,12.65a24.84,24.84,0,0,1-.17,5.39,1.49,1.49,0,0,1-1.17,1.34c-7.32,2.49-13.79,6.59-20.16,10.85-2.12,1.41-3.93,3.27-6,4.71-4.06,2.79-8.22,5.43-12.34,8.12a3.3,3.3,0,0,1-1,.41,21.13,21.13,0,0,0-6.52,2.72,1.61,1.61,0,0,1-1.27.12c-1.85-.78-3.65-1.09-5.47.06a4,4,0,0,1-.77.31l-1.28.4-.1-.26,1.23-1c-.13-.06-.17-.09-.21-.09a2.62,2.62,0,0,0-.4.11,12.66,12.66,0,0,0-7.69,8.08c-.67,1.85-1.27,3.73-1.9,5.59l-.39,0a21.82,21.82,0,0,1-1-2.21,56.2,56.2,0,0,1-2.28-12.41c-.06-.71-.14-1.41-.24-2.38a4.71,4.71,0,0,0-1.16,3.25q.25,3.32.7,6.62c.32,2.29.75,4.55,1.14,6.9L332.77,262l-7.7-9.91a8,8,0,0,0,1.78,5.25,10.77,10.77,0,0,1,1,1.63c.57,1.21,1,2.53,1.61,3.69s-.75,2.65.3,3.86c0,.05-.06.26-.12.38-.31.6-.74.61-1.38.47-3.93-.86-7.88-1.32-11.86-.36a14.55,14.55,0,0,0-6.55,3.24,15.32,15.32,0,0,1,10.41,0c-.32.78-.43,1.72-.95,2.14a59.64,59.64,0,0,1-4.91,3.41,3.93,3.93,0,0,1-3,.67,4.3,4.3,0,0,0-1.23.08,14.25,14.25,0,0,1-1.6,0,9.3,9.3,0,0,1-1.34-.32,8.48,8.48,0,0,0,5.49,2.14c2.36,0,4.72-.11,7.07-.26,1-.06,2-.35,3-.51,1.46-.24,1.8,0,2.12,1.44,0,.13.09.25.16.45l.83-.35c.8,1.63.69,2.17-.51,3.33a4,4,0,0,0-1.07,1.42,5,5,0,0,0,.1,1.74l-2,1.16.09.2,2.16-.87.12.26-1.57.93,1.52-.13c-.6.68-1.05,1.27-1.58,1.78a8.52,8.52,0,0,1-1.87,1.54c-2.36,1.18-4.79,2.21-7.16,3.39a10.39,10.39,0,0,0-2.24,1.62,1.33,1.33,0,0,0,.35,2.37,3.69,3.69,0,0,0,1.31.44c2,.19,4,.36,5.94.45a3.48,3.48,0,0,0,2.74-1.15c1.81-1.89,4.26-2.41,6.67-3a6,6,0,0,1,1.29.07L327.09,298l.1.08,3.18-2.21a2.86,2.86,0,0,1-1.68,2.37c-.08.05-.11.18-.21.37l1.43-.28-2.19,2.35.17.16,2.23-1.42.08.14-1.13,1.4a1.5,1.5,0,0,0,.85-.22c.44-.21.88-.61,1.38-.13s.13.92-.11,1.36l-.78,1.48.25.15,1.09-.85c2.26,0,2.16,1.72,2.15,3.13,0,4.09-.23,8.17-.32,12.25a21.77,21.77,0,0,0,.1,3.33,19.68,19.68,0,0,0,2.46,6.46c.05.09,0,.24,0,.34l-1.12-.37c1.37,2.25,2.89,4.29,4.41,6.33.11.15.38.37.36.4-.79,1.06.42,1,.77,1.21a31.23,31.23,0,0,0,3,1.48l-1.21.5.24.4,3.09.72-1.07,1h3.11l-.13.92,3-.26.06.19-1.45.78,3.48.92v.34l-1.76.73.06.24h2.07l0,.19-1.43.57a1.21,1.21,0,0,0,.89.37c1.06-.1,2.12-.2,3.16-.4a1.17,1.17,0,0,1,1.43.59l-2.75.95.08.36a13.73,13.73,0,0,0,3.31-.57,2.11,2.11,0,0,1,2.62.52,12.06,12.06,0,0,1,1.38,2.31l1.44-.93,6,4-1.12.27c.77.71,1.33,1.33,2,1.81.94.68,2,1.26,2.92,1.9.26.17.7.45.67.61-.16.81.49.92.93,1.16a36.48,36.48,0,0,0,9.3,3.75c.63,2.21,1.27,4.43,1.89,6.65a101.36,101.36,0,0,1,3.6,17.41c.24,2.39.6,4.78,1,7.15.19,1,.81,1.95,1.07,3a14.7,14.7,0,0,1,.22,7.28,3.73,3.73,0,0,0,2.24,4.46,1.32,1.32,0,0,1,.94,1.7,2.33,2.33,0,0,0,1.33,2.67,61.12,61.12,0,0,1,6.72,3.85,6.13,6.13,0,0,0,2,.67c1.46.24,2.94.38,4.41.56,2.06.26,4.14.44,5.93,1.66h1.39l2.4-.59.25-.85a26.89,26.89,0,0,0,3.94-.92,33.73,33.73,0,0,1,10.33-2c6-.41,12-.6,17.93-.9a9.36,9.36,0,0,0,1.63-.37l.08-.45a8.77,8.77,0,0,0-1.64-1.11,40.56,40.56,0,0,0-5-1.61,9.29,9.29,0,0,1-5.27-3.65c-1.06-1.36-1-1.69.36-3l3,.85c-.5-1.48.35-1.52,1.19-1.51,3.15,0,6.31.06,9.47.15,3.7.1,7.4.47,11.1-.36a10.23,10.23,0,0,0,.24,1.11,3.63,3.63,0,0,0,.56,1.11c.73.9,1.9.8,2.14-.29.39-1.73,1.64-2.36,3.07-2.87A34.59,34.59,0,0,1,481.9,399c3.8-.25,7.61-.22,11.42-.35.81,0,1.85.24,2-1.09,0-.11.36-.19.56-.27,1-.4,1.1-.89.26-1.45a9.94,9.94,0,0,0-2.75-1.26c-2.85-.8-5.72-1.5-8.59-2.23s-5.9-1.6-8.89-2.2c-2.08-.42-4.24-.48-6.36-.71a27.51,27.51,0,0,1-3.86-.48c-2.28-.58-4.55-1.27-6.77-2.06a48.8,48.8,0,0,1-5.62-2.38,4.49,4.49,0,0,1-1.94-4.17,41.31,41.31,0,0,0,.59-6.06c0-4.69-.27-9.38-.43-14.07a9.21,9.21,0,0,1,0-1.39c.34-2.48.73-4.95,1-7.43a2,2,0,0,1,1.31-1.77c3.09-1.38,6.16-2.81,9.23-4.25,3.81-1.8,7.71-3.4,11.21-5.83,9.2-6.4,16.9-14.36,24-22.92,2-2.38,3.88-4.86,6-7.16,3.18-3.51,6.67-6.75,9.71-10.37a42.3,42.3,0,0,0,6.05-9.5c10.94-3.26,19.36-11.18,29.66-16.82l-8.23,9.64.77.82c8-6.19,15.86-12.78,26.55-14l-4.67,3,19.09-6.76,5.81-2.06,0,0a.15.15,0,0,1,0-.06c0-.21-.16-1-.36-1.68l-.27-.9q-1-3.42-2.11-6.81c-1.35-4.09.42-7.09,3.62-9.79-3.4-2.65-5.87-5.71-6.09-10.25a56,56,0,0,0,4.17,5.41,9.86,9.86,0,0,0,8.72,3,33.75,33.75,0,0,0,11.45-3,5.9,5.9,0,0,1,3.24-.55c-2.87,1.56-5.82,3-8.6,4.69-6,3.67-10.08,8.7-11.12,15.84a7.44,7.44,0,0,0,.06,3.29c.5,1.51,1.77,2.34,2.94.71,3.48-4.85,8.4-6.22,14-6.38,6.91-.21,11.36-4.42,15-9.77l1.13,1.29C630.44,241.89,629.06,230.72,623.49,224.29ZM353.46,250c-.37.27-.84.39-1.23.64-2.05,1.28-3.87,2.74-4,5.46a1,1,0,0,1-.44.77c-1.56.65-3.14,1.22-5,1.93a7.94,7.94,0,0,1,0-1.8,7.5,7.5,0,0,1,.82-1.91c2.33-3.92,5.89-5.85,10.61-6A6.07,6.07,0,0,1,353.46,250Zm87.08,121.6a9.51,9.51,0,0,1-3,5.08,45.87,45.87,0,0,1-6.67,5.19,10.21,10.21,0,0,0-1.18,1,13,13,0,0,0,1.37.26,9.66,9.66,0,0,0,1.21,0c1.15,2.06,3.51,2.25,5.88.36a7.78,7.78,0,0,1-.37,2.15,17.28,17.28,0,0,1-2.24,3.64c-1.62,1.84-3.46,3.5-5.2,5.24s-3.1,3.47-3.12,6.11a23.86,23.86,0,0,1-3.1.19c-3.47-.22-7-.4-10.4-.85a55.14,55.14,0,0,1-6.75-1.61,2.87,2.87,0,0,1-2-1.64c-1.75-3.84-3.63-7.62-5.29-11.5a46.7,46.7,0,0,1-3.61-12.66,11,11,0,0,1,.71-6.21,14.81,14.81,0,0,0,10.59-.12,1.76,1.76,0,0,1,.76,0,9.62,9.62,0,0,0,1.82.22c1-.1,2-.37,3-.57l.14.89c1.46-.48,2.86-.82,4.17-1.39,7.57-3.28,15.12-6.62,22.67-9.94l2.15-.94a9.94,9.94,0,0,1,.33,1.08,6.35,6.35,0,0,1,.08,1C442.79,361.64,441.75,366.63,440.54,371.6Z"/><path d="M597.62,263.39c8.33,6.19,20.46,5.11,23.7-1.47-4.45-.83-9-1.94-13.55-2.46A12.08,12.08,0,0,0,597.62,263.39Z"/><path d="M597.45,267.76c3.12,3.2,8.36,3.56,10.18,1-1.83-.66-3.68-1.44-5.6-2A5.2,5.2,0,0,0,597.45,267.76Z"/><path d="M630.63,241.7c-2.08,9.18-10.52,11.66-17.17,16.72,5.27.81,10.06.87,13.83-2.94S632,247,630.63,241.7Z"/><path d="M597.84,244.27c-4.24.82-8.37,1.58-9.79,6.18-.4,1.3.56,3,1.06,5.26Z"/><path d="M577.2,273.44a19,19,0,0,0,2.86-2.33l-.3-1.68.58,1.41c.47-.48.91-1,1.34-1.51l-.45-1.45c.06.11.38.72.67,1.18a25.94,25.94,0,0,0,3.38-5.81l-4.8-3.26a21.7,21.7,0,0,0-3,5.72,13.86,13.86,0,0,0-.7,3.49A11.9,11.9,0,0,0,577.2,273.44Z"/><path d="M583.77,270.07a15.43,15.43,0,0,0,5.3-6.69l0-.08c0-.21-.16-1-.36-1.68l-.27-.9-2.69-2.05a15.21,15.21,0,0,0-2.53,6.77A11.75,11.75,0,0,0,583.77,270.07Z"/><path d="M571.22,272.4l.65-.34-.63.63a9.21,9.21,0,0,0,.6,2.59,17.71,17.71,0,0,0,2.24-2.17l-.38-.59c.07.05.33.26.52.44a18.12,18.12,0,0,0,1.45-1.94l-1.21-.44a5.13,5.13,0,0,0,1.48,0,12.82,12.82,0,0,0,.8-1.39,23.4,23.4,0,0,0,1.37-3.15l-.67-.34-3.58-1.79C572,267,571.08,269.83,571.22,272.4Z"/><path d="M556.35,281.26l-.88,1c0,.7.08,1.41.16,2.11L557,284l-1.26.83a25.18,25.18,0,0,0,.58,3.05,34.59,34.59,0,0,0,7.9-6.6l-.88-.77,1.25.35a39.55,39.55,0,0,0,3.23-4.3L566,274a29.54,29.54,0,0,1,2,2.25,50.47,50.47,0,0,0,3.91-7.33l-8.93-7.43q-7.44,10-7.48,19.77Z"/><path d="M529.08,304.83A76.14,76.14,0,0,0,540,297.3L538.87,293l2.29,3.31a70.27,70.27,0,0,0,5.38-5.11l-1.25-4.39,2.46,3.1a89.29,89.29,0,0,0,11.48-15.63l-14.59-9.8Q525.23,285.86,529.08,304.83Z"/><rect class="cls-3" x="592.92" y="365.33" width="10.09" height="80.16"/><polygon class="cls-3" points="686.79 412.96 684.37 415.15 686.79 417.56 686.79 457.87 676.69 457.87 676.69 377.71 686.79 377.71 686.79 412.96"/><rect class="cls-3" x="641.7" y="386.43" width="10.09" height="66.38"/><rect class="cls-3" x="629" y="408.22" width="10.09" height="37.27"/><rect class="cls-3" x="592.92" y="365.33" width="93.87" height="10.21"/><rect x="592.92" y="464.71" width="93.87" height="10.21"/><rect class="cls-3" x="616.01" y="377.71" width="70.78" height="10.21"/><rect class="cls-3" x="592.92" y="447.71" width="93.87" height="10.21"/><rect class="cls-3" x="592.92" y="435.28" width="46.18" height="10.21"/><rect class="cls-3" x="616.01" y="408.22" width="23.09" height="10.21"/><rect class="cls-3" x="649.57" y="410.05" width="28.89" height="10.21"/><path d="M750.91,280.25a4.68,4.68,0,0,0-4.81-4.7,4.54,4.54,0,0,0-3.81,1.81,4.92,4.92,0,0,0-1.91,3.69c-1,2.5-.09,5.82,2.72,6.79a4.85,4.85,0,0,0,2.81.83l.3,0a4.63,4.63,0,0,0,3.55,1.48C755.79,290.13,756.18,281.36,750.91,280.25Z"/></g></g></svg>