<?xml version="1.0" encoding="utf-8"?>
<!-- Generator: Adobe Illustrator 23.0.2, SVG Export Plug-In . SVG Version: 6.00 Build 0)  -->
<svg version="1.1" id="Layer_1" xmlns="http://www.w3.org/2000/svg" xmlns:xlink="http://www.w3.org/1999/xlink" x="0px" y="0px"
	 viewBox="0 0 1281 474.9" style="enable-background:new 0 0 1281 474.9;" xml:space="preserve">
<style type="text/css">
	.st0{fill:none;stroke:#000000;}
	.st1{fill:#A07822;stroke:#231F20;stroke-width:2;stroke-miterlimit:10;}
	.st2{fill:#C0996B;}
	.st3{fill:#A07822;}
</style>
<title>Asset 4</title>
<g>
	<g id="Layer_1-2">
		<path d="M125.8,142.7l-58.5,23.4l12.2,19.3l25.8-10.3c-1,6.1-3.4,11.8-7,16.8c-4.4,6-10.3,10.5-17.2,13.2c-5,2-10.3,3-15.6,2.9
			c-5.1-0.1-10.2-1.1-15-3.1c-4.7-2-9-4.8-12.7-8.4c-3.8-3.7-6.8-8.1-8.8-13c-2.1-4.9-3.1-10.1-3-15.4c0.6-22,18.9-39.4,40.9-38.7
			c0.5,0,1,0,1.5,0.1c5.8,0.4,11.4,2.1,16.5,4.8l1.8,1l10.1-23.4l-1.5-0.8c-8.2-3.9-17.1-6.2-26.2-6.7c-9.5-0.5-19,1.1-27.8,4.7
			c-8.1,3.2-15.5,8-21.6,14.1c-5.9,5.9-10.7,12.8-14,20.4c-3.3,7.6-5,15.8-5.2,24.1c-0.2,17.4,6.7,34.2,19.2,46.4
			c6,5.8,13.1,10.4,20.9,13.6c7.8,3.1,16.1,4.8,24.5,5h1.5c8.2,0,16.4-1.6,24-4.7c8.1-3.2,15.5-8,21.6-14.1
			c11.9-11.8,18.7-27.7,19.1-44.4c0.2-8.6-1.4-17.1-4.8-25.1L125.8,142.7z"/>
		<path class="st0" d="M125.8,142.7l-58.5,23.4l12.2,19.3l25.8-10.3c-1,6.1-3.4,11.8-7,16.8c-4.4,6-10.3,10.5-17.2,13.2
			c-5,2-10.3,3-15.6,2.9c-5.1-0.1-10.2-1.1-15-3.1c-4.7-2-9-4.8-12.7-8.4c-3.8-3.7-6.8-8.1-8.8-13c-2.1-4.9-3.1-10.1-3-15.4
			c0.6-22,18.9-39.4,40.9-38.7c0.5,0,1,0,1.5,0.1c5.8,0.4,11.4,2.1,16.5,4.8l1.8,1l10.1-23.4l-1.5-0.8c-8.2-3.9-17.1-6.2-26.2-6.7
			c-9.5-0.5-19,1.1-27.8,4.7c-8.1,3.2-15.5,8-21.6,14.1c-5.9,5.9-10.7,12.8-14,20.4c-3.3,7.6-5,15.8-5.2,24.1
			c-0.2,17.4,6.7,34.2,19.2,46.4c6,5.8,13.1,10.4,20.9,13.6c7.8,3.1,16.1,4.8,24.5,5h1.5c8.2,0,16.4-1.6,24-4.7
			c8.1-3.2,15.5-8,21.6-14.1c11.9-11.8,18.7-27.7,19.1-44.4c0.2-8.6-1.4-17.1-4.8-25.1L125.8,142.7z"/>
		<path class="st1" d="M214.7,106.4c-4.1-2.3-9-2.8-13.5-1.5c-4.5,1.2-8.4,4.1-10.7,8.2c-4.8,8.2-2.1,18.7,6.1,23.5
			c0.2,0.1,0.5,0.3,0.7,0.4c2.6,1.4,5.6,2.2,8.6,2.2c1.7,0,3.3-0.2,4.9-0.7c4.5-1.2,8.4-4.1,10.7-8.2c2.4-4,3.1-8.8,1.8-13.2
			C222,112.5,218.9,108.6,214.7,106.4z"/>
		<path class="st0" d="M214.7,106.4c-4.1-2.3-9-2.8-13.5-1.5c-4.5,1.2-8.4,4.1-10.7,8.2c-4.8,8.2-2.1,18.7,6.1,23.5
			c0.2,0.1,0.5,0.3,0.7,0.4c2.6,1.4,5.6,2.2,8.6,2.2c1.7,0,3.3-0.2,4.9-0.7c4.5-1.2,8.4-4.1,10.7-8.2c2.4-4,3.1-8.8,1.8-13.2
			C222,112.5,218.9,108.6,214.7,106.4z"/>
		<path d="M245.7,126.9c-0.7,5-2.3,9.9-4.8,14.3c-2.5,4.4-5.9,8.3-9.9,11.4c-4.2,3.3-9,5.7-14.1,7.1c-5.2,1.4-10.5,1.8-15.9,1.1
			c-5.1-0.7-10-2.3-14.5-4.7c-4.5-2.5-8.4-5.8-11.6-9.8c-3.3-4.1-5.8-8.8-7.2-13.9c-1.5-5.1-1.9-10.4-1.2-15.6
			c0.7-5,2.3-9.9,4.8-14.3c2.5-4.4,5.9-8.3,9.9-11.4c4.2-3.3,9-5.7,14.1-7.1c3.5-1,7.1-1.5,10.7-1.5c1.7,0,3.4,0.1,5.1,0.3
			c5.1,0.7,10,2.3,14.5,4.7c4.5,2.5,8.4,5.8,11.6,9.8c3.3,4.1,5.8,8.8,7.2,13.9C246,116.4,246.4,121.7,245.7,126.9z M257.1,81.8
			c-5.3-6.5-11.8-11.9-19.1-16c-7.3-4-15.4-6.7-23.7-7.8c-8.7-1.2-17.5-0.5-25.9,1.8c-8.4,2.3-16.3,6.2-23.1,11.7
			c-6.5,5.2-12,11.5-16.2,18.7c-4.2,7.2-6.9,15.1-8,23.4c-2.3,17.3,2.7,34.7,13.7,48.2c5.3,6.4,11.8,11.8,19.1,15.9
			c7.4,4,15.4,6.6,23.8,7.8c2.8,0.4,5.6,0.6,8.4,0.6c5.9,0,11.8-0.8,17.4-2.4c8.4-2.3,16.3-6.2,23.1-11.6c6.5-5.2,12-11.5,16.2-18.7
			c4.1-7.2,6.8-15.1,7.9-23.2c1.2-8.5,0.6-17.2-1.9-25.4C266.6,96.2,262.6,88.5,257.1,81.8z"/>
		<path class="st0" d="M245.7,126.9c-0.7,5-2.3,9.9-4.8,14.3c-2.5,4.4-5.9,8.3-9.9,11.4c-4.2,3.3-9,5.7-14.1,7.1
			c-5.2,1.4-10.5,1.8-15.9,1.1c-5.1-0.7-10-2.3-14.5-4.7c-4.5-2.5-8.4-5.8-11.6-9.8c-3.3-4.1-5.8-8.8-7.2-13.9
			c-1.5-5.1-1.9-10.4-1.2-15.6c0.7-5,2.3-9.9,4.8-14.3c2.5-4.4,5.9-8.3,9.9-11.4c4.2-3.3,9-5.7,14.1-7.1c3.5-1,7.1-1.5,10.7-1.5
			c1.7,0,3.4,0.1,5.1,0.3c5.1,0.7,10,2.3,14.5,4.7c4.5,2.5,8.4,5.8,11.6,9.8c3.3,4.1,5.8,8.8,7.2,13.9
			C246,116.4,246.4,121.7,245.7,126.9z M257.1,81.8c-5.3-6.5-11.8-11.9-19.1-16c-7.3-4-15.4-6.7-23.7-7.8
			c-8.7-1.2-17.5-0.5-25.9,1.8c-8.4,2.3-16.3,6.2-23.1,11.7c-6.5,5.2-12,11.5-16.2,18.7c-4.2,7.2-6.9,15.1-8,23.4
			c-2.3,17.3,2.7,34.7,13.7,48.2c5.3,6.4,11.8,11.8,19.1,15.9c7.4,4,15.4,6.6,23.8,7.8c2.8,0.4,5.6,0.6,8.4,0.6
			c5.9,0,11.8-0.8,17.4-2.4c8.4-2.3,16.3-6.2,23.1-11.6c6.5-5.2,12-11.5,16.2-18.7c4.1-7.2,6.8-15.1,7.9-23.2
			c1.2-8.5,0.6-17.2-1.9-25.4C266.6,96.2,262.6,88.5,257.1,81.8z"/>
		<path d="M388.9,98.8c-1.2,4.9-3.3,9.6-6.2,13.8c-3,4.1-6.7,7.7-11,10.4c-9.1,5.8-20.1,7.7-30.7,5.3c-5-1.1-9.8-3.2-14-6.1
			c-4.2-2.9-7.8-6.6-10.6-10.9c-5.8-8.9-7.8-19.8-5.4-30.2c1.2-4.9,3.3-9.6,6.2-13.8c3-4.1,6.7-7.7,11-10.4
			c4.5-2.9,9.5-4.8,14.8-5.7c2.3-0.4,4.7-0.6,7-0.6c3,0,5.9,0.3,8.8,1c5,1.1,9.8,3.2,14,6.1c4.2,2.9,7.8,6.6,10.6,10.9
			c2.9,4.4,4.9,9.4,5.8,14.6l0,0C390.2,88.4,390.1,93.7,388.9,98.8z M404.7,55c-4.6-6.9-10.5-13-17.4-17.7
			c-6.9-4.7-14.6-8.1-22.8-10c-17.2-3.9-35.2-0.8-50.1,8.6c-7,4.5-13.1,10.3-18,17.1c-4.9,6.8-8.3,14.4-10.3,22.5
			c-4,16.9-0.8,34.8,8.8,49.3c4.6,6.9,10.6,12.9,17.5,17.6c6.9,4.7,14.7,8.1,22.9,10c4.8,1.1,9.6,1.7,14.5,1.7c3.8,0,7.7-0.3,11.5-1
			c8.6-1.4,16.8-4.6,24.2-9.3c7-4.5,13.1-10.3,18-17.1c4.8-6.7,8.3-14.3,10.2-22.4c2-8.4,2.3-17,0.7-25.5
			C412.8,70.3,409.5,62.2,404.7,55z"/>
		<path class="st0" d="M388.9,98.8c-1.2,4.9-3.3,9.6-6.2,13.8c-3,4.1-6.7,7.7-11,10.4c-9.1,5.8-20.1,7.7-30.7,5.3
			c-5-1.1-9.8-3.2-14-6.1c-4.2-2.9-7.8-6.6-10.6-10.9c-5.8-8.9-7.8-19.8-5.4-30.2c1.2-4.9,3.3-9.6,6.2-13.8c3-4.1,6.7-7.7,11-10.4
			c4.5-2.9,9.5-4.8,14.8-5.7c2.3-0.4,4.7-0.6,7-0.6c3,0,5.9,0.3,8.8,1c5,1.1,9.8,3.2,14,6.1c4.2,2.9,7.8,6.6,10.6,10.9
			c2.9,4.4,4.9,9.4,5.8,14.6l0,0C390.2,88.4,390.1,93.7,388.9,98.8z M404.7,55c-4.6-6.9-10.5-13-17.4-17.7
			c-6.9-4.7-14.6-8.1-22.8-10c-17.2-3.9-35.2-0.8-50.1,8.6c-7,4.5-13.1,10.3-18,17.1c-4.9,6.8-8.3,14.4-10.3,22.5
			c-4,16.9-0.8,34.8,8.8,49.3c4.6,6.9,10.6,12.9,17.5,17.6c6.9,4.7,14.7,8.1,22.9,10c4.8,1.1,9.6,1.7,14.5,1.7c3.8,0,7.7-0.3,11.5-1
			c8.6-1.4,16.8-4.6,24.2-9.3c7-4.5,13.1-10.3,18-17.1c4.8-6.7,8.3-14.3,10.2-22.4c2-8.4,2.3-17,0.7-25.5
			C412.8,70.3,409.5,62.2,404.7,55z"/>
		<path d="M356.8,80.1c-2.6-1.8-5.8-2.5-9-1.9c-3.1,0.5-5.9,2.2-7.8,4.8c-3.8,5.1-2.7,12.4,2.5,16.2c0.1,0.1,0.3,0.2,0.5,0.3
			c2,1.4,4.3,2.1,6.8,2.1c0.7,0,1.5-0.1,2.2-0.2c3.1-0.5,5.9-2.2,7.8-4.8c1.9-2.5,2.7-5.7,2.1-8.8C361.3,84.7,359.5,81.9,356.8,80.1
			z"/>
		<path class="st1" d="M356.8,80.1c-2.6-1.8-5.8-2.5-9-1.9c-3.1,0.5-5.9,2.2-7.8,4.8c-3.8,5.1-2.7,12.4,2.5,16.2
			c0.1,0.1,0.3,0.2,0.5,0.3c2,1.4,4.3,2.1,6.8,2.1c0.7,0,1.5-0.1,2.2-0.2c3.1-0.5,5.9-2.2,7.8-4.8c1.9-2.5,2.7-5.7,2.1-8.8
			C361.3,84.7,359.5,81.9,356.8,80.1z"/>
		<path d="M536.2,74.4c-3.2-4.1-7.4-7.4-12.2-9.6l0,0c-9.8-4.6-23.3-6.2-40-4.7c-4.8,0.5-9.6,0.6-14.5,0.3c-3.2-0.2-6.5-0.7-9.6-1.6
			c-1.8-0.5-3.5-1.3-5-2.5c-1.1-1.1-1.4-1.8-1.4-2.1c0-1.5,0.3-3,0.8-4.4c0.8-2.4,2.1-4.7,3.8-6.6c2.4-2.7,5.3-4.9,8.5-6.5
			c3.7-2,8.7-3.3,14.8-3.8s11.1-0.2,15,1c3.4,1,6.6,2.5,9.5,4.6c2.1,1.5,3.7,3.4,5,5.6c0.8,1.5,1.4,3,1.8,4.7l0.4,2l24.2-7l-0.5-1.7
			c-2.8-10-9-18.7-17.6-24.5c-5.3-3.5-11.2-6.2-17.3-7.7c-7.5-1.9-15.2-2.4-22.8-1.6c-9.3,0.8-17.3,3-23.9,6.4
			c-6,3-11.5,7.1-16,12.1c-3.9,4.3-6.9,9.4-8.7,14.9c-1.6,4.7-2.3,9.7-1.9,14.7c0.2,1.7,0.5,3.4,1,5.1c0.7,2.4,1.7,4.6,3,6.7
			c1.7,2.6,3.8,5,6.2,6.9c3.1,2.5,6.7,4.5,10.4,5.8c5,1.8,10.1,3,15.4,3.5c7.1,0.7,14.3,0.7,21.4-0.1c10.5-0.9,18.4-0.6,23.4,1.1
			c4.4,1.5,6.8,3.2,7,4.8c0,1.6-0.2,3.2-0.7,4.7c-0.7,2.5-2,4.7-3.7,6.7c-2.4,2.7-5.3,4.9-8.5,6.5c-3.7,2-8.7,3.3-15,3.8
			c-6.1,0.5-11.1,0.2-15-1c-3.4-0.9-6.7-2.5-9.5-4.7c-2.1-1.5-3.8-3.5-5-5.7c-0.8-1.5-1.4-3-1.8-4.7l-0.4-2l-24.2,6.8l0.4,1.7
			c1.3,4.6,3.3,9,6,13c3.1,4.6,7.1,8.6,11.7,11.7c5.3,3.5,11.1,6.1,17.3,7.7c5.1,1.3,10.3,2,15.6,1.9c2.4,0,4.8-0.1,7.3-0.3
			c9.3-0.8,17.3-3,23.9-6.4c6-3,11.5-7.1,16-12.1c3.9-4.4,6.9-9.5,8.7-15c1.6-4.7,2.3-9.7,1.9-14.7C541.1,83,539.2,78.3,536.2,74.4z
			"/>
		<path class="st0" d="M536.2,74.4c-3.2-4.1-7.4-7.4-12.2-9.6l0,0c-9.8-4.6-23.3-6.2-40-4.7c-4.8,0.5-9.6,0.6-14.5,0.3
			c-3.2-0.2-6.5-0.7-9.6-1.6c-1.8-0.5-3.5-1.3-5-2.5c-1.1-1.1-1.4-1.8-1.4-2.1c0-1.5,0.3-3,0.8-4.4c0.8-2.4,2.1-4.7,3.8-6.6
			c2.4-2.7,5.3-4.9,8.5-6.5c3.7-2,8.7-3.3,14.8-3.8s11.1-0.2,15,1c3.4,1,6.6,2.5,9.5,4.6c2.1,1.5,3.7,3.4,5,5.6
			c0.8,1.5,1.4,3,1.8,4.7l0.4,2l24.2-7l-0.5-1.7c-2.8-10-9-18.7-17.6-24.5c-5.3-3.5-11.2-6.2-17.3-7.7c-7.5-1.9-15.2-2.4-22.8-1.6
			c-9.3,0.8-17.3,3-23.9,6.4c-6,3-11.5,7.1-16,12.1c-3.9,4.3-6.9,9.4-8.7,14.9c-1.6,4.7-2.3,9.7-1.9,14.7c0.2,1.7,0.5,3.4,1,5.1
			c0.7,2.4,1.7,4.6,3,6.7c1.7,2.6,3.8,5,6.2,6.9c3.1,2.5,6.7,4.5,10.4,5.8c5,1.8,10.1,3,15.4,3.5c7.1,0.7,14.3,0.7,21.4-0.1
			c10.5-0.9,18.4-0.6,23.4,1.1c4.4,1.5,6.8,3.2,7,4.8c0,1.6-0.2,3.2-0.7,4.7c-0.7,2.5-2,4.7-3.7,6.7c-2.4,2.7-5.3,4.9-8.5,6.5
			c-3.7,2-8.7,3.3-15,3.8c-6.1,0.5-11.1,0.2-15-1c-3.4-0.9-6.7-2.5-9.5-4.7c-2.1-1.5-3.8-3.5-5-5.7c-0.8-1.5-1.4-3-1.8-4.7l-0.4-2
			l-24.2,6.8l0.4,1.7c1.3,4.6,3.3,9,6,13c3.1,4.6,7.1,8.6,11.7,11.7c5.3,3.5,11.1,6.1,17.3,7.7c5.1,1.3,10.3,2,15.6,1.9
			c2.4,0,4.8-0.1,7.3-0.3c9.3-0.8,17.3-3,23.9-6.4c6-3,11.5-7.1,16-12.1c3.9-4.4,6.9-9.5,8.7-15c1.6-4.7,2.3-9.7,1.9-14.7
			C541.1,83,539.2,78.3,536.2,74.4z"/>
		<polygon points="581.4,105.7 581.2,94.2 625.9,93.3 630.3,68.4 580.6,69.4 579.7,26.8 653.6,25.3 653,0.5 554.2,2.5 556.9,131 
			655.8,128.9 655.3,104.2 		"/>
		<polygon class="st0" points="581.4,105.7 581.2,94.2 625.9,93.3 630.3,68.4 580.6,69.4 579.7,26.8 653.6,25.3 653,0.5 554.2,2.5 
			556.9,131 655.8,128.9 655.3,104.2 		"/>
		<path d="M694.9,71.4l36.8,1.7c2.3,0.1,4.6,0.7,6.7,1.7c2.1,1,3.9,2.4,5.5,4c1.5,1.6,2.8,3.5,3.6,5.6c1.7,4.3,1.4,9.2-0.6,13.3
			c-1,2-2.4,3.8-4.1,5.3c-1.7,1.5-3.7,2.7-5.8,3.5c-2.2,0.8-4.5,1.2-6.8,1.1l-36.8-1.7L694.9,71.4z M730.5,39.8
			c-1.6,1.5-3.8,2.3-6,2.2l-28-1.3l0.8-16.6l28,1.3c4.6,0.2,8.1,4,7.9,8.6c0,0,0,0,0,0C733.2,36.2,732.2,38.4,730.5,39.8z
			 M769.1,69.5c-2.5-3.5-5.4-6.5-8.8-9.1c-2.6-2-5.5-3.6-8.6-4.9c2.3-2.2,4.2-4.8,5.7-7.7c2-3.9,3.2-8.2,3.4-12.6
			c0.2-4.1-0.4-8.2-1.9-12c-1.4-3.7-3.6-7.1-6.3-10c-2.7-2.9-5.9-5.3-9.5-7c-3.8-1.8-7.8-2.8-12-3l-58-2.7L667,128.9l66.8,3
			c0.7,0,1.3,0.1,2,0.1c4.7,0,9.5-0.8,13.9-2.5c4.9-1.8,9.4-4.5,13.3-8c3.9-3.4,7-7.6,9.3-12.2c4.3-8.9,5.1-19,2.3-28.5
			C773.4,76.7,771.6,72.9,769.1,69.5z"/>
		<path class="st0" d="M694.9,71.4l36.8,1.7c2.3,0.1,4.6,0.7,6.7,1.7c2.1,1,3.9,2.4,5.5,4c1.5,1.6,2.8,3.5,3.6,5.6
			c1.7,4.3,1.4,9.2-0.6,13.3c-1,2-2.4,3.8-4.1,5.3c-1.7,1.5-3.7,2.7-5.8,3.5c-2.2,0.8-4.5,1.2-6.8,1.1l-36.8-1.7L694.9,71.4z
			 M730.5,39.8c-1.6,1.5-3.8,2.3-6,2.2l-28-1.3l0.8-16.6l28,1.3c4.6,0.2,8.1,4,7.9,8.6c0,0,0,0,0,0
			C733.2,36.2,732.2,38.4,730.5,39.8z M769.1,69.5c-2.5-3.5-5.4-6.5-8.8-9.1c-2.6-2-5.5-3.6-8.6-4.9c2.3-2.2,4.2-4.8,5.7-7.7
			c2-3.9,3.2-8.2,3.4-12.6c0.2-4.1-0.4-8.2-1.9-12c-1.4-3.7-3.6-7.1-6.3-10c-2.7-2.9-5.9-5.3-9.5-7c-3.8-1.8-7.8-2.8-12-3l-58-2.7
			L667,128.9l66.8,3c0.7,0,1.3,0.1,2,0.1c4.7,0,9.5-0.8,13.9-2.5c4.9-1.8,9.4-4.5,13.3-8c3.9-3.4,7-7.6,9.3-12.2
			c4.3-8.9,5.1-19,2.3-28.5C773.4,76.7,771.6,72.9,769.1,69.5z"/>
		<path d="M877.5,16.1L867.3,101c-0.7,6-3.3,10.2-8,12.9s-11.6,3.6-20.2,2.6s-15.1-3.3-19-6.9s-5.3-8.1-4.5-14.2l10.2-85.2
			l-24.9-2.9l-10.2,85.2c-0.7,5.5-0.3,11.1,1.1,16.5c1.4,5.2,3.9,10,7.3,14.2c8,9.7,20.5,15.6,37.1,17.5c3.3,0.4,6.5,0.6,9.8,0.6
			c4.8,0.1,9.6-0.5,14.3-1.7c6.2-1.6,12-4.3,17-8.2c4.4-3.5,8-7.8,10.5-12.8c2.3-4.6,3.8-9.6,4.5-14.7L902.4,19L877.5,16.1z"/>
		<path class="st0" d="M877.5,16.1L867.3,101c-0.7,6-3.3,10.2-8,12.9s-11.6,3.6-20.2,2.6s-15.1-3.3-19-6.9s-5.3-8.1-4.5-14.2
			l10.2-85.2l-24.9-2.9l-10.2,85.2c-0.7,5.5-0.3,11.1,1.1,16.5c1.4,5.2,3.9,10,7.3,14.2c8,9.7,20.5,15.6,37.1,17.5
			c3.3,0.4,6.5,0.6,9.8,0.6c4.8,0.1,9.6-0.5,14.3-1.7c6.2-1.6,12-4.3,17-8.2c4.4-3.5,8-7.8,10.5-12.8c2.3-4.6,3.8-9.6,4.5-14.7
			L902.4,19L877.5,16.1z"/>
		<polygon points="897.8,147.6 920.6,152.1 941.6,91.1 951.7,120.1 963.5,152.9 981.1,134.1 941.1,21.4 		"/>
		<polygon class="st0" points="897.8,147.6 920.6,152.1 941.6,91.1 951.7,120.1 963.5,152.9 981.1,134.1 941.1,21.4 		"/>
		<polygon points="974.6,107.6 983.3,131.9 1009,104.3 1003.7,168.7 1026.6,173.3 1037.1,40.6 		"/>
		<polygon class="st0" points="974.6,107.6 983.3,131.9 1009,104.3 1003.7,168.7 1026.6,173.3 1037.1,40.6 		"/>
		<path d="M1090.9,84.1l26.6,7.8c3.1,0.9,5.9,2.4,8.4,4.4c2.3,2,4.3,4.3,5.8,7c1.5,2.7,2.4,5.6,2.8,8.6c0.4,3.1,0.1,6.3-0.8,9.3
			c-0.9,3-2.4,5.8-4.5,8.2c-2,2.3-4.5,4.3-7.2,5.8c-2.7,1.4-5.7,2.4-8.7,2.7c-3.2,0.3-6.4,0-9.5-0.9l-26.6-7.9L1090.9,84.1z
			 M1159.3,109.2c-0.7-6.2-2.6-12.2-5.6-17.6c-3-5.5-7.1-10.3-11.9-14.3l0,0c-5-4.1-10.9-7.2-17.1-9l-50.6-14.9l-37.6,123l24,7.1
			l16.5-53.9l-2.5,24.6l22,6.5c6.3,1.9,12.8,2.5,19.3,1.7c6.3-0.7,12.4-2.6,17.9-5.5c5.5-2.9,10.5-6.9,14.6-11.7
			C1156.8,135.2,1160.8,122.2,1159.3,109.2L1159.3,109.2z"/>
		<path class="st0" d="M1090.9,84.1l26.6,7.8c3.1,0.9,5.9,2.4,8.4,4.4c2.3,2,4.3,4.3,5.8,7c1.5,2.7,2.4,5.6,2.8,8.6
			c0.4,3.1,0.1,6.3-0.8,9.3c-0.9,3-2.4,5.8-4.5,8.2c-2,2.3-4.5,4.3-7.2,5.8c-2.7,1.4-5.7,2.4-8.7,2.7c-3.2,0.3-6.4,0-9.5-0.9
			l-26.6-7.9L1090.9,84.1z M1159.3,109.2c-0.7-6.2-2.6-12.2-5.6-17.6c-3-5.5-7.1-10.3-11.9-14.3l0,0c-5-4.1-10.9-7.2-17.1-9
			l-50.6-14.9l-37.6,123l24,7.1l16.5-53.9l-2.5,24.6l22,6.5c6.3,1.9,12.8,2.5,19.3,1.7c6.3-0.7,12.4-2.6,17.9-5.5
			c5.5-2.9,10.5-6.9,14.6-11.7C1156.8,135.2,1160.8,122.2,1159.3,109.2L1159.3,109.2z"/>
		<path class="st2" d="M1280.2,151.6c-0.6-5.4-2.3-10.7-4.9-15.5c-3-5.5-7-10.5-11.7-14.7c-5.8-5-12.4-9-19.5-11.7
			c-7.7-3.2-15.9-5-24.2-5.1c-6.8-0.1-13.5,1.1-19.8,3.5c-5.5,2.1-10.5,5.2-14.7,9.3c-3.7,3.5-6.6,7.6-8.6,12.2
			c-0.6,1.6-1.1,3.3-1.5,5c-0.5,2.4-0.6,4.9-0.4,7.3c0.3,3.1,1,6.1,2.3,8.9c1.6,3.6,3.8,7,6.5,9.9c3.6,3.8,7.6,7.2,12,10
			c6,3.8,12.4,7.1,19.1,9.6c9.8,3.9,16.6,7.8,20.2,11.5c3.2,3.3,4.6,5.9,4,7.4c-0.7,1.4-1.7,2.7-2.8,3.9c-1.8,1.9-4,3.3-6.4,4.3
			c-3.4,1.3-7,2-10.6,1.9c-4.2,0.1-9.3-1-15.1-3.4c-5.6-2.3-10-4.8-12.9-7.7c-2.6-2.4-4.7-5.3-6.3-8.4c-1.1-2.3-1.7-4.8-1.7-7.3
			c0-1.7,0.2-3.3,0.6-4.9l0.6-1.9l-24.7-4.9l-0.4,1.7c-1,4.7-1.3,9.5-0.8,14.3c0.6,5.4,2.3,10.7,4.9,15.5c3.1,5.5,7,10.4,11.7,14.6
			c5.8,5,12.4,9,19.5,11.7c8.5,3.4,16.5,5.1,23.8,5.1h0.4c6.8,0.1,13.5-1.1,19.9-3.6c5.5-2.1,10.5-5.3,14.7-9.4
			c3.6-3.5,6.6-7.6,8.6-12.2c1.9-4.6,2.5-9.6,1.7-14.5c-0.9-5.1-3.1-9.9-6.3-14l0,0c-6.6-8.6-17.8-16.1-33.3-22.3
			c-4.5-1.7-8.8-3.8-13-6.3c-2.8-1.6-5.4-3.5-7.8-5.7c-1.4-1.2-2.5-2.7-3.2-4.4c-0.4-0.8-0.5-1.6-0.3-2.5c0.7-1.3,1.7-2.5,2.7-3.5
			c1.8-1.8,4-3.2,6.4-4.1c3.4-1.3,7-1.9,10.6-1.9c4.1-0.1,9.2,1,14.9,3.3s10,4.8,12.9,7.7c2.6,2.4,4.7,5.2,6.3,8.4
			c1.1,2.2,1.7,4.7,1.7,7.2c0,1.7-0.2,3.4-0.6,5l-0.6,1.9l24.8,4.7l0.4-1.7C1280.5,161.1,1280.8,156.3,1280.2,151.6z"/>
		<path d="M1280.2,151.6c-0.6-5.4-2.3-10.7-4.9-15.5c-3-5.5-7-10.5-11.7-14.7c-5.8-5-12.4-9-19.5-11.7c-7.7-3.2-15.9-5-24.2-5.1
			c-6.8-0.1-13.5,1.1-19.8,3.5c-5.5,2.1-10.5,5.2-14.7,9.3c-3.7,3.5-6.6,7.6-8.6,12.2c-0.6,1.6-1.1,3.3-1.5,5
			c-0.5,2.4-0.6,4.9-0.4,7.3c0.3,3.1,1,6.1,2.3,8.9c1.6,3.6,3.8,7,6.5,9.9c3.6,3.8,7.6,7.2,12,10c6,3.8,12.4,7.1,19.1,9.6
			c9.8,3.9,16.6,7.8,20.2,11.5c3.2,3.3,4.6,5.9,4,7.4c-0.7,1.4-1.7,2.7-2.8,3.9c-1.8,1.9-4,3.3-6.4,4.3c-3.4,1.3-7,2-10.6,1.9
			c-4.2,0.1-9.3-1-15.1-3.4c-5.6-2.3-10-4.8-12.9-7.7c-2.6-2.4-4.7-5.3-6.3-8.4c-1.1-2.3-1.7-4.8-1.7-7.3c0-1.7,0.2-3.3,0.6-4.9
			l0.6-1.9l-24.7-4.9l-0.4,1.7c-1,4.7-1.3,9.5-0.8,14.3c0.6,5.4,2.3,10.7,4.9,15.5c3.1,5.5,7,10.4,11.7,14.6c5.8,5,12.4,9,19.5,11.7
			c8.5,3.4,16.5,5.1,23.8,5.1h0.4c6.8,0.1,13.5-1.1,19.9-3.6c5.5-2.1,10.5-5.3,14.7-9.4c3.6-3.5,6.6-7.6,8.6-12.2
			c1.9-4.6,2.5-9.6,1.7-14.5c-0.9-5.1-3.1-9.9-6.3-14l0,0c-6.6-8.6-17.8-16.1-33.3-22.3c-4.5-1.7-8.8-3.8-13-6.3
			c-2.8-1.6-5.4-3.5-7.8-5.7c-1.4-1.2-2.5-2.7-3.2-4.4c-0.4-0.8-0.5-1.6-0.3-2.5c0.7-1.3,1.7-2.5,2.7-3.5c1.8-1.8,4-3.2,6.4-4.1
			c3.4-1.3,7-1.9,10.6-1.9c4.1-0.1,9.2,1,14.9,3.3s10,4.8,12.9,7.7c2.6,2.4,4.7,5.2,6.3,8.4c1.1,2.2,1.7,4.7,1.7,7.2
			c0,1.7-0.2,3.4-0.6,5l-0.6,1.9l24.8,4.7l0.4-1.7C1280.5,161.1,1280.8,156.3,1280.2,151.6z"/>
		<path d="M913.7,251.2c0.2,0.3,0.5,0.6,0.8,0.9c0.4,0.3,0.8,0.4,1.2,0.6c2,1.3,3.9,2.7,4,5.5c0,0.3,0.2,0.6,0.4,0.8
			c1.6,0.6,3.2,1.2,5,1.9c0.2-1.3-0.1-2.6-0.8-3.7C921.9,253.3,918.4,251.4,913.7,251.2z M871.1,368.5c-3.4,1.3-7.2,1.2-10.6-0.1
			c-0.2-0.1-0.5-0.1-0.8,0c-0.6,0.1-1.2,0.2-1.8,0.2c-1-0.1-2-0.4-3-0.6l-0.1,0.9c-1.5-0.5-2.9-0.8-4.2-1.4
			c-7.6-3.3-15.1-6.6-22.7-9.9l-2.2-0.9c-0.1,0.4-0.2,0.7-0.3,1.1c-0.1,0.3-0.1,0.7-0.1,1c-0.3,5.2,0.8,10.1,2,15.1
			c0.4,2,1.5,3.7,3,5.1c2.1,1.9,4.3,3.7,6.7,5.2c0.4,0.3,0.8,0.6,1.2,1c-0.5,0.1-0.9,0.2-1.4,0.3c-0.4,0-0.8,0-1.2,0
			c-1.2,2.1-3.5,2.3-5.9,0.4c0,0.7,0.1,1.5,0.4,2.1c0.6,1.3,1.3,2.5,2.2,3.6c1.6,1.8,3.5,3.5,5.2,5.2s3.1,3.5,3.1,6.1
			c1,0.1,2.1,0.2,3.1,0.2c3.5-0.2,7-0.4,10.4-0.9c2.3-0.4,4.6-1,6.8-1.7c0.9-0.2,1.6-0.8,2-1.6c1.8-3.8,3.6-7.6,5.3-11.5
			c1.8-4,3-8.3,3.6-12.7C872.2,372.6,872,370.4,871.1,368.5z M743.4,274.5v-5.9c0.1-0.2,0.2-0.4,0.2-0.6c0.4-4.1,1.7-8.1,3.7-11.7
			c2-3.7,4.2-7.4,6.3-11.1c1-2,2.7-3.6,4.6-4.7c2.7-1.5,5.1-3.6,6.8-6.1c2.2-3.1,4.9-5.8,7.3-8.7l-1.3,0.3l-0.2-0.2
			c0.3-0.4,0.6-0.8,1-1.2c1.6-1.3,3.2-2.5,4.9-3.7c6.4-4.2,13.3-7.1,21-7.3c0.6,0,1.1-0.1,1.6-0.3c2.5-0.8,4.8-2.1,6.8-3.7
			c2.7-2.1,5.4-4.1,8.1-6.1c0.5-0.4,0.9-0.8,1.2-1.3c1.4-2,2.8-4.1,4-6.2s3-3.8,3-6.4c0-0.9,0.8-1.7,1.1-2.6
			c0.1-0.3,0.2-0.7,0.2-1.1c-0.8,0-0.4-0.5-0.3-0.8c0.3-0.6,0.5-1.3,0.5-2c0-0.6,0.9-1.2,1.3-1.9c0.1-0.2,0.2-0.4,0.2-0.5h-1.1
			l3.4-2.8l-0.5-0.4l1.4-2.4l-0.8-0.3l1.7-1.5l-0.2-0.2l-1.9,0.7c1-1.1,2.5-1.6,3.2-3l-1.1-0.2l3.5-3.2l-1.2-0.1
			c0.5-1,1.1-1.9,1.6-2.9c0.3-0.6,0.3-1.4,0.6-1.9c0.6-1,1.3-2,2-3l-0.8-0.4l1.5-1.2l-0.5-0.5l3.9-2.6l-1.3-0.5l0.5-0.5l-1.5-0.5
			c2.4-0.5,4.7-1,6.1-3.1l-0.8-0.2l1.8-1.1l0.1-1.9l1.5-0.7l-0.5-0.5l1.5-0.8l-1.2-0.4c1.5-1,3-1.9,4.4-2.8c0.1-0.1,0.2-0.3,0.3-0.4
			c0.5-0.7,1-1.3,1.6-1.9c0.8-0.7,1.6-1.3,2.6-2l-2.1-1.1h1.6l-0.3-0.4c0.9-0.2,1.8-0.6,2.6-1c1.3-1,2.7-1.7,4.2-2.3
			c0.2-0.1,0.4-0.3,0.4-0.3c-0.3-0.9,0.6-0.9,0.9-1.3s0.6-1,1-1.4c0.4-0.3,0.8-0.5,1.2-0.7c0.6-0.6,1.3-1.1,2-1.6
			c1.3-0.5,2.6-1,3.9-1.4c0.1-0.3,0.3-0.6,0.6-0.8c0.5-0.1,1-0.3,1.4-0.5c1.2-0.7,2.6-0.6,3.7-1.5c0.7-0.4,1.5-0.7,2.4-0.8
			c2.2-0.7,4.4-1.1,6.6-1.4c2.7-0.1,5.2-1,7.9-1.5h4.7c0.3,0.1,0.7,0.2,1.1,0.3c2.1,0.4,4.3,0.6,6.4,1.2c3.2,0.8,6.4,1.7,9.6,2.8
			c2.3,0.7,4.5,1.6,6.7,2.7c4,1.9,7.3,4.9,10.5,7.9c3.2,3,5.4,6.8,6.5,11c0.5,1.8,0.9,3.6,1.2,5.4c0.6,3.2,1.5,6.3,2.7,9.3
			c1.6,4.7,3.9,9.2,6.9,13.3c4.8,6.2,10.3,11.7,16.5,16.6c2.5,1.8,4.5,4.3,5.7,7.2v2.2c-0.2,0.5-0.4,0.9-0.6,1.4
			c-1.1,2.7-2.5,2.9-4.5,0.7c-0.4-0.4-1-0.8-1.6-0.9c-2.2-0.6-4.5-1.1-6.7-1.8c-5-1.6-9.8-3.9-14.1-6.8c-2.2-1.6-4.4-3.2-6.7-4.6
			c-4.7-2.8-9.5-5.5-14.2-8.2c-0.4-0.2-0.8-0.4-1.3-0.4c-1.2-0.1-2.3-0.3-3.4-0.6c-5.1-1.9-10.5-2.8-16-2.7c-0.2,0-0.4,0-0.5,0
			c-1.3,0.1-2.5,0.2-3.8,0.2s-2.4-0.2-3.7-0.2c-1.5,0-2.9,0.1-4.4,0.2c-2.1,0.2-4.2,0.5-6.3,0.8c-0.9,0.1-1.9,0.7-2.8,0.6
			c-1.1-0.1-1.7,0.5-2.4,1c-0.3,0.2-0.7,0.5-1,0.4c-0.6-0.2-0.9,0.1-1.2,0.5c-0.8,1.1-2.6,1.2-3,2.7c0,0.1-0.2,0.2-0.2,0.1
			c-1-0.3-1.3,0.6-1.8,1.1c-1.3,1.4-2.3,3.1-2.9,5c-0.1,0.5-0.3,1.2-0.7,1.3c-0.7,0.3-0.8,0.8-1,1.4c-0.6,1.4-1.2,2.8-1.8,4.2
			c-0.3,0.5-0.5,1-0.6,1.6c-0.2,2.4-0.2,4.8-0.3,7.2c-0.2,4.2-0.3,8.4-0.6,12.6c-0.1,1.8-0.1,3.6,0.2,5.4c0.1,0.7,0.5,1.2,1.2,1.3
			c7.3,2.5,13.8,6.6,20.2,10.9c2.1,1.4,3.9,3.3,6,4.7c4.1,2.8,8.2,5.4,12.3,8.1c0.3,0.2,0.6,0.3,1,0.4c2.3,0.5,4.5,1.5,6.5,2.7
			c0.4,0.2,0.8,0.3,1.3,0.1c1.8-0.8,3.7-1.1,5.5,0.1c0.2,0.1,0.5,0.2,0.8,0.3l1.3,0.4l0.1-0.3l-1.2-1c0.1,0,0.1-0.1,0.2-0.1
			c0.1,0,0.3,0.1,0.4,0.1c3.7,1.4,6.5,4.3,7.7,8.1c0.7,1.9,1.3,3.7,1.9,5.6h0.4c0.4-0.7,0.7-1.5,1-2.2c1.2-4,2-8.2,2.3-12.4
			c0.1-0.7,0.1-1.4,0.2-2.4c0.8,0.9,1.2,2.1,1.2,3.3c-0.2,2.2-0.4,4.4-0.7,6.6c-0.3,2.3-0.8,4.5-1.1,6.9l2.6,1.1l7.7-9.9
			c0.1,1.9-0.6,3.8-1.8,5.3c-0.4,0.5-0.8,1.1-1,1.6c-0.6,1.2-1,2.5-1.6,3.7s0.8,2.6-0.3,3.9c0,0,0.1,0.3,0.1,0.4
			c0.3,0.6,0.7,0.6,1.4,0.5c3.9-0.9,7.9-1.3,11.9-0.4c2.4,0.5,4.7,1.6,6.5,3.2c-3.4-1.2-7-1.2-10.4,0c0.3,0.8,0.4,1.7,1,2.1
			c1.6,1.2,3.2,2.4,4.9,3.4c0.9,0.6,2,0.9,3,0.7c0.4,0,0.8,0,1.2,0.1c0.5,0,1.1,0,1.6,0c0.5-0.1,0.9-0.2,1.3-0.3
			c-1.5,1.3-3.5,2.1-5.5,2.1c-2.4,0-4.7-0.1-7.1-0.3c-1-0.1-2-0.4-3-0.5c-1.5-0.2-1.8,0-2.1,1.4c0,0.2-0.1,0.3-0.2,0.5l-0.8-0.4
			c-0.8,1.6-0.7,2.2,0.5,3.3c0.5,0.4,0.8,0.9,1.1,1.4c0.1,0.6,0,1.2-0.1,1.7l2,1.2l-0.1,0.2l-2.2-0.9l-0.1,0.3l1.6,0.9l-1.5-0.1
			c0.6,0.7,1,1.3,1.6,1.8c0.5,0.6,1.2,1.1,1.9,1.5c2.4,1.2,4.8,2.2,7.2,3.4c0.8,0.4,1.6,1,2.2,1.6c0.6,0.4,0.8,1.2,0.4,1.8
			c-0.2,0.2-0.4,0.4-0.7,0.5c-0.4,0.2-0.8,0.4-1.3,0.4c-2,0.2-4,0.4-5.9,0.5c-1,0-2-0.4-2.7-1.1c-1.8-1.9-4.3-2.4-6.7-3
			c-0.4,0-0.9,0-1.3,0.1l3.1,3.2l-0.1,0.1l-3.1-2.1c0.1,1,0.7,2,1.7,2.4c0.1,0,0.1,0.2,0.2,0.4l-1.4-0.3l2.2,2.4L940,303l-2.2-1.4
			l-0.1,0.1l1.1,1.4c-0.3,0-0.6-0.1-0.8-0.2c-0.4-0.2-0.9-0.6-1.4-0.1s-0.1,0.9,0.1,1.4l0.8,1.5l-0.3,0.1l-1.1-0.9
			c-2.3,0-2.2,1.7-2.2,3.1c0,4.1,0.2,8.2,0.3,12.3c0.1,1.1,0,2.2-0.1,3.3c-0.4,2.3-1.3,4.5-2.5,6.5c0,0.1,0,0.2,0,0.3l1.1-0.4
			c-1.4,2.3-2.9,4.3-4.4,6.3c-0.1,0.1-0.4,0.4-0.4,0.4c0.8,1.1-0.4,1-0.8,1.2c-1,0.5-2,1-3,1.5l1.2,0.5l-0.2,0.4l-3.1,0.7l1.1,1
			h-3.1l0.1,0.9l-3-0.3l-0.1,0.2l1.5,0.8l-3.5,0.9v0.3l1.8,0.7v0.2h-2.1v0.2l1.4,0.6c-0.2,0.2-0.6,0.4-0.9,0.4
			c-1.1-0.1-2.1-0.2-3.2-0.4c-0.6-0.2-1.2,0.1-1.4,0.6l2.8,1l-0.1,0.4c-1.1-0.1-2.2-0.2-3.3-0.6c-0.9-0.5-2-0.3-2.6,0.5
			c-0.5,0.7-1,1.5-1.4,2.3l-1.4-0.9l-6,4l1.1,0.3c-0.6,0.6-1.3,1.2-2,1.8c-0.9,0.7-2,1.3-2.9,1.9c-0.3,0.2-0.7,0.5-0.7,0.6
			c0.2,0.8-0.5,0.9-0.9,1.2c-2.9,1.7-6,2.9-9.3,3.8c-0.6,2.2-1.3,4.4-1.9,6.6c-1.7,5.7-2.9,11.5-3.6,17.4c-0.2,2.4-0.6,4.8-1,7.1
			c-0.2,1-0.8,2-1.1,3c-0.7,2.4-0.8,4.9-0.2,7.3c0.5,1.8-0.5,3.8-2.2,4.5c-0.7,0.2-1.1,0.9-1,1.6c0,0,0,0.1,0,0.1
			c0.3,1.1-0.3,2.2-1.3,2.7c-2.3,1.1-4.6,2.4-6.7,3.9c-0.6,0.3-1.3,0.6-2,0.7c-1.5,0.2-2.9,0.4-4.4,0.6c-2.1,0.3-4.1,0.4-5.9,1.7
			h-1.4l-2.4-0.6l-0.2-0.9c-1.3-0.2-2.7-0.5-3.9-0.9c-3.3-1.2-6.8-1.9-10.3-2c-6-0.4-12-0.6-17.9-0.9c-0.6-0.1-1.1-0.2-1.6-0.4
			l-0.1-0.5c0.5-0.4,1.1-0.8,1.6-1.1c1.6-0.6,3.3-1.2,5-1.6c2.1-0.6,4-1.8,5.3-3.6c1.1-1.4,1-1.7-0.3-3l-3,0.9
			c0.5-1.5-0.3-1.5-1.2-1.5c-3.2,0-6.3,0.1-9.5,0.1c-3.7,0.1-7.4,0.5-11.1-0.4c0,0.4-0.1,0.7-0.2,1.1c-0.1,0.4-0.3,0.8-0.5,1.1
			c-0.7,0.9-1.9,0.8-2.1-0.3c-0.4-1.7-1.6-2.4-3.1-2.9c-3.1-1.1-6.3-1.7-9.5-1.9c-3.8-0.3-7.6-0.2-11.4-0.4c-0.8,0-1.8,0.2-2-1.1
			c0-0.1-0.4-0.2-0.6-0.3c-1-0.4-1.1-0.9-0.3-1.5c0.8-0.6,1.8-1,2.8-1.3c2.8-0.8,5.7-1.5,8.6-2.2s5.9-1.6,8.9-2.2
			c2.1-0.4,4.2-0.5,6.4-0.7c1.3-0.1,2.6-0.2,3.8-0.5c2.3-0.6,4.6-1.3,6.8-2.1c1.9-0.7,3.8-1.5,5.6-2.4c1.4-0.9,2.1-2.5,1.9-4.2
			c-0.3-2-0.5-4-0.6-6.1c0-4.7,0.3-9.4,0.4-14.1c0-0.5,0-0.9,0-1.4c-0.3-2.5-0.7-5-1-7.4c0-0.8-0.6-1.5-1.3-1.8
			c-3.1-1.4-6.2-2.8-9.2-4.3c-3.8-1.8-7.7-3.4-11.2-5.8c-9.2-6.4-16.9-14.4-24-22.9c-2-2.4-3.9-4.9-6-7.2c-3.2-3.5-6.7-6.8-9.7-10.4
			c-5.2-6.2-8.6-13.8-9.7-21.8C744,277.8,743.7,276.1,743.4,274.5L743.4,274.5z"/>
		<path d="M757.4,287l7.3,4.7c-8.5-0.5-16.1-3.7-23.3-8l-0.4,0.7l10,8.2c-12.5-2.5-21.6-11.5-32.8-17.6l8.2,9.6l-0.8,0.8
			c-8-6.2-15.9-12.8-26.5-14l4.7,3l-19.1-6.8l-5.8-2.1h0c0,0,0,0,0-0.1c0-0.2,0.2-1,0.4-1.7l0.3-0.9c0.7-2.3,1.4-4.6,2.1-6.8
			c1.3-4.1-0.4-7.1-3.6-9.8c3.4-2.6,5.9-5.7,6.1-10.3c-1.3,1.9-2.7,3.7-4.2,5.4c-2.2,2.4-5.5,3.5-8.7,3c-4-0.3-7.8-1.3-11.5-3
			c-1-0.5-2.1-0.7-3.2-0.6c2.9,1.6,5.8,3,8.6,4.7c6,3.7,10.1,8.7,11.1,15.8c0.2,1.1,0.2,2.2-0.1,3.3c-0.5,1.5-1.8,2.3-2.9,0.7
			c-3.5-4.9-8.4-6.2-14-6.4c-6.9-0.2-11.4-4.4-15-9.8l-1.1,1.3c-5.6-6.5-4.2-17.7,1.4-24.1c1-1,2.3-1.6,3.7-1.8
			c15.2-3.4,30.6-4.9,46.1-2.8c0.5,0,1.1,0,1.6-0.1c-1.8-1.9,13.2,4,11.6,2.4c13.1,6.8,63.6,5.2,64.1,2.4c-1.7,21.3,0.1,42.8,8,62.6
			C771.9,290.6,764.7,288.8,757.4,287z"/>
		<path d="M670.3,265.5c-8.3,6.2-20.5,5.1-23.7-1.5c4.5-0.8,9-1.9,13.5-2.5C664,261.2,667.7,262.7,670.3,265.5z"/>
		<path d="M670.5,269.9c-3.1,3.2-8.4,3.6-10.2,1c1.8-0.7,3.7-1.4,5.6-2C667.5,268.5,669.2,268.9,670.5,269.9z"/>
		<path d="M637.3,243.9c2.1,9.2,10.5,11.7,17.2,16.7c-5.3,0.8-10.1,0.9-13.8-2.9S635.9,249.2,637.3,243.9z"/>
		<path d="M670.1,246.4c4.2,0.8,8.4,1.6,9.8,6.2c0.4,1.3-0.6,3-1.1,5.3C675.5,253.5,672.9,250.1,670.1,246.4z"/>
		<path d="M690.7,275.6c-1-0.7-2-1.5-2.9-2.3l0.3-1.7l-0.6,1.4c-0.5-0.5-0.9-1-1.3-1.5l0.5-1.5c-0.1,0.1-0.4,0.7-0.7,1.2
			c-1.4-1.8-2.5-3.7-3.4-5.8l4.8-3.3c1.3,1.7,2.3,3.7,3,5.7c0.4,1.1,0.6,2.3,0.7,3.5C691.3,272.8,691.1,274.2,690.7,275.6z"/>
		<path d="M684.2,272.2c-2.4-1.7-4.2-4-5.3-6.7v-0.1c0-0.2,0.2-1,0.4-1.7l0.3-0.9l2.7-2c1.4,2,2.2,4.3,2.5,6.8
			C684.8,269.2,684.7,270.7,684.2,272.2z"/>
		<path d="M696.7,274.6l-0.7-0.3l0.6,0.6c-0.1,0.9-0.3,1.8-0.6,2.6c-0.8-0.7-1.6-1.4-2.2-2.2l0.4-0.6c-0.1,0-0.3,0.3-0.5,0.4
			c-0.5-0.6-1-1.3-1.5-1.9l1.2-0.4c-0.5,0.1-1,0.1-1.5,0c-0.3-0.4-0.6-0.9-0.8-1.4c-0.5-1-1-2.1-1.4-3.1l0.7-0.3l3.6-1.8
			C696,269.2,696.8,272,696.7,274.6z"/>
		<path d="M711.6,283.4l0.9,1c0,0.7-0.1,1.4-0.2,2.1l-1.3-0.4l1.3,0.8c-0.1,1-0.3,2-0.6,3c-2.9-1.8-5.6-4-7.9-6.6l0.9-0.8l-1.3,0.4
			c-1.2-1.4-2.3-2.8-3.2-4.3l1.8-2.5c-0.7,0.7-1.4,1.5-2,2.3c-1.5-2.3-2.8-4.8-3.9-7.3l8.9-7.4c5,6.7,7.5,13.3,7.5,19.8L711.6,283.4
			z"/>
		<path d="M738.8,307c-3.8-2.2-7.5-4.7-10.9-7.5l1.1-4.3l-2.3,3.3c-1.9-1.6-3.7-3.3-5.4-5.1l1.3-4.4l-2.5,3.1
			c-4.4-4.8-8.2-10-11.5-15.6l14.6-9.8C736.2,280.9,741.4,294.3,738.8,307z"/>
		<path d="M623.5,224.3c-1-1-2.3-1.6-3.7-1.8c-15.2-3.4-30.6-4.9-46.1-2.8c-0.5,0-1.1,0-1.6-0.1c1.8-1.9-13.2,4-11.6,2.4
			c-12.6,6.5-59.7,5.4-63.8,2.7c-0.4-0.4-0.8-0.9-1.1-1.3l1.4,0.3l0.2-0.2c-0.3-0.4-0.6-0.8-1-1.2c-1.6-1.3-3.2-2.5-4.9-3.7
			c-6.4-4.2-13.3-7-21-7.3c-0.6,0-1.1-0.1-1.6-0.3c-2.5-0.8-4.8-2.1-6.8-3.7c-2.7-2.1-5.4-4.1-8.1-6.1c-0.5-0.4-0.9-0.8-1.3-1.3
			c-1.4-2-2.8-4.1-4-6.2s-3-3.8-3-6.4c0-0.9-0.8-1.7-1.1-2.6c-0.1-0.3-0.2-0.7-0.2-1.1c0.9,0,0.4-0.5,0.3-0.8
			c-0.3-0.6-0.5-1.3-0.5-2.1c0-0.6-0.9-1.2-1.4-1.9c-0.1-0.2-0.2-0.4-0.2-0.5h1.1l-3.4-2.8l0.5-0.4L439,173l0.8-0.3l-1.7-1.5
			l0.1-0.2l1.9,0.7c-1-1.1-2.5-1.6-3.1-3l1.1-0.2l-3.5-3.2l1.2-0.1c-0.5-1-1.1-1.9-1.6-2.9c-0.3-0.6-0.3-1.4-0.6-1.9
			c-0.6-1-1.4-2-2-3l0.8-0.4l-1.5-1.2l0.5-0.5l-3.9-2.6l1.3-0.5l-0.5-0.5l1.5-0.5c-2.4-0.5-4.6-1-6.1-3.1l0.8-0.2l-1.8-1.1l-0.1-1.9
			l-1.6-0.7l0.5-0.5l-1.5-0.8l1.2-0.4c-1.5-1-3-1.9-4.4-2.8c-0.1-0.1-0.2-0.3-0.3-0.4c-0.5-0.7-1-1.3-1.6-1.9
			c-0.8-0.7-1.6-1.3-2.6-2l2.1-1.1h-1.6l0.3-0.3c-0.9-0.2-1.8-0.6-2.6-1c-1.3-1-2.7-1.7-4.2-2.3c-0.2-0.1-0.4-0.3-0.4-0.3
			c0.3-0.9-0.5-0.9-0.9-1.3s-0.6-1-1-1.4c-0.4-0.3-0.8-0.5-1.2-0.7c-0.6-0.6-1.3-1.1-2-1.6c-1.3-0.5-2.6-1-3.9-1.4
			c-0.1-0.3-0.3-0.6-0.6-0.8c-0.4-0.2-1-0.2-1.4-0.5c-1.2-0.7-2.6-0.6-3.7-1.5c-0.7-0.4-1.5-0.7-2.4-0.8c-2.2-0.7-4.4-1.1-6.6-1.4
			c-2.7-0.1-5.2-1-7.9-1.5h-4.7c-0.4,0.1-0.7,0.2-1.1,0.3c-2.1,0.4-4.3,0.6-6.4,1.2c-3.2,0.8-6.4,1.7-9.6,2.8
			c-2.3,0.7-4.5,1.6-6.7,2.7c-4,1.9-7.3,4.9-10.5,7.9c-3.2,3-5.4,6.8-6.5,11c-0.5,1.8-0.9,3.6-1.2,5.4c-0.6,3.2-1.5,6.3-2.7,9.3
			c-1.6,4.7-3.9,9.2-6.9,13.2c-4.8,6.2-10.3,11.7-16.5,16.6c-2.5,2-4.6,4.2-5.7,7.2v2.2c0.2,0.5,0.4,0.9,0.6,1.4
			c1.1,2.7,2.5,2.9,4.5,0.7c0.4-0.4,1-0.8,1.6-0.9c2.2-0.6,4.5-1.1,6.7-1.8c5-1.6,9.8-3.9,14.1-6.8c2.2-1.6,4.4-3.2,6.7-4.6
			c4.7-2.8,9.5-5.5,14.2-8.2c0.4-0.2,0.8-0.4,1.3-0.4c1.2-0.1,2.3-0.3,3.4-0.6c5.1-1.9,10.5-2.8,16-2.7c0.2,0,0.4,0,0.5,0
			c1.3,0.1,2.5,0.2,3.8,0.2s2.4-0.2,3.6-0.2c1.5,0,2.9,0.1,4.4,0.2c2.1,0.2,4.2,0.5,6.3,0.8c0.9,0.1,1.9,0.7,2.8,0.6
			c0.9,0,1.8,0.3,2.4,1c0.3,0.2,0.7,0.5,1,0.4c0.6-0.2,0.9,0.1,1.1,0.5c0.8,1.1,2.6,1.2,3,2.7c0,0.1,0.2,0.2,0.2,0.1
			c1-0.3,1.3,0.6,1.8,1.1c1.3,1.4,2.3,3.1,2.9,5c0.1,0.5,0.4,1.2,0.7,1.3c0.7,0.3,0.8,0.8,1,1.4c0.6,1.4,1.2,2.8,1.8,4.2
			c0.3,0.5,0.5,1,0.6,1.6c0.1,2.4,0.2,4.8,0.3,7.2c0.2,4.2,0.3,8.4,0.6,12.6c0.1,1.8,0.1,3.6-0.2,5.4c-0.1,0.7-0.5,1.2-1.2,1.3
			c-7.3,2.5-13.8,6.6-20.2,10.9c-2.1,1.4-3.9,3.3-6,4.7c-4.1,2.8-8.2,5.4-12.3,8.1c-0.3,0.2-0.6,0.3-1,0.4c-2.3,0.5-4.5,1.5-6.5,2.7
			c-0.4,0.2-0.8,0.3-1.3,0.1c-1.9-0.8-3.6-1.1-5.5,0.1c-0.2,0.1-0.5,0.2-0.8,0.3l-1.3,0.4l-0.1-0.3l1.2-1c-0.1-0.1-0.2-0.1-0.2-0.1
			c-0.1,0-0.3,0.1-0.4,0.1c-3.7,1.4-6.5,4.3-7.7,8.1c-0.7,1.9-1.3,3.7-1.9,5.6h-0.4c-0.4-0.7-0.7-1.5-1-2.2c-1.2-4-2-8.2-2.3-12.4
			c-0.1-0.7-0.1-1.4-0.2-2.4c-0.8,0.9-1.2,2.1-1.2,3.3c0.2,2.2,0.4,4.4,0.7,6.6c0.3,2.3,0.8,4.5,1.1,6.9l-2.6,1.2l-7.7-9.9
			c-0.1,1.9,0.6,3.8,1.8,5.3c0.4,0.5,0.7,1.1,1,1.6c0.6,1.2,1,2.5,1.6,3.7s-0.8,2.6,0.3,3.9c0,0-0.1,0.3-0.1,0.4
			c-0.3,0.6-0.7,0.6-1.4,0.5c-3.9-0.9-7.9-1.3-11.9-0.4c-2.4,0.5-4.7,1.6-6.5,3.2c3.4-1.2,7-1.2,10.4,0c-0.3,0.8-0.4,1.7-1,2.1
			c-1.6,1.2-3.2,2.4-4.9,3.4c-0.9,0.6-2,0.9-3,0.7c-0.4,0-0.8,0-1.2,0.1c-0.5,0-1.1,0-1.6,0c-0.5-0.1-0.9-0.2-1.3-0.3
			c1.5,1.3,3.5,2.1,5.5,2.1c2.4,0,4.7-0.1,7.1-0.3c1-0.1,2-0.4,3-0.5c1.5-0.2,1.8,0,2.1,1.4c0,0.1,0.1,0.3,0.2,0.5l0.8-0.4
			c0.8,1.6,0.7,2.2-0.5,3.3c-0.5,0.4-0.8,0.9-1.1,1.4c-0.1,0.6,0,1.2,0.1,1.7l-2,1.2l0.1,0.2l2.2-0.9l0.1,0.3l-1.6,0.9l1.5-0.1
			c-0.6,0.7-1,1.3-1.6,1.8c-0.5,0.6-1.2,1.1-1.9,1.5c-2.4,1.2-4.8,2.2-7.2,3.4c-0.8,0.4-1.6,1-2.2,1.6c-0.6,0.4-0.8,1.2-0.4,1.8
			c0.2,0.2,0.4,0.4,0.7,0.5c0.4,0.2,0.8,0.4,1.3,0.4c2,0.2,4,0.4,5.9,0.5c1,0,2-0.4,2.7-1.1c1.8-1.9,4.3-2.4,6.7-3
			c0.4,0,0.9,0,1.3,0.1l-3.1,3.3l0.1,0.1l3.2-2.2c-0.1,1-0.7,1.9-1.7,2.4c-0.1,0-0.1,0.2-0.2,0.4l1.4-0.3l-2.2,2.4l0.2,0.2l2.2-1.4
			l0.1,0.1l-1.1,1.4c0.3,0,0.6-0.1,0.9-0.2c0.4-0.2,0.9-0.6,1.4-0.1s0.1,0.9-0.1,1.4l-0.8,1.5l0.3,0.1l1.1-0.9
			c2.3,0,2.2,1.7,2.1,3.1c0,4.1-0.2,8.2-0.3,12.3c-0.1,1.1,0,2.2,0.1,3.3c0.4,2.3,1.3,4.5,2.5,6.5c0,0.1,0,0.2,0,0.3l-1.1-0.4
			c1.4,2.3,2.9,4.3,4.4,6.3c0.1,0.1,0.4,0.4,0.4,0.4c-0.8,1.1,0.4,1,0.8,1.2c1,0.5,2,1,3,1.5l-1.2,0.5l0.2,0.4l3.1,0.7l-1.1,1h3.1
			l-0.1,0.9l3-0.3l0.1,0.2l-1.5,0.8l3.5,0.9v0.3l-1.8,0.7l0.1,0.2h2.1v0.2l-1.4,0.6c0.2,0.2,0.6,0.4,0.9,0.4
			c1.1-0.1,2.1-0.2,3.2-0.4c0.6-0.2,1.2,0.1,1.4,0.6l-2.8,1l0.1,0.4c1.1-0.1,2.2-0.2,3.3-0.6c0.9-0.5,2-0.3,2.6,0.5
			c0.5,0.7,1,1.5,1.4,2.3l1.4-0.9l6,4l-1.1,0.3c0.8,0.7,1.3,1.3,2,1.8c0.9,0.7,2,1.3,2.9,1.9c0.3,0.2,0.7,0.5,0.7,0.6
			c-0.2,0.8,0.5,0.9,0.9,1.2c2.9,1.7,6,2.9,9.3,3.8c0.6,2.2,1.3,4.4,1.9,6.6c1.7,5.7,2.9,11.5,3.6,17.4c0.2,2.4,0.6,4.8,1,7.1
			c0.2,1,0.8,2,1.1,3c0.7,2.4,0.8,4.9,0.2,7.3c-0.5,1.8,0.5,3.8,2.2,4.5c0.7,0.2,1.1,0.9,1,1.6c0,0,0,0.1,0,0.1
			c-0.3,1.1,0.3,2.2,1.3,2.7c2.3,1.1,4.6,2.4,6.7,3.9c0.6,0.3,1.3,0.6,2,0.7c1.5,0.2,2.9,0.4,4.4,0.6c2.1,0.3,4.1,0.4,5.9,1.7h1.4
			l2.4-0.6l0.3-0.9c1.3-0.2,2.7-0.5,3.9-0.9c3.3-1.2,6.8-1.9,10.3-2c6-0.4,12-0.6,17.9-0.9c0.6-0.1,1.1-0.2,1.6-0.4l0.1-0.5
			c-0.5-0.4-1.1-0.8-1.6-1.1c-1.6-0.6-3.3-1.2-5-1.6c-2.1-0.6-4-1.8-5.3-3.6c-1.1-1.4-1-1.7,0.4-3l3,0.9c-0.5-1.5,0.4-1.5,1.2-1.5
			c3.1,0,6.3,0.1,9.5,0.1c3.7,0.1,7.4,0.5,11.1-0.4c0.1,0.4,0.1,0.7,0.2,1.1c0.1,0.4,0.3,0.8,0.6,1.1c0.7,0.9,1.9,0.8,2.1-0.3
			c0.4-1.7,1.6-2.4,3.1-2.9c3.1-1.1,6.3-1.8,9.5-2c3.8-0.3,7.6-0.2,11.4-0.4c0.8,0,1.9,0.2,2-1.1c0-0.1,0.4-0.2,0.6-0.3
			c1-0.4,1.1-0.9,0.3-1.5c-0.8-0.6-1.8-1-2.8-1.3c-2.9-0.8-5.7-1.5-8.6-2.2s-5.9-1.6-8.9-2.2c-2.1-0.4-4.2-0.5-6.4-0.7
			c-1.3-0.1-2.6-0.2-3.9-0.5c-2.3-0.6-4.5-1.3-6.8-2.1c-1.9-0.7-3.8-1.5-5.6-2.4c-1.4-0.9-2.1-2.5-1.9-4.2c0.3-2,0.5-4,0.6-6.1
			c0-4.7-0.3-9.4-0.4-14.1c0-0.5,0-0.9,0-1.4c0.3-2.5,0.7-5,1-7.4c0-0.8,0.6-1.5,1.3-1.8c3.1-1.4,6.2-2.8,9.2-4.3
			c3.8-1.8,7.7-3.4,11.2-5.8c9.2-6.4,16.9-14.4,24-22.9c2-2.4,3.9-4.9,6-7.2c3.2-3.5,6.7-6.8,9.7-10.4c2.4-2.9,4.5-6.1,6-9.5
			c10.9-3.3,19.4-11.2,29.7-16.8l-8.2,9.6l0.8,0.8c8-6.2,15.9-12.8,26.5-14l-4.7,3l19.1-6.8l5.8-2.1l0,0c0,0,0,0,0-0.1
			c0-0.2-0.2-1-0.4-1.7l-0.3-0.9c-0.7-2.3-1.4-4.6-2.1-6.8c-1.3-4.1,0.4-7.1,3.6-9.8c-3.4-2.6-5.9-5.7-6.1-10.3
			c1.3,1.9,2.7,3.7,4.2,5.4c2.2,2.4,5.5,3.5,8.7,3c4-0.3,7.8-1.3,11.5-3c1-0.5,2.1-0.7,3.2-0.6c-2.9,1.6-5.8,3-8.6,4.7
			c-6,3.7-10.1,8.7-11.1,15.8c-0.2,1.1-0.2,2.2,0.1,3.3c0.5,1.5,1.8,2.3,2.9,0.7c3.5-4.9,8.4-6.2,14-6.4c6.9-0.2,11.4-4.4,15-9.8
			l1.1,1.3C630.4,241.9,629.1,230.7,623.5,224.3z M353.5,250c-0.4,0.3-0.8,0.4-1.2,0.6c-2,1.3-3.9,2.7-4,5.5c0,0.3-0.2,0.6-0.4,0.8
			c-1.6,0.6-3.1,1.2-5,1.9c-0.1-0.6-0.1-1.2,0-1.8c0.2-0.7,0.5-1.3,0.8-1.9c2.3-3.9,5.9-5.9,10.6-6C354,249.4,353.7,249.7,353.5,250
			z M440.5,371.6c-0.4,2-1.5,3.7-3,5.1c-2.1,1.9-4.3,3.7-6.7,5.2c-0.4,0.3-0.8,0.6-1.2,1c0.5,0.1,0.9,0.2,1.4,0.3c0.4,0,0.8,0,1.2,0
			c1.1,2.1,3.5,2.3,5.9,0.4c0,0.7-0.1,1.5-0.4,2.1c-0.6,1.3-1.3,2.5-2.2,3.6c-1.6,1.8-3.5,3.5-5.2,5.2s-3.1,3.5-3.1,6.1
			c-1,0.1-2.1,0.2-3.1,0.2c-3.5-0.2-7-0.4-10.4-0.9c-2.3-0.4-4.5-0.9-6.8-1.6c-0.9-0.2-1.6-0.8-2-1.6c-1.8-3.8-3.6-7.6-5.3-11.5
			c-1.8-4-3-8.3-3.6-12.7c-0.4-2.1-0.1-4.3,0.7-6.2c3.4,1.3,7.2,1.2,10.6-0.1c0.3-0.1,0.5-0.1,0.8,0c0.6,0.1,1.2,0.2,1.8,0.2
			c1-0.1,2-0.4,3-0.6l0.1,0.9c1.5-0.5,2.9-0.8,4.2-1.4c7.6-3.3,15.1-6.6,22.7-9.9l2.1-0.9c0.1,0.4,0.2,0.7,0.3,1.1
			c0.1,0.3,0.1,0.7,0.1,1C442.8,361.6,441.8,366.6,440.5,371.6L440.5,371.6z"/>
		<path d="M597.6,263.4c8.3,6.2,20.5,5.1,23.7-1.5c-4.5-0.8-9-1.9-13.5-2.5C604,259.1,600.2,260.5,597.6,263.4z"/>
		<path d="M597.5,267.8c3.1,3.2,8.4,3.6,10.2,1c-1.8-0.7-3.7-1.4-5.6-2C600.4,266.3,598.7,266.7,597.5,267.8z"/>
		<path d="M630.6,241.7c-2.1,9.2-10.5,11.7-17.2,16.7c5.3,0.8,10.1,0.9,13.8-2.9S632,247,630.6,241.7z"/>
		<path d="M597.8,244.3c-4.2,0.8-8.4,1.6-9.8,6.2c-0.4,1.3,0.6,3,1.1,5.3L597.8,244.3z"/>
		<path d="M577.2,273.4c1-0.7,2-1.5,2.9-2.3l-0.3-1.7l0.6,1.4c0.5-0.5,0.9-1,1.3-1.5l-0.5-1.5c0.1,0.1,0.4,0.7,0.7,1.2
			c1.4-1.8,2.5-3.7,3.4-5.8l-4.8-3.3c-1.3,1.7-2.3,3.7-3,5.7c-0.4,1.1-0.6,2.3-0.7,3.5C576.7,270.6,576.8,272.1,577.2,273.4z"/>
		<path d="M583.8,270.1c2.4-1.7,4.2-4,5.3-6.7v-0.1c0-0.2-0.2-1-0.4-1.7l-0.3-0.9l-2.7-2c-1.4,2-2.2,4.3-2.5,6.8
			C583.1,267,583.3,268.6,583.8,270.1z"/>
		<path d="M571.2,272.4l0.7-0.3l-0.6,0.6c0.1,0.9,0.3,1.8,0.6,2.6c0.8-0.7,1.6-1.4,2.2-2.2l-0.4-0.6c0.1,0,0.3,0.3,0.5,0.4
			c0.5-0.6,1-1.3,1.5-1.9l-1.2-0.4c0.5,0.1,1,0.1,1.5,0c0.3-0.4,0.6-0.9,0.8-1.4c0.5-1,1-2.1,1.4-3.1l-0.7-0.3l-3.6-1.8
			C572,267,571.1,269.8,571.2,272.4z"/>
		<path d="M556.3,281.3l-0.9,1c0,0.7,0.1,1.4,0.2,2.1l1.4-0.4l-1.3,0.8c0.1,1,0.3,2,0.6,3c2.9-1.8,5.6-4,7.9-6.6l-0.9-0.8l1.3,0.4
			c1.2-1.4,2.3-2.8,3.2-4.3L566,274c0.7,0.7,1.4,1.5,2,2.3c1.5-2.3,2.8-4.8,3.9-7.3l-8.9-7.4c-5,6.7-7.5,13.3-7.5,19.8H556.3z"/>
		<path d="M529.1,304.8c3.9-2.2,7.5-4.7,10.9-7.5l-1.1-4.3l2.3,3.3c1.9-1.6,3.7-3.3,5.4-5.1l-1.3-4.4l2.5,3.1
			c4.4-4.8,8.2-10,11.5-15.6l-14.6-9.8C531.7,278.7,526.5,292.2,529.1,304.8z"/>
		<rect x="592.9" y="365.3" class="st3" width="10.1" height="80.2"/>
		<polygon class="st3" points="686.8,413 684.4,415.1 686.8,417.6 686.8,457.9 676.7,457.9 676.7,377.7 686.8,377.7 		"/>
		<rect x="641.7" y="386.4" class="st3" width="10.1" height="66.4"/>
		<rect x="629" y="408.2" class="st3" width="10.1" height="37.3"/>
		<rect x="592.9" y="365.3" class="st3" width="93.9" height="10.2"/>
		<rect x="592.9" y="464.7" width="93.9" height="10.2"/>
		<rect x="616" y="377.7" class="st3" width="70.8" height="10.2"/>
		<rect x="592.9" y="447.7" class="st3" width="93.9" height="10.2"/>
		<rect x="592.9" y="435.3" class="st3" width="46.2" height="10.2"/>
		<rect x="616" y="408.2" class="st3" width="23.1" height="10.2"/>
		<rect x="649.6" y="410" class="st3" width="28.9" height="10.2"/>
		<path d="M750.9,280.3c0-2.6-2.1-4.7-4.7-4.7c-0.1,0-0.1,0-0.2,0c-1.5-0.1-2.9,0.6-3.8,1.8c-1.2,0.9-1.8,2.2-1.9,3.7
			c-1,2.5-0.1,5.8,2.7,6.8c0.8,0.6,1.8,0.8,2.8,0.8h0.3c0.9,1,2.2,1.5,3.5,1.5C755.8,290.1,756.2,281.4,750.9,280.3z"/>
	</g>
</g>
</svg>
