<?xml version="1.0" encoding="utf-8"?>
<!-- Generator: Adobe Illustrator 23.0.2, SVG Export Plug-In . SVG Version: 6.00 Build 0)  -->
<svg version="1.1" id="Layer_1" xmlns="http://www.w3.org/2000/svg" xmlns:xlink="http://www.w3.org/1999/xlink" x="0px" y="0px"
	 viewBox="0 0 1967.82 1864.98" enable-background="new 0 0 1967.82 1864.98" xml:space="preserve">
<g>
	<defs>
		<rect id="SVGID_1_" x="47.82" y="606.15" width="1920" height="580"/>
	</defs>
	<clipPath id="SVGID_2_">
		<use xlink:href="#SVGID_1_"  overflow="visible"/>
	</clipPath>
	<rect y="1285.98" clip-path="url(#SVGID_2_)" fill="#292C30" width="1919" height="579"/>
	<rect x="48.32" y="606.65" clip-path="url(#SVGID_2_)" fill="none" stroke="#707070" width="1919" height="579"/>
	<path clip-path="url(#SVGID_2_)" fill="#C0996B" d="M497.3,795.73l-58.5,23.37l12.22,19.26l25.85-10.33
		c-0.96,6.04-3.32,11.68-7.02,16.8c-4.3,5.94-10.09,10.4-17.22,13.24c-5.09,2.03-10.34,3.04-15.6,2.89
		c-5.28-0.11-10.32-1.15-14.98-3.09c-4.67-1.94-8.94-4.77-12.7-8.41c-3.76-3.63-6.71-8.02-8.79-13.03
		c-2.08-5.02-3.08-10.18-2.97-15.36c0.11-5.19,1.16-10.14,3.12-14.73c1.96-4.58,4.83-8.77,8.53-12.48
		c3.69-3.69,8.14-6.59,13.23-8.63c5.81-2.32,11.75-3.26,17.59-2.82c5.89,0.45,11.44,2.07,16.5,4.83l1.8,0.98l10.05-23.4l-1.57-0.75
		c-8.12-3.9-16.95-6.16-26.24-6.71c-9.34-0.54-18.67,1.01-27.76,4.65c-8.33,3.33-15.6,8.08-21.61,14.13
		c-5.99,6.03-10.69,12.9-13.96,20.41c-3.28,7.52-5.03,15.63-5.22,24.12c-0.19,8.49,1.43,16.95,4.82,25.14
		c3.39,8.19,8.24,15.33,14.39,21.23c6.14,5.89,13.15,10.47,20.85,13.61c7.68,3.14,15.92,4.84,24.5,5.05
		c0.51,0.01,1.01,0.02,1.51,0.02c8.09,0,16.16-1.59,24.01-4.72c8.34-3.33,15.61-8.09,21.61-14.13c5.99-6.03,10.66-12.89,13.88-20.39
		c3.22-7.49,4.96-15.57,5.18-23.99c0.21-8.45-1.4-16.88-4.79-25.07L497.3,795.73z"/>
	<path clip-path="url(#SVGID_2_)" fill="none" stroke="#000000" d="M497.3,795.73l-58.5,23.37l12.22,19.26l25.85-10.33
		c-0.96,6.04-3.32,11.68-7.02,16.8c-4.3,5.94-10.09,10.4-17.22,13.24c-5.09,2.03-10.34,3.04-15.6,2.89
		c-5.28-0.11-10.32-1.15-14.98-3.09c-4.67-1.94-8.94-4.77-12.7-8.41c-3.76-3.63-6.71-8.02-8.79-13.03
		c-2.08-5.02-3.08-10.18-2.97-15.36c0.11-5.19,1.16-10.14,3.12-14.73c1.96-4.58,4.83-8.77,8.53-12.48
		c3.69-3.69,8.14-6.59,13.23-8.63c5.81-2.32,11.75-3.26,17.59-2.82c5.89,0.45,11.44,2.07,16.5,4.83l1.8,0.98l10.05-23.4l-1.57-0.75
		c-8.12-3.9-16.95-6.16-26.24-6.71c-9.34-0.54-18.67,1.01-27.76,4.65c-8.33,3.33-15.6,8.08-21.61,14.13
		c-5.99,6.03-10.69,12.9-13.96,20.41c-3.28,7.52-5.03,15.63-5.22,24.12c-0.19,8.49,1.43,16.95,4.82,25.14
		c3.39,8.19,8.24,15.33,14.39,21.23c6.14,5.89,13.15,10.47,20.85,13.61c7.68,3.14,15.92,4.84,24.5,5.05
		c0.51,0.01,1.01,0.02,1.51,0.02c8.09,0,16.16-1.59,24.01-4.72c8.34-3.33,15.61-8.09,21.61-14.13c5.99-6.03,10.66-12.89,13.88-20.39
		c3.22-7.49,4.96-15.57,5.18-23.99c0.21-8.45-1.4-16.88-4.79-25.07L497.3,795.73z"/>
	<path clip-path="url(#SVGID_2_)" fill="#FFFFFF" d="M586.22,759.48c-4.3-2.29-8.83-2.82-13.48-1.54
		c-4.65,1.28-8.26,4.03-10.72,8.18c-2.48,4.18-3.05,8.71-1.7,13.47c1.31,4.59,4.16,8.1,8.49,10.41c2.77,1.48,5.64,2.23,8.57,2.23
		c1.62,0,3.26-0.23,4.92-0.68c4.65-1.27,8.26-4.03,10.72-8.18c2.48-4.18,3.08-8.64,1.77-13.23
		C593.43,765.39,590.55,761.8,586.22,759.48z"/>
	<path clip-path="url(#SVGID_2_)" fill="none" stroke="#000000" d="M586.22,759.48c-4.3-2.29-8.83-2.82-13.48-1.54
		c-4.65,1.28-8.26,4.03-10.72,8.18c-2.48,4.18-3.05,8.71-1.7,13.47c1.31,4.59,4.16,8.1,8.49,10.41c2.77,1.48,5.64,2.23,8.57,2.23
		c1.62,0,3.26-0.23,4.92-0.68c4.65-1.27,8.26-4.03,10.72-8.18c2.48-4.18,3.08-8.64,1.77-13.23
		C593.43,765.39,590.55,761.8,586.22,759.48z"/>
	<path clip-path="url(#SVGID_2_)" fill="#C0996B" d="M617.21,779.95c-0.71,5.15-2.32,9.95-4.8,14.29
		c-2.48,4.33-5.81,8.18-9.92,11.45c-4.09,3.26-8.85,5.64-14.15,7.09c-5.29,1.45-10.62,1.83-15.84,1.14
		c-5.24-0.7-10.12-2.3-14.52-4.74c-4.41-2.45-8.33-5.73-11.65-9.77c-3.31-4.03-5.74-8.71-7.23-13.93
		c-1.48-5.22-1.88-10.46-1.17-15.59c0.71-5.15,2.32-9.95,4.8-14.28c2.48-4.33,5.81-8.19,9.92-11.45c4.09-3.25,8.84-5.64,14.14-7.09
		c3.58-0.98,7.17-1.47,10.73-1.47c1.71,0,3.41,0.11,5.1,0.34c5.23,0.7,10.11,2.3,14.52,4.74c4.41,2.44,8.33,5.73,11.65,9.77
		c3.31,4.03,5.74,8.72,7.22,13.93C617.52,769.57,617.91,774.82,617.21,779.95z M628.58,734.8c-5.44-6.6-11.85-11.96-19.07-15.95
		c-7.21-3.99-15.18-6.61-23.68-7.78c-8.52-1.18-17.23-0.56-25.9,1.82c-8.67,2.38-16.44,6.29-23.11,11.62
		c-6.65,5.32-12.11,11.62-16.23,18.72c-4.13,7.1-6.81,14.97-7.98,23.38c-1.18,8.42-0.55,17,1.88,25.52
		c2.42,8.52,6.4,16.16,11.83,22.7c5.42,6.54,11.86,11.87,19.14,15.84c7.27,3.98,15.27,6.59,23.76,7.75c2.8,0.39,5.62,0.58,8.45,0.58
		c5.79,0,11.63-0.8,17.45-2.4c8.67-2.38,16.45-6.29,23.11-11.62c6.65-5.32,12.08-11.61,16.15-18.71c4.06-7.09,6.73-14.91,7.92-23.26
		c1.19-8.37,0.57-16.93-1.85-25.44C638.02,749.06,634.03,741.4,628.58,734.8z"/>
	<path clip-path="url(#SVGID_2_)" fill="none" stroke="#000000" d="M617.21,779.95c-0.71,5.15-2.32,9.95-4.8,14.29
		c-2.48,4.33-5.81,8.18-9.92,11.45c-4.09,3.26-8.85,5.64-14.15,7.09c-5.29,1.45-10.62,1.83-15.84,1.14
		c-5.24-0.7-10.12-2.3-14.52-4.74c-4.41-2.45-8.33-5.73-11.65-9.77c-3.31-4.03-5.74-8.71-7.23-13.93
		c-1.48-5.22-1.88-10.46-1.17-15.59c0.71-5.15,2.32-9.95,4.8-14.28c2.48-4.33,5.81-8.19,9.92-11.45c4.09-3.25,8.84-5.64,14.14-7.09
		c3.58-0.98,7.17-1.47,10.73-1.47c1.71,0,3.41,0.11,5.1,0.34c5.23,0.7,10.11,2.3,14.52,4.74c4.41,2.44,8.33,5.73,11.65,9.77
		c3.31,4.03,5.74,8.72,7.22,13.93C617.52,769.57,617.91,774.82,617.21,779.95z M628.58,734.8c-5.44-6.6-11.85-11.96-19.07-15.95
		c-7.21-3.99-15.18-6.61-23.68-7.78c-8.52-1.18-17.23-0.56-25.9,1.82c-8.67,2.38-16.44,6.29-23.11,11.62
		c-6.65,5.32-12.11,11.62-16.23,18.72c-4.13,7.1-6.81,14.97-7.98,23.38c-1.18,8.42-0.55,17,1.88,25.52
		c2.42,8.52,6.4,16.16,11.83,22.7c5.42,6.54,11.86,11.87,19.14,15.84c7.27,3.98,15.27,6.59,23.76,7.75c2.8,0.39,5.62,0.58,8.45,0.58
		c5.79,0,11.63-0.8,17.45-2.4c8.67-2.38,16.45-6.29,23.11-11.62c6.65-5.32,12.08-11.61,16.15-18.71c4.06-7.09,6.73-14.91,7.92-23.26
		c1.19-8.37,0.57-16.93-1.85-25.44C638.02,749.06,634.03,741.4,628.58,734.8z"/>
	<path clip-path="url(#SVGID_2_)" fill="#C0996B" d="M760.4,751.87c-1.22,5.05-3.32,9.68-6.22,13.75
		c-2.9,4.08-6.61,7.59-11.02,10.43c-4.4,2.84-9.37,4.76-14.79,5.69c-5.42,0.93-10.76,0.8-15.88-0.4c-5.14-1.21-9.85-3.27-13.98-6.13
		c-4.14-2.86-7.71-6.51-10.61-10.85c-2.89-4.33-4.84-9.22-5.79-14.56c-0.95-5.33-0.82-10.59,0.4-15.63
		c1.22-5.05,3.31-9.68,6.21-13.75c2.9-4.07,6.61-7.58,11.02-10.43c4.4-2.85,9.37-4.76,14.79-5.69c2.36-0.41,4.71-0.61,7.03-0.61
		c3,0,5.96,0.34,8.84,1.02c5.14,1.21,9.84,3.27,13.98,6.13c4.14,2.86,7.71,6.52,10.61,10.85c2.89,4.34,4.84,9.23,5.79,14.56v0
		C761.75,741.57,761.61,746.83,760.4,751.87z M776.25,708.04c-4.75-7.08-10.6-13.04-17.38-17.72c-6.78-4.67-14.44-8.04-22.79-10.03
		c-8.36-1.99-17.09-2.22-25.96-0.69c-8.86,1.53-16.99,4.66-24.16,9.33c-7.15,4.65-13.22,10.39-18.03,17.06
		c-4.82,6.67-8.28,14.23-10.29,22.49c-2.01,8.27-2.25,16.87-0.69,25.57c1.56,8.72,4.75,16.7,9.5,23.74
		c4.73,7.02,10.6,12.95,17.45,17.62c6.84,4.66,14.53,8.03,22.86,10.01c4.73,1.13,9.57,1.69,14.5,1.69c3.78,0,7.6-0.33,11.45-0.99
		c8.86-1.53,16.99-4.66,24.17-9.33c7.15-4.65,13.19-10.39,17.95-17.05c4.76-6.65,8.19-14.18,10.21-22.38
		c2.02-8.21,2.26-16.79,0.71-25.49C784.21,723.15,781.01,715.14,776.25,708.04z"/>
	<path clip-path="url(#SVGID_2_)" fill="none" stroke="#000000" d="M760.4,751.87c-1.22,5.05-3.32,9.68-6.22,13.75
		c-2.9,4.08-6.61,7.59-11.02,10.43c-4.4,2.84-9.37,4.76-14.79,5.69c-5.42,0.93-10.76,0.8-15.88-0.4c-5.14-1.21-9.85-3.27-13.98-6.13
		c-4.14-2.86-7.71-6.51-10.61-10.85c-2.89-4.33-4.84-9.22-5.79-14.56c-0.95-5.33-0.82-10.59,0.4-15.63
		c1.22-5.05,3.31-9.68,6.21-13.75c2.9-4.07,6.61-7.58,11.02-10.43c4.4-2.85,9.37-4.76,14.79-5.69c2.36-0.41,4.71-0.61,7.03-0.61
		c3,0,5.96,0.34,8.84,1.02c5.14,1.21,9.84,3.27,13.98,6.13c4.14,2.86,7.71,6.52,10.61,10.85c2.89,4.34,4.84,9.23,5.79,14.56v0
		C761.75,741.57,761.61,746.83,760.4,751.87z M776.25,708.04c-4.75-7.08-10.6-13.04-17.38-17.72c-6.78-4.67-14.44-8.04-22.79-10.03
		c-8.36-1.99-17.09-2.22-25.96-0.69c-8.86,1.53-16.99,4.66-24.16,9.33c-7.15,4.65-13.22,10.39-18.03,17.06
		c-4.82,6.67-8.28,14.23-10.29,22.49c-2.01,8.27-2.25,16.87-0.69,25.57c1.56,8.72,4.75,16.7,9.5,23.74
		c4.73,7.02,10.6,12.95,17.45,17.62c6.84,4.66,14.53,8.03,22.86,10.01c4.73,1.13,9.57,1.69,14.5,1.69c3.78,0,7.6-0.33,11.45-0.99
		c8.86-1.53,16.99-4.66,24.17-9.33c7.15-4.65,13.19-10.39,17.95-17.05c4.76-6.65,8.19-14.18,10.21-22.38
		c2.02-8.21,2.26-16.79,0.71-25.49C784.21,723.15,781.01,715.14,776.25,708.04z"/>
	<path clip-path="url(#SVGID_2_)" fill="#FFFFFF" d="M728.31,733.17c-2.73-1.83-5.75-2.47-8.95-1.92c-3.21,0.55-5.82,2.17-7.75,4.79
		c-1.95,2.65-2.64,5.65-2.05,8.93c0.57,3.17,2.25,5.71,4.99,7.55c2.1,1.4,4.36,2.11,6.76,2.11c0.72,0,1.45-0.06,2.2-0.19
		c3.21-0.55,5.82-2.17,7.75-4.79c1.95-2.65,2.65-5.59,2.08-8.76C732.75,737.61,731.06,735.01,728.31,733.17z"/>
	<path clip-path="url(#SVGID_2_)" fill="none" stroke="#000000" d="M728.31,733.17c-2.73-1.83-5.75-2.47-8.95-1.92
		c-3.21,0.55-5.82,2.17-7.75,4.79c-1.95,2.65-2.64,5.65-2.05,8.93c0.57,3.17,2.25,5.71,4.99,7.55c2.1,1.4,4.36,2.11,6.76,2.11
		c0.72,0,1.45-0.06,2.2-0.19c3.21-0.55,5.82-2.17,7.75-4.79c1.95-2.65,2.65-5.59,2.08-8.76
		C732.75,737.61,731.06,735.01,728.31,733.17z"/>
	<path clip-path="url(#SVGID_2_)" fill="#C0996B" d="M907.73,727.4c-3.01-3.95-7.12-7.18-12.22-9.6l-0.01,0
		c-9.85-4.62-23.32-6.22-40.03-4.73c-5.63,0.5-10.49,0.59-14.46,0.3c-3.94-0.3-7.16-0.84-9.58-1.58c-2.28-0.7-3.95-1.54-4.94-2.48
		c-1.14-1.08-1.36-1.77-1.39-2.09c-0.04-0.44,0.01-1.6,0.78-4.36c0.59-2.08,1.85-4.3,3.77-6.59c1.93-2.32,4.78-4.5,8.48-6.48
		c3.68-1.98,8.68-3.26,14.84-3.81c6.06-0.54,11.13-0.2,15.05,1c3.94,1.21,7.14,2.76,9.52,4.6c2.33,1.82,3.99,3.72,4.94,5.64
		c1.24,2.53,1.66,3.93,1.8,4.67l0.37,1.98l24.19-6.99l-0.44-1.7c-1.12-4.29-3.14-8.64-6-12.95c-2.88-4.32-6.78-8.2-11.6-11.53
		c-4.8-3.31-10.61-5.91-17.27-7.74c-6.67-1.83-14.35-2.38-22.83-1.62c-9.3,0.83-17.34,2.97-23.89,6.37
		c-6.53,3.39-11.92,7.44-15.99,12.05c-4.09,4.62-7.02,9.63-8.71,14.89c-1.69,5.26-2.33,10.21-1.92,14.72
		c0.13,1.36,0.46,3.02,1.02,5.09c0.57,2.11,1.59,4.37,3.04,6.72c1.46,2.37,3.55,4.71,6.2,6.93c2.66,2.24,6.18,4.2,10.44,5.84
		c4.2,1.62,9.38,2.8,15.39,3.49c5.98,0.68,13.18,0.66,21.44-0.08c10.52-0.93,18.37-0.56,23.37,1.1c4.36,1.45,6.85,3.16,7,4.81
		c0.06,0.64-0.01,1.97-0.69,4.69c-0.52,2.12-1.76,4.35-3.66,6.65c-1.93,2.33-4.78,4.52-8.48,6.51c-3.68,1.98-8.73,3.27-15.01,3.83
		c-6.06,0.53-11.12,0.21-15.05-1c-3.94-1.21-7.14-2.78-9.51-4.67c-2.34-1.87-4.01-3.8-4.96-5.73c-1-2.04-1.6-3.6-1.8-4.66
		l-0.36-1.96l-24.21,6.79l0.44,1.71c1.12,4.29,3.14,8.67,6,13.01c2.88,4.38,6.79,8.27,11.61,11.57c4.81,3.29,10.62,5.87,17.26,7.66
		c4.71,1.28,9.93,1.92,15.58,1.92c2.34,0,4.76-0.11,7.25-0.33c9.29-0.83,17.33-2.97,23.89-6.37c6.55-3.4,11.93-7.49,16-12.15
		c4.08-4.68,7.01-9.71,8.7-14.97c1.69-5.25,2.33-10.2,1.92-14.72C912.54,735.99,910.77,731.4,907.73,727.4z"/>
	<path clip-path="url(#SVGID_2_)" fill="none" stroke="#000000" d="M907.73,727.4c-3.01-3.95-7.12-7.18-12.22-9.6l-0.01,0
		c-9.85-4.62-23.32-6.22-40.03-4.73c-5.63,0.5-10.49,0.59-14.46,0.3c-3.94-0.3-7.16-0.84-9.58-1.58c-2.28-0.7-3.95-1.54-4.94-2.48
		c-1.14-1.08-1.36-1.77-1.39-2.09c-0.04-0.44,0.01-1.6,0.78-4.36c0.59-2.08,1.85-4.3,3.77-6.59c1.93-2.32,4.78-4.5,8.48-6.48
		c3.68-1.98,8.68-3.26,14.84-3.81c6.06-0.54,11.13-0.2,15.05,1c3.94,1.21,7.14,2.76,9.52,4.6c2.33,1.82,3.99,3.72,4.94,5.64
		c1.24,2.53,1.66,3.93,1.8,4.67l0.37,1.98l24.19-6.99l-0.44-1.7c-1.12-4.29-3.14-8.64-6-12.95c-2.88-4.32-6.78-8.2-11.6-11.53
		c-4.8-3.31-10.61-5.91-17.27-7.74c-6.67-1.83-14.35-2.38-22.83-1.62c-9.3,0.83-17.34,2.97-23.89,6.37
		c-6.53,3.39-11.92,7.44-15.99,12.05c-4.09,4.62-7.02,9.63-8.71,14.89c-1.69,5.26-2.33,10.21-1.92,14.72
		c0.13,1.36,0.46,3.02,1.02,5.09c0.57,2.11,1.59,4.37,3.04,6.72c1.46,2.37,3.55,4.71,6.2,6.93c2.66,2.24,6.18,4.2,10.44,5.84
		c4.2,1.62,9.38,2.8,15.39,3.49c5.98,0.68,13.18,0.66,21.44-0.08c10.52-0.93,18.37-0.56,23.37,1.1c4.36,1.45,6.85,3.16,7,4.81
		c0.06,0.64-0.01,1.97-0.69,4.69c-0.52,2.12-1.76,4.35-3.66,6.65c-1.93,2.33-4.78,4.52-8.48,6.51c-3.68,1.98-8.73,3.27-15.01,3.83
		c-6.06,0.53-11.12,0.21-15.05-1c-3.94-1.21-7.14-2.78-9.51-4.67c-2.34-1.87-4.01-3.8-4.96-5.73c-1-2.04-1.6-3.6-1.8-4.66
		l-0.36-1.96l-24.21,6.79l0.44,1.71c1.12,4.29,3.14,8.67,6,13.01c2.88,4.38,6.79,8.27,11.61,11.57c4.81,3.29,10.62,5.87,17.26,7.66
		c4.71,1.28,9.93,1.92,15.58,1.92c2.34,0,4.76-0.11,7.25-0.33c9.29-0.83,17.33-2.97,23.89-6.37c6.55-3.4,11.93-7.49,16-12.15
		c4.08-4.68,7.01-9.71,8.7-14.97c1.69-5.25,2.33-10.2,1.92-14.72C912.54,735.99,910.77,731.4,907.73,727.4z"/>
	<polygon clip-path="url(#SVGID_2_)" fill="#C0996B" points="952.93,758.75 952.69,747.22 997.43,746.3 1001.77,721.47 
		952.16,722.48 951.25,679.8 1025.09,678.28 1024.56,653.55 925.71,655.58 928.45,784 1027.3,781.96 1026.77,757.23 	"/>
	<polygon clip-path="url(#SVGID_2_)" fill="none" stroke="#000000" points="952.93,758.75 952.69,747.22 997.43,746.3 
		1001.77,721.47 952.16,722.48 951.25,679.8 1025.09,678.28 1024.56,653.55 925.71,655.58 928.45,784 1027.3,781.96 1026.77,757.23 
			"/>
	<path clip-path="url(#SVGID_2_)" fill="#C0996B" d="M1066.4,724.42l36.83,1.68c2.38,0.11,4.64,0.68,6.71,1.69
		c2.1,1.03,3.95,2.37,5.5,3.98c1.53,1.6,2.73,3.5,3.57,5.64c0.83,2.13,1.2,4.4,1.09,6.74c-0.11,2.35-0.69,4.57-1.72,6.61
		c-1.03,2.05-2.41,3.83-4.08,5.29c-1.69,1.47-3.66,2.64-5.85,3.47c-2.15,0.81-4.47,1.17-6.84,1.07l-36.83-1.68L1066.4,724.42z
		 M1102.04,692.88c-1.69,1.56-3.65,2.26-6.03,2.16l-27.99-1.28l0.79-16.62l27.99,1.28c2.37,0.11,4.27,0.99,5.8,2.7
		c1.55,1.73,2.24,3.66,2.14,5.91C1104.63,689.39,1103.75,691.31,1102.04,692.88z M1140.65,722.51c-2.43-3.43-5.4-6.47-8.84-9.06
		c-2.63-1.97-5.5-3.61-8.56-4.89c2.27-2.21,4.18-4.77,5.7-7.65c2.02-3.82,3.16-8.06,3.37-12.62c0.2-4.2-0.45-8.23-1.93-11.99
		c-1.47-3.72-3.57-7.07-6.24-9.95c-2.68-2.88-5.88-5.25-9.51-7.03c-3.67-1.8-7.7-2.81-11.98-3l-57.96-2.65l-6.07,128.31l66.78,3.05
		c0.66,0.03,1.31,0.04,1.96,0.04c4.84,0,9.51-0.82,13.9-2.45c4.96-1.84,9.42-4.51,13.27-7.96c3.84-3.43,6.97-7.55,9.3-12.24
		c2.34-4.71,3.66-9.91,3.92-15.46c0.22-4.49-0.31-8.88-1.57-13.02C1144.95,729.78,1143.08,725.94,1140.65,722.51z"/>
	<path clip-path="url(#SVGID_2_)" fill="none" stroke="#000000" d="M1066.4,724.42l36.83,1.68c2.38,0.11,4.64,0.68,6.71,1.69
		c2.1,1.03,3.95,2.37,5.5,3.98c1.53,1.6,2.73,3.5,3.57,5.64c0.83,2.13,1.2,4.4,1.09,6.74c-0.11,2.35-0.69,4.57-1.72,6.61
		c-1.03,2.05-2.41,3.83-4.08,5.29c-1.69,1.47-3.66,2.64-5.85,3.47c-2.15,0.81-4.47,1.17-6.84,1.07l-36.83-1.68L1066.4,724.42z
		 M1102.04,692.88c-1.69,1.56-3.65,2.26-6.03,2.16l-27.99-1.28l0.79-16.62l27.99,1.28c2.37,0.11,4.27,0.99,5.8,2.7
		c1.55,1.73,2.24,3.66,2.14,5.91C1104.63,689.39,1103.75,691.31,1102.04,692.88z M1140.65,722.51c-2.43-3.43-5.4-6.47-8.84-9.06
		c-2.63-1.97-5.5-3.61-8.56-4.89c2.27-2.21,4.18-4.77,5.7-7.65c2.02-3.82,3.16-8.06,3.37-12.62c0.2-4.2-0.45-8.23-1.93-11.99
		c-1.47-3.72-3.57-7.07-6.24-9.95c-2.68-2.88-5.88-5.25-9.51-7.03c-3.67-1.8-7.7-2.81-11.98-3l-57.96-2.65l-6.07,128.31l66.78,3.05
		c0.66,0.03,1.31,0.04,1.96,0.04c4.84,0,9.51-0.82,13.9-2.45c4.96-1.84,9.42-4.51,13.27-7.96c3.84-3.43,6.97-7.55,9.3-12.24
		c2.34-4.71,3.66-9.91,3.92-15.46c0.22-4.49-0.31-8.88-1.57-13.02C1144.95,729.78,1143.08,725.94,1140.65,722.51z"/>
	<path clip-path="url(#SVGID_2_)" fill="#C0996B" d="M1249.05,669.16l-10.18,84.83c-0.72,5.99-3.35,10.2-8.04,12.87
		c-4.8,2.73-11.62,3.59-20.24,2.61c-8.74-1.01-15.14-3.34-19.02-6.91c-3.77-3.48-5.25-8.13-4.52-14.23l10.23-85.18l-24.84-2.87
		l-10.22,85.17c-0.69,5.73-0.32,11.28,1.12,16.5c1.43,5.24,3.88,10.02,7.27,14.24c8,9.69,20.47,15.58,37.08,17.5
		c3.43,0.4,6.7,0.6,9.8,0.6c5.27,0,10.04-0.57,14.25-1.72c6.71-1.82,12.43-4.59,16.99-8.23c4.57-3.65,8.11-7.97,10.51-12.83
		c2.39-4.81,3.9-9.74,4.48-14.66l10.19-84.84L1249.05,669.16z"/>
	<path clip-path="url(#SVGID_2_)" fill="none" stroke="#000000" d="M1249.05,669.16l-10.18,84.83c-0.72,5.99-3.35,10.2-8.04,12.87
		c-4.8,2.73-11.62,3.59-20.24,2.61c-8.74-1.01-15.14-3.34-19.02-6.91c-3.77-3.48-5.25-8.13-4.52-14.23l10.23-85.18l-24.84-2.87
		l-10.22,85.17c-0.69,5.73-0.32,11.28,1.12,16.5c1.43,5.24,3.88,10.02,7.27,14.24c8,9.69,20.47,15.58,37.08,17.5
		c3.43,0.4,6.7,0.6,9.8,0.6c5.27,0,10.04-0.57,14.25-1.72c6.71-1.82,12.43-4.59,16.99-8.23c4.57-3.65,8.11-7.97,10.51-12.83
		c2.39-4.81,3.9-9.74,4.48-14.66l10.19-84.84L1249.05,669.16z"/>
	<polygon clip-path="url(#SVGID_2_)" fill="#C0996B" points="1269.28,800.62 1292.12,805.18 1313.1,744.14 1323.25,773.13 
		1335.06,805.93 1352.65,787.09 1312.59,674.47 	"/>
	<polygon clip-path="url(#SVGID_2_)" fill="none" stroke="#000000" points="1269.28,800.62 1292.12,805.18 1313.1,744.14 
		1323.25,773.13 1335.06,805.93 1352.65,787.09 1312.59,674.47 	"/>
	<polygon clip-path="url(#SVGID_2_)" fill="#C0996B" points="1346.14,760.58 1354.85,784.95 1380.52,757.34 1375.23,821.76 
		1398.08,826.32 1408.67,693.67 	"/>
	<polygon clip-path="url(#SVGID_2_)" fill="none" stroke="#000000" points="1346.14,760.58 1354.85,784.95 1380.52,757.34 
		1375.23,821.76 1398.08,826.32 1408.67,693.67 	"/>
	<path clip-path="url(#SVGID_2_)" fill="#C0996B" d="M1462.38,737.13l26.63,7.85c3.16,0.93,5.97,2.43,8.36,4.44
		c2.4,2.02,4.35,4.37,5.79,6.99c1.43,2.6,2.37,5.49,2.77,8.57c0.4,3.05,0.12,6.17-0.83,9.26c-0.95,3.1-2.46,5.85-4.51,8.18
		c-2.07,2.36-4.48,4.29-7.17,5.75c-2.67,1.44-5.6,2.34-8.71,2.68c-3.1,0.34-6.29,0.03-9.47-0.91l-26.63-7.86L1462.38,737.13z
		 M1530.85,762.23c-0.76-6.29-2.65-12.21-5.6-17.62c-2.97-5.41-6.96-10.22-11.88-14.3h0c-4.93-4.1-10.69-7.13-17.1-9.03
		l-50.58-14.93l-37.62,123.02l23.96,7.07l16.48-53.89l-2.53,24.59l22.05,6.5c6.43,1.89,12.94,2.47,19.34,1.72
		c6.39-0.74,12.43-2.59,17.94-5.5c5.5-2.9,10.4-6.83,14.56-11.67c4.18-4.85,7.27-10.5,9.19-16.8
		C1531,774.99,1531.61,768.54,1530.85,762.23z"/>
	<path clip-path="url(#SVGID_2_)" fill="none" stroke="#000000" d="M1462.38,737.13l26.63,7.85c3.16,0.93,5.97,2.43,8.36,4.44
		c2.4,2.02,4.35,4.37,5.79,6.99c1.43,2.6,2.37,5.49,2.77,8.57c0.4,3.05,0.12,6.17-0.83,9.26c-0.95,3.1-2.46,5.85-4.51,8.18
		c-2.07,2.36-4.48,4.29-7.17,5.75c-2.67,1.44-5.6,2.34-8.71,2.68c-3.1,0.34-6.29,0.03-9.47-0.91l-26.63-7.86L1462.38,737.13z
		 M1530.85,762.23c-0.76-6.29-2.65-12.21-5.6-17.62c-2.97-5.41-6.96-10.22-11.88-14.3h0c-4.93-4.1-10.69-7.13-17.1-9.03
		l-50.58-14.93l-37.62,123.02l23.96,7.07l16.48-53.89l-2.53,24.59l22.05,6.5c6.43,1.89,12.94,2.47,19.34,1.72
		c6.39-0.74,12.43-2.59,17.94-5.5c5.5-2.9,10.4-6.83,14.56-11.67c4.18-4.85,7.27-10.5,9.19-16.8
		C1531,774.99,1531.61,768.54,1530.85,762.23z"/>
	<path clip-path="url(#SVGID_2_)" fill="#C0996B" d="M1651.75,804.58c-0.53-5.14-2.18-10.35-4.9-15.48
		c-2.7-5.1-6.64-10.03-11.71-14.68c-5.07-4.63-11.64-8.59-19.51-11.75c-8.64-3.46-16.7-5.13-24.19-5.13
		c-7.39,0.05-14.07,1.22-19.85,3.48c-5.8,2.26-10.75,5.38-14.71,9.29c-3.96,3.9-6.85,8.01-8.59,12.21
		c-0.53,1.27-1.01,2.89-1.48,4.98c-0.48,2.14-0.63,4.61-0.44,7.34c0.19,2.76,0.95,5.78,2.26,8.95c1.31,3.18,3.51,6.52,6.53,9.9
		c2.98,3.34,7.03,6.73,12.03,10.05c4.98,3.3,11.4,6.54,19.08,9.62c9.77,3.92,16.58,7.79,20.24,11.53c3.19,3.26,4.6,5.9,3.97,7.43
		c-0.25,0.6-0.94,1.75-2.81,3.86c-1.46,1.64-3.6,3.07-6.36,4.26c-2.8,1.2-6.36,1.85-10.58,1.95c-4.18,0.07-9.28-1.03-15.12-3.37
		c-5.63-2.26-9.97-4.84-12.9-7.69c-2.94-2.85-5.04-5.69-6.25-8.45c-1.21-2.72-1.79-5.19-1.72-7.33c0.06-2.26,0.26-3.93,0.58-4.96
		l0.6-1.91l-24.68-4.91l-0.4,1.72c-1.01,4.32-1.27,9.12-0.76,14.27c0.51,5.19,2.16,10.41,4.9,15.52c2.73,5.09,6.69,10.01,11.74,14.6
		c5.07,4.62,11.64,8.56,19.52,11.72c8.5,3.41,16.52,5.13,23.83,5.13h0.36c7.41-0.06,14.1-1.26,19.89-3.56
		c5.81-2.31,10.77-5.46,14.73-9.36c3.96-3.9,6.86-8.01,8.6-12.21c1.96-4.71,2.53-9.59,1.7-14.51c-0.82-4.86-2.96-9.59-6.35-14.05
		l0,0c-6.57-8.56-17.79-16.05-33.33-22.28c-5.22-2.09-9.59-4.2-12.98-6.27c-3.36-2.05-5.97-3.98-7.77-5.73
		c-1.7-1.66-2.78-3.15-3.22-4.43c-0.51-1.47-0.38-2.19-0.26-2.48c0.17-0.41,0.76-1.42,2.74-3.52c1.48-1.58,3.65-2.97,6.43-4.15
		c2.79-1.19,6.35-1.83,10.57-1.92c4.06-0.1,9.22,1.03,14.95,3.32c5.63,2.26,9.97,4.84,12.9,7.69c2.94,2.85,5.05,5.67,6.3,8.39
		c1.22,2.67,1.81,5.1,1.74,7.24c-0.06,2.26-0.26,3.93-0.58,4.96l-0.6,1.92l24.76,4.72l0.4-1.71
		C1652.03,814.48,1652.28,809.7,1651.75,804.58z"/>
	<path clip-path="url(#SVGID_2_)" fill="none" stroke="#000000" d="M1651.75,804.58c-0.53-5.14-2.18-10.35-4.9-15.48
		c-2.7-5.1-6.64-10.03-11.71-14.68c-5.07-4.63-11.64-8.59-19.51-11.75c-8.64-3.46-16.7-5.13-24.19-5.13
		c-7.39,0.05-14.07,1.22-19.85,3.48c-5.8,2.26-10.75,5.38-14.71,9.29c-3.96,3.9-6.85,8.01-8.59,12.21
		c-0.53,1.27-1.01,2.89-1.48,4.98c-0.48,2.14-0.63,4.61-0.44,7.34c0.19,2.76,0.95,5.78,2.26,8.95c1.31,3.18,3.51,6.52,6.53,9.9
		c2.98,3.34,7.03,6.73,12.03,10.05c4.98,3.3,11.4,6.54,19.08,9.62c9.77,3.92,16.58,7.79,20.24,11.53c3.19,3.26,4.6,5.9,3.97,7.43
		c-0.25,0.6-0.94,1.75-2.81,3.86c-1.46,1.64-3.6,3.07-6.36,4.26c-2.8,1.2-6.36,1.85-10.58,1.95c-4.18,0.07-9.28-1.03-15.12-3.37
		c-5.63-2.26-9.97-4.84-12.9-7.69c-2.94-2.85-5.04-5.69-6.25-8.45c-1.21-2.72-1.79-5.19-1.72-7.33c0.06-2.26,0.26-3.93,0.58-4.96
		l0.6-1.91l-24.68-4.91l-0.4,1.72c-1.01,4.32-1.27,9.12-0.76,14.27c0.51,5.19,2.16,10.41,4.9,15.52c2.73,5.09,6.69,10.01,11.74,14.6
		c5.07,4.62,11.64,8.56,19.52,11.72c8.5,3.41,16.52,5.13,23.83,5.13h0.36c7.41-0.06,14.1-1.26,19.89-3.56
		c5.81-2.31,10.77-5.46,14.73-9.36c3.96-3.9,6.86-8.01,8.6-12.21c1.96-4.71,2.53-9.59,1.7-14.51c-0.82-4.86-2.96-9.59-6.35-14.05
		l0,0c-6.57-8.56-17.79-16.05-33.33-22.28c-5.22-2.09-9.59-4.2-12.98-6.27c-3.36-2.05-5.97-3.98-7.77-5.73
		c-1.7-1.66-2.78-3.15-3.22-4.43c-0.51-1.47-0.38-2.19-0.26-2.48c0.17-0.41,0.76-1.42,2.74-3.52c1.48-1.58,3.65-2.97,6.43-4.15
		c2.79-1.19,6.35-1.83,10.57-1.92c4.06-0.1,9.22,1.03,14.95,3.32c5.63,2.26,9.97,4.84,12.9,7.69c2.94,2.85,5.05,5.67,6.3,8.39
		c1.22,2.67,1.81,5.1,1.74,7.24c-0.06,2.26-0.26,3.93-0.58,4.96l-0.6,1.92l24.76,4.72l0.4-1.71
		C1652.03,814.48,1652.28,809.7,1651.75,804.58z"/>
	<path clip-path="url(#SVGID_2_)" d="M1285.18,904.26c0.27,0.31,0.49,0.69,0.81,0.93c0.36,0.27,0.83,0.4,1.22,0.64
		c2.06,1.28,3.87,2.74,3.99,5.46c0.01,0.27,0.22,0.68,0.44,0.77c1.56,0.64,3.15,1.22,4.99,1.92c0-0.76,0.1-1.31-0.03-1.8
		c-0.18-0.66-0.47-1.31-0.82-1.9C1293.46,906.36,1289.9,904.44,1285.18,904.26z M1242.62,1021.52c-3.94,1.27-6.73,1.22-10.59-0.11
		c-0.23-0.08-0.51-0.08-0.76-0.05c-0.61,0.06-1.23,0.28-1.82,0.22c-1-0.1-1.98-0.36-3-0.56l-0.13,0.89
		c-1.46-0.48-2.86-0.83-4.17-1.39c-7.57-3.28-15.12-6.62-22.68-9.94c-0.7-0.31-1.4-0.62-2.15-0.95c-0.15,0.47-0.27,0.77-0.33,1.08
		c-0.06,0.32-0.06,0.65-0.08,0.97c-0.26,5.16,0.78,10.15,1.99,15.12c0.49,2,1.44,3.74,2.99,5.07c2.14,1.84,4.2,3.78,6.67,5.2
		c0.36,0.21,0.65,0.55,1.17,1.01c-0.67,0.14-1.02,0.24-1.37,0.27c-0.41,0.03-0.82-0.03-1.2-0.04c-1.15,2.06-3.51,2.25-5.88,0.36
		c0.13,0.84,0.08,1.58,0.37,2.15c0.64,1.27,1.31,2.59,2.24,3.64c1.63,1.84,3.46,3.5,5.2,5.24c1.67,1.67,3.1,3.47,3.11,6.1
		c1.09,0.08,2.1,0.26,3.11,0.2c3.47-0.22,6.96-0.4,10.4-0.85c2.28-0.3,4.51-1.02,6.75-1.61c0.87-0.23,1.55-0.76,1.96-1.64
		c1.75-3.84,3.63-7.62,5.29-11.5c1.73-4.05,3.07-8.25,3.61-12.66C1243.58,1025.65,1243.59,1023.58,1242.62,1021.52z M1114.92,927.53
		v-5.86c0.08-0.21,0.2-0.42,0.22-0.64c0.41-4.17,1.68-8.08,3.67-11.74c2.04-3.74,4.2-7.42,6.34-11.11c1.14-1.96,2.59-3.69,4.62-4.72
		c2.85-1.45,4.96-3.55,6.83-6.14c2.22-3.07,4.87-5.82,7.34-8.71l-1.35,0.34l-0.21-0.24c0.33-0.39,0.6-0.85,1-1.16
		c1.61-1.25,3.21-2.54,4.91-3.66c6.39-4.2,13.25-7.05,21.03-7.26c0.55-0.02,1.11-0.13,1.63-0.31c2.47-0.86,4.75-2.08,6.82-3.69
		c2.68-2.07,5.42-4.07,8.11-6.12c0.47-0.36,0.92-0.8,1.24-1.29c1.37-2.04,2.78-4.07,4.01-6.19c1.17-2.03,2.98-3.74,2.97-6.4
		c0-0.88,0.75-1.74,1.12-2.63c0.13-0.32,0.14-0.7,0.21-1.05c-0.86,0.01-0.37-0.46-0.25-0.76c0.26-0.66,0.52-1.25,0.51-2.05
		c-0.01-0.61,0.88-1.23,1.35-1.86c0.1-0.14,0.14-0.32,0.24-0.54h-1.09l3.42-2.78l-0.52-0.41l1.42-2.37l-0.83-0.33l1.7-1.51
		l-0.15-0.18l-1.87,0.68c0.98-1.14,2.48-1.56,3.15-3.01l-1.13-0.16l3.55-3.21l-1.16-0.09c0.53-0.98,1.09-1.93,1.55-2.92
		c0.28-0.6,0.28-1.34,0.6-1.91c0.6-1.05,1.35-2.01,2.04-3.01l-0.75-0.36l1.45-1.21l-0.54-0.51l3.86-2.58l-1.31-0.49l0.49-0.54
		l-1.5-0.5c2.38-0.51,4.65-1.01,6.14-3.09l-0.77-0.22l1.79-1.11l0.12-1.85l1.51-0.66l-0.5-0.53l1.54-0.76l-1.22-0.36
		c1.53-0.95,2.99-1.86,4.43-2.78c0.14-0.09,0.18-0.31,0.3-0.45c0.53-0.65,1.01-1.36,1.62-1.93c0.75-0.69,1.62-1.25,2.58-1.98
		l-2.1-1.09h1.62l-0.26-0.36c0.85-0.33,1.84-0.5,2.58-1.04c1.31-0.96,2.66-1.75,4.2-2.25c0.16-0.05,0.44-0.24,0.42-0.29
		c-0.29-0.86,0.55-0.89,0.89-1.29c0.37-0.44,0.64-0.98,1.05-1.38c0.32-0.31,0.81-0.45,1.18-0.72c0.68-0.52,1.25-1.24,2-1.59
		c1.24-0.59,2.58-0.97,3.88-1.43c0.09-0.35,0.28-0.67,0.56-0.8c0.45-0.21,1.01-0.2,1.42-0.46c1.16-0.71,2.6-0.64,3.73-1.51
		c0.62-0.48,1.55-0.59,2.35-0.78c2.2-0.52,4.41-1.3,6.63-1.4c2.73-0.12,5.24-1.03,7.87-1.47h4.74c0.35,0.09,0.7,0.2,1.06,0.26
		c2.14,0.38,4.32,0.61,6.42,1.14c3.23,0.81,6.44,1.74,9.61,2.78c2.28,0.75,4.53,1.64,6.71,2.67c4.04,1.9,7.29,4.85,10.49,7.94
		c3.23,3.11,5.38,6.7,6.46,10.98c0.45,1.8,0.87,3.61,1.19,5.43c0.56,3.2,1.57,6.23,2.67,9.3c1.71,4.77,3.84,9.24,6.86,13.29
		c4.71,6.3,10.4,11.64,16.46,16.57c2.46,2,4.57,4.16,5.69,7.17v2.23c-0.19,0.47-0.36,0.95-0.56,1.41c-1.14,2.68-2.51,2.88-4.53,0.73
		c-0.41-0.43-1.02-0.77-1.6-0.93c-2.23-0.63-4.52-1.05-6.71-1.76c-5.01-1.62-9.76-3.81-14.09-6.85c-2.2-1.54-4.36-3.17-6.66-4.55
		c-4.7-2.81-9.48-5.49-14.24-8.2c-0.39-0.22-0.84-0.35-1.29-0.44c-1.13-0.23-2.33-0.25-3.4-0.63c-5.19-1.86-10.5-2.88-16.03-2.68
		c-0.18,0.01-0.36,0.03-0.55,0.04c-1.26,0.06-2.52,0.17-3.78,0.17c-1.22-0.01-2.43-0.2-3.65-0.19c-1.46,0.01-2.93,0.08-4.38,0.22
		c-2.1,0.2-4.19,0.45-6.27,0.75c-0.93,0.13-1.88,0.7-2.76,0.58c-1.12-0.14-1.69,0.46-2.42,0.98c-0.29,0.2-0.72,0.5-0.96,0.41
		c-0.61-0.23-0.89,0.1-1.15,0.47c-0.79,1.13-2.58,1.18-2.97,2.74c-0.02,0.07-0.16,0.16-0.22,0.14c-1.04-0.32-1.34,0.6-1.82,1.13
		c-1.34,1.45-2.3,3.13-2.86,5.04c-0.14,0.47-0.35,1.17-0.7,1.29c-0.73,0.26-0.77,0.83-0.99,1.35c-0.6,1.4-1.21,2.8-1.81,4.21
		c-0.23,0.53-0.59,1.06-0.62,1.61c-0.16,2.41-0.2,4.83-0.31,7.24c-0.18,4.22-0.26,8.45-0.63,12.65c-0.16,1.83-0.06,3.59,0.17,5.39
		c0.09,0.75,0.48,1.1,1.17,1.34c7.32,2.49,13.79,6.6,20.16,10.85c2.12,1.41,3.93,3.27,6.03,4.71c4.05,2.79,8.21,5.43,12.33,8.11
		c0.3,0.2,0.66,0.33,1.01,0.42c2.32,0.55,4.49,1.44,6.52,2.71c0.33,0.21,0.92,0.27,1.27,0.13c1.85-0.78,3.65-1.09,5.47,0.06
		c0.23,0.15,0.51,0.22,0.77,0.31c0.43,0.14,0.85,0.27,1.28,0.4l0.1-0.26l-1.23-1.02c0.13-0.05,0.17-0.09,0.21-0.09
		c0.14,0.03,0.27,0.06,0.4,0.1c3.89,1.43,6.31,4.28,7.69,8.08c0.67,1.85,1.27,3.73,1.9,5.59l0.39,0.04
		c0.33-0.73,0.73-1.45,0.97-2.21c1.29-4.04,1.92-8.2,2.28-12.42c0.06-0.7,0.14-1.4,0.24-2.38c0.86,1.16,1.25,2.16,1.17,3.25
		c-0.17,2.21-0.4,4.43-0.71,6.63c-0.32,2.28-0.75,4.55-1.14,6.89l2.56,1.13c2.59-3.33,5.15-6.62,7.7-9.9
		c0.11,2.04-0.64,3.71-1.77,5.25c-0.38,0.52-0.78,1.04-1.05,1.62c-0.57,1.22-0.95,2.53-1.61,3.69c-0.74,1.29,0.75,2.66-0.3,3.86
		c-0.04,0.05,0.06,0.26,0.12,0.38c0.31,0.6,0.74,0.62,1.38,0.47c3.93-0.86,7.87-1.32,11.86-0.36c2.41,0.58,4.65,1.52,6.54,3.23
		c-3.45-1.19-6.87-1.19-10.41,0.04c0.33,0.78,0.43,1.72,0.95,2.14c1.55,1.25,3.24,2.32,4.91,3.41c0.91,0.59,1.91,0.91,3.04,0.67
		c0.39-0.08,0.82,0.06,1.23,0.08c0.53,0.03,1.07,0.09,1.6,0.04c0.45-0.04,0.9-0.2,1.34-0.31c-1.62,1.33-3.43,2.15-5.49,2.14
		c-2.36-0.01-4.72-0.11-7.07-0.26c-1.01-0.06-2.01-0.35-3.01-0.52c-1.45-0.24-1.8,0.01-2.12,1.45c-0.03,0.13-0.09,0.25-0.16,0.45
		l-0.83-0.35c-0.79,1.63-0.68,2.17,0.51,3.33c0.43,0.42,0.9,0.89,1.07,1.42c0.16,0.51-0.05,1.13-0.1,1.73l2.04,1.16l-0.08,0.2
		l-2.16-0.87l-0.12,0.26l1.56,0.93l-1.51-0.13c0.6,0.68,1.05,1.27,1.57,1.78c0.58,0.56,1.17,1.18,1.88,1.54
		c2.36,1.18,4.79,2.22,7.15,3.39c0.82,0.41,1.57,1,2.24,1.63c0.91,0.83,0.74,1.78-0.35,2.36c-0.4,0.22-0.86,0.4-1.31,0.44
		c-1.98,0.19-3.96,0.35-5.94,0.45c-1.05,0.05-1.98-0.35-2.73-1.14c-1.81-1.9-4.26-2.41-6.67-2.99c-0.28-0.07-0.6,0.02-1.29,0.07
		c1.17,1.22,2.12,2.21,3.08,3.19l-0.1,0.08l-3.18-2.21c0.13,1.39,0.89,1.88,1.68,2.37c0.08,0.05,0.1,0.17,0.21,0.36l-1.44-0.28
		l2.19,2.35l-0.16,0.16l-2.24-1.41l-0.08,0.13l1.13,1.41c-0.39,0.03-0.61-0.12-0.85-0.23c-0.44-0.21-0.88-0.61-1.39-0.13
		c-0.52,0.5-0.12,0.92,0.11,1.36c0.26,0.49,0.52,0.98,0.78,1.48l-0.25,0.15l-1.09-0.85c-2.26,0.04-2.16,1.73-2.15,3.14
		c0.04,4.08,0.22,8.17,0.32,12.25c0.03,1.11,0.04,2.23-0.11,3.32c-0.31,2.34-1.38,4.4-2.46,6.46c-0.05,0.1-0.01,0.24-0.01,0.34
		l1.12-0.38c-1.37,2.25-2.89,4.3-4.41,6.34c-0.11,0.15-0.38,0.37-0.36,0.39c0.79,1.06-0.43,0.98-0.78,1.21
		c-0.83,0.54-1.77,0.91-2.96,1.49l1.21,0.5l-0.23,0.4c-1.01,0.23-2.01,0.47-3.09,0.72l1.06,0.95h-3.11l0.13,0.93l-3.04-0.26
		l-0.06,0.19l1.45,0.78c-1.25,0.33-2.37,0.63-3.48,0.92v0.34l1.76,0.73l-0.06,0.24h-2.07l-0.02,0.2l1.43,0.57
		c-0.3,0.27-0.6,0.39-0.89,0.37c-1.06-0.1-2.13-0.19-3.17-0.4c-0.64-0.13-1.05-0.01-1.43,0.59c0.96,0.33,1.86,0.64,2.76,0.95
		l-0.08,0.36c-1.11-0.17-2.32-0.14-3.31-0.58c-1.13-0.49-1.95-0.18-2.62,0.52c-0.58,0.61-0.9,1.46-1.38,2.31l-1.44-0.92
		c-2.02,1.35-3.96,2.65-5.96,3.99l1.12,0.26c-0.77,0.71-1.33,1.33-1.99,1.81c-0.93,0.68-1.95,1.26-2.92,1.9
		c-0.26,0.17-0.7,0.46-0.67,0.61c0.17,0.81-0.49,0.93-0.92,1.16c-2.94,1.58-5.96,3-9.31,3.76c-0.63,2.2-1.26,4.42-1.89,6.65
		c-1.61,5.72-3.01,11.47-3.6,17.41c-0.24,2.4-0.6,4.79-1.04,7.15c-0.19,1.02-0.81,1.94-1.07,2.96c-0.61,2.4-0.81,4.79-0.22,7.28
		c0.48,1.99-0.52,3.8-2.24,4.47c-0.92,0.36-1.07,0.88-0.94,1.69c0.19,1.2-0.27,2.21-1.33,2.67c-2.39,1.04-4.49,2.54-6.72,3.85
		c-0.59,0.34-1.29,0.56-1.96,0.67c-1.46,0.24-2.94,0.38-4.41,0.57c-2.06,0.26-4.14,0.43-5.93,1.66h-1.4l-2.4-0.59l-0.24-0.84
		c-1.44-0.33-2.76-0.45-3.94-0.93c-3.33-1.33-6.82-1.8-10.33-2.04c-5.97-0.41-11.95-0.59-17.93-0.9c-0.55-0.03-1.09-0.24-1.63-0.37
		l-0.08-0.45c0.54-0.38,1.04-0.89,1.64-1.11c1.64-0.61,3.31-1.22,5.01-1.62c2.28-0.53,3.9-1.9,5.26-3.65
		c1.06-1.36,0.98-1.69-0.36-3.01c-0.9,0.26-1.81,0.51-3.01,0.85c0.5-1.47-0.35-1.52-1.19-1.51c-3.16,0.03-6.32,0.06-9.47,0.15
		c-3.7,0.1-7.4,0.48-11.1-0.36c-0.08,0.4-0.12,0.77-0.24,1.11c-0.14,0.39-0.3,0.79-0.56,1.11c-0.73,0.9-1.9,0.8-2.14-0.29
		c-0.39-1.73-1.64-2.36-3.07-2.88c-3.08-1.11-6.29-1.67-9.52-1.88c-3.8-0.25-7.61-0.22-11.42-0.35c-0.81-0.03-1.85,0.24-2.02-1.09
		c-0.01-0.11-0.36-0.2-0.56-0.28c-0.96-0.4-1.1-0.89-0.26-1.44c0.83-0.55,1.79-0.99,2.75-1.26c2.85-0.8,5.72-1.5,8.59-2.23
		c2.96-0.75,5.9-1.6,8.89-2.2c2.08-0.42,4.24-0.48,6.36-0.71c1.29-0.14,2.61-0.16,3.86-0.48c2.29-0.58,4.55-1.27,6.78-2.06
		c1.92-0.68,3.8-1.47,5.62-2.38c1.35-0.68,2.12-2.8,1.94-4.16c-0.28-2.01-0.61-4.05-0.59-6.07c0.04-4.69,0.28-9.38,0.43-14.07
		c0.01-0.46,0.07-0.94,0-1.39c-0.34-2.48-0.73-4.95-1.05-7.43c-0.11-0.87-0.48-1.4-1.31-1.76c-3.09-1.38-6.16-2.81-9.23-4.25
		c-3.81-1.8-7.72-3.4-11.22-5.83c-9.2-6.4-16.9-14.36-24.03-22.91c-1.99-2.39-3.88-4.86-5.96-7.16c-3.18-3.51-6.67-6.75-9.71-10.37
		c-5.31-6.32-8.51-13.65-9.7-21.84C1115.47,930.81,1115.18,929.17,1114.92,927.53z"/>
	<path clip-path="url(#SVGID_2_)" d="M1128.95,940.06c2.45,1.57,4.9,3.13,7.34,4.7c-8.51-0.49-16.09-3.67-23.27-8.05
		c-0.15,0.24-0.29,0.47-0.44,0.71c3.32,2.73,6.65,5.46,9.97,8.19c-12.55-2.52-21.57-11.46-32.85-17.63
		c3.02,3.54,5.62,6.59,8.23,9.64c-0.26,0.27-0.51,0.54-0.77,0.82c-8.03-6.19-15.86-12.78-26.55-14.03c1.32,0.85,2.64,1.69,4.67,2.99
		c-6.64-2.35-12.8-4.53-19.09-6.76c-1.92-0.68-3.85-1.37-5.81-2.06c-0.02-0.01-0.03-0.01-0.05-0.02c0,0,0.01-0.02,0.01-0.06
		c0.04-0.21,0.16-0.96,0.36-1.68c0.09-0.3,0.18-0.6,0.27-0.9c0.67-2.28,1.37-4.55,2.11-6.81c1.35-4.09-0.42-7.09-3.62-9.79
		c3.4-2.65,5.87-5.71,6.09-10.25c-1.48,1.95-2.64,3.85-4.17,5.41c-2.35,2.39-5.07,3.39-8.72,3c-4.04-0.44-7.83-1.2-11.45-2.97
		c-0.96-0.47-2.04-0.67-3.24-0.55c2.87,1.56,5.82,2.98,8.6,4.69c5.95,3.67,10.08,8.7,11.12,15.84c0.16,1.08,0.27,2.29-0.06,3.29
		c-0.5,1.51-1.77,2.34-2.94,0.71c-3.48-4.85-8.4-6.22-13.99-6.38c-6.91-0.21-11.36-4.42-15-9.77c-0.46,0.52-0.79,0.9-1.13,1.29
		c-5.56-6.54-4.18-17.71,1.39-24.14c0.84-0.97,2.4-1.52,3.73-1.82c15.22-3.37,30.58-4.87,46.14-2.79c0.4,0.06,0.82-0.03,1.58-0.08
		c-1.82-1.85,13.16,4.02,11.56,2.38c13.07,6.8,63.62,5.24,64.13,2.41c-1.66,21.25,0.06,42.77,8.04,62.63
		C1143.41,943.62,1136.24,941.84,1128.95,940.06z"/>
	<path clip-path="url(#SVGID_2_)" d="M1041.83,918.59c-8.33,6.18-20.46,5.11-23.7-1.47c4.45-0.83,8.97-1.95,13.55-2.46
		C1035.54,914.23,1038.96,915.69,1041.83,918.59z"/>
	<path clip-path="url(#SVGID_2_)" d="M1042,922.95c-3.13,3.2-8.36,3.56-10.19,0.98c1.84-0.66,3.68-1.43,5.6-1.96
		C1039.03,921.52,1040.58,921.92,1042,922.95z"/>
	<path clip-path="url(#SVGID_2_)" d="M1008.82,896.9c2.08,9.18,10.52,11.66,17.17,16.72c-5.27,0.81-10.06,0.87-13.83-2.94
		C1008.44,906.91,1007.42,902.22,1008.82,896.9z"/>
	<path clip-path="url(#SVGID_2_)" d="M1041.61,899.46c4.24,0.82,8.37,1.59,9.79,6.19c0.4,1.3-0.56,3.01-1.05,5.26
		C1047.02,906.55,1044.42,903.14,1041.61,899.46z"/>
	<path clip-path="url(#SVGID_2_)" d="M1062.25,928.64c-1.04-0.69-1.99-1.47-2.86-2.33l0.3-1.68l-0.58,1.41
		c-0.47-0.48-0.91-0.98-1.34-1.51l0.45-1.45c-0.06,0.11-0.38,0.72-0.67,1.18c-1.35-1.72-2.46-3.67-3.38-5.81l4.8-3.26
		c1.4,1.95,2.42,3.86,3.04,5.72c0.39,1.18,0.63,2.35,0.7,3.49C1062.81,925.84,1062.66,927.26,1062.25,928.64z"/>
	<path clip-path="url(#SVGID_2_)" d="M1055.68,925.27c-2.35-1.62-4.07-3.9-5.3-6.69c-0.02-0.03-0.03-0.05-0.04-0.08
		c0.04-0.21,0.16-0.96,0.36-1.68c0.09-0.3,0.18-0.6,0.27-0.9l2.69-2.05c1.48,2.3,2.32,4.56,2.53,6.77
		C1056.33,922.21,1056.16,923.75,1055.68,925.27z"/>
	<path clip-path="url(#SVGID_2_)" d="M1068.23,927.6l-0.65-0.34l0.63,0.63c-0.07,0.89-0.28,1.76-0.6,2.59
		c-0.82-0.67-1.57-1.39-2.24-2.17l0.38-0.59c-0.07,0.05-0.33,0.26-0.52,0.44c-0.53-0.62-1.01-1.26-1.45-1.94l1.21-0.44
		c0,0-1.27,0.15-1.48,0.01c-0.3-0.45-0.56-0.91-0.8-1.39c-0.53-1-0.98-2.05-1.37-3.15l0.67-0.34l3.58-1.79
		C1067.5,922.2,1068.37,925.03,1068.23,927.6z"/>
	<path clip-path="url(#SVGID_2_)" d="M1083.1,936.46l0.88,1.02c-0.03,0.7-0.08,1.41-0.16,2.11l-1.32-0.41l1.26,0.83
		c-0.13,1.02-0.32,2.03-0.58,3.05c-2.98-1.81-5.6-4.02-7.9-6.6l0.88-0.77l-1.25,0.35c-1.16-1.34-2.24-2.78-3.23-4.3l1.79-2.54
		c-0.25,0.25-1.27,1.33-1.98,2.25c-1.47-2.26-2.76-4.7-3.91-7.33l8.93-7.43c4.96,6.66,7.45,13.24,7.48,19.77H1083.1z"/>
	<path clip-path="url(#SVGID_2_)" d="M1110.37,960.03c-3.92-2.23-7.55-4.75-10.91-7.53l1.12-4.31l-2.29,3.31
		c-1.89-1.61-3.68-3.32-5.38-5.11l1.25-4.39l-2.46,3.1c-4.35-4.7-8.15-9.94-11.48-15.63l14.59-9.8
		C1107.75,933.93,1112.94,947.39,1110.37,960.03z"/>
	<path clip-path="url(#SVGID_2_)" d="M995.01,877.33c-0.84-0.97-2.4-1.52-3.73-1.82c-15.22-3.37-30.58-4.87-46.14-2.79
		c-0.4,0.06-0.82-0.03-1.58-0.08c1.82-1.85-13.16,4.02-11.56,2.38c-12.56,6.53-59.72,5.35-63.84,2.73c-0.38-0.43-0.76-0.86-1.13-1.3
		l1.35,0.34l0.21-0.24c-0.33-0.39-0.6-0.85-1-1.16c-1.61-1.25-3.21-2.54-4.91-3.66c-6.39-4.2-13.25-7.05-21.03-7.26
		c-0.55-0.02-1.11-0.13-1.63-0.31c-2.47-0.86-4.74-2.08-6.82-3.69c-2.68-2.07-5.42-4.07-8.11-6.12c-0.47-0.36-0.91-0.8-1.24-1.29
		c-1.37-2.04-2.78-4.07-4.01-6.19c-1.17-2.03-2.98-3.74-2.97-6.4c0-0.88-0.75-1.74-1.12-2.63c-0.13-0.32-0.14-0.7-0.21-1.05
		c0.86,0.01,0.37-0.46,0.25-0.76c-0.26-0.66-0.52-1.25-0.51-2.05c0.01-0.61-0.88-1.23-1.35-1.86c-0.1-0.14-0.14-0.32-0.24-0.54h1.09
		l-3.42-2.78l0.52-0.42l-1.42-2.37l0.83-0.33l-1.7-1.51l0.15-0.18l1.87,0.68c-0.98-1.14-2.48-1.56-3.15-3.01l1.13-0.16l-3.55-3.21
		l1.16-0.08c-0.53-0.98-1.09-1.93-1.55-2.92c-0.28-0.6-0.28-1.34-0.6-1.91c-0.6-1.05-1.35-2.01-2.04-3.01l0.75-0.36l-1.45-1.21
		l0.54-0.51l-3.86-2.58l1.31-0.49l-0.48-0.54l1.5-0.5c-2.38-0.51-4.65-1.01-6.14-3.09l0.77-0.22l-1.79-1.11l-0.12-1.85l-1.52-0.67
		l0.5-0.53l-1.54-0.76l1.22-0.36c-1.53-0.95-2.99-1.86-4.43-2.78c-0.14-0.09-0.19-0.31-0.3-0.45c-0.53-0.65-1.01-1.36-1.62-1.93
		c-0.75-0.69-1.62-1.26-2.58-1.98l2.1-1.09h-1.62l0.26-0.36c-0.85-0.33-1.84-0.5-2.57-1.04c-1.31-0.96-2.67-1.75-4.2-2.25
		c-0.16-0.05-0.44-0.24-0.42-0.29c0.29-0.86-0.55-0.89-0.89-1.29c-0.37-0.44-0.64-0.98-1.05-1.38c-0.32-0.31-0.81-0.45-1.18-0.72
		c-0.68-0.52-1.25-1.24-2-1.59c-1.24-0.59-2.58-0.97-3.88-1.43c-0.09-0.35-0.28-0.67-0.57-0.8c-0.44-0.21-1.01-0.2-1.42-0.46
		c-1.16-0.71-2.6-0.64-3.73-1.51c-0.62-0.48-1.55-0.59-2.35-0.78c-2.2-0.52-4.41-1.3-6.63-1.4c-2.73-0.12-5.24-1.03-7.87-1.47h-4.74
		c-0.35,0.09-0.7,0.2-1.06,0.26c-2.14,0.38-4.32,0.61-6.42,1.14c-3.23,0.81-6.44,1.74-9.61,2.78c-2.28,0.75-4.53,1.64-6.71,2.67
		c-4.04,1.9-7.29,4.85-10.49,7.94c-3.23,3.11-5.38,6.7-6.46,10.98c-0.45,1.8-0.87,3.61-1.19,5.43c-0.56,3.2-1.57,6.23-2.67,9.3
		c-1.71,4.77-3.84,9.24-6.86,13.29c-4.71,6.3-10.4,11.64-16.46,16.57c-2.46,2-4.57,4.16-5.69,7.17v2.23
		c0.19,0.47,0.36,0.95,0.56,1.41c1.14,2.68,2.51,2.88,4.53,0.73c0.41-0.43,1.02-0.77,1.6-0.93c2.23-0.63,4.52-1.05,6.71-1.76
		c5.01-1.62,9.76-3.81,14.09-6.85c2.2-1.55,4.36-3.17,6.66-4.55c4.7-2.81,9.48-5.49,14.23-8.2c0.39-0.22,0.85-0.35,1.29-0.44
		c1.13-0.23,2.33-0.25,3.4-0.63c5.19-1.86,10.5-2.88,16.03-2.68c0.18,0.01,0.36,0.03,0.55,0.04c1.26,0.06,2.52,0.17,3.78,0.17
		c1.22-0.01,2.43-0.2,3.65-0.19c1.46,0.01,2.93,0.08,4.38,0.22c2.1,0.2,4.19,0.45,6.27,0.75c0.93,0.13,1.88,0.69,2.76,0.58
		c1.12-0.14,1.69,0.46,2.42,0.98c0.29,0.2,0.72,0.5,0.96,0.41c0.61-0.23,0.89,0.1,1.15,0.47c0.79,1.13,2.58,1.18,2.97,2.74
		c0.02,0.07,0.16,0.16,0.22,0.14c1.04-0.32,1.34,0.6,1.82,1.12c1.34,1.45,2.3,3.13,2.86,5.04c0.14,0.47,0.35,1.17,0.7,1.29
		c0.73,0.26,0.77,0.83,0.99,1.35c0.6,1.41,1.21,2.8,1.81,4.21c0.23,0.53,0.59,1.06,0.62,1.61c0.16,2.41,0.2,4.83,0.31,7.24
		c0.18,4.22,0.26,8.45,0.63,12.65c0.16,1.84,0.06,3.6-0.17,5.39c-0.09,0.75-0.48,1.1-1.17,1.34c-7.32,2.49-13.79,6.59-20.16,10.85
		c-2.12,1.42-3.93,3.27-6.03,4.72c-4.05,2.79-8.21,5.42-12.33,8.11c-0.3,0.2-0.66,0.33-1.01,0.42c-2.32,0.55-4.49,1.44-6.52,2.71
		c-0.33,0.21-0.92,0.27-1.27,0.13c-1.85-0.78-3.65-1.09-5.47,0.06c-0.23,0.15-0.51,0.22-0.77,0.31c-0.42,0.14-0.85,0.27-1.28,0.4
		l-0.1-0.25l1.23-1.02c-0.13-0.05-0.17-0.09-0.21-0.09c-0.14,0.03-0.27,0.06-0.4,0.1c-3.89,1.43-6.31,4.28-7.69,8.08
		c-0.67,1.85-1.27,3.73-1.9,5.59l-0.39,0.04c-0.33-0.74-0.73-1.45-0.97-2.21c-1.29-4.04-1.92-8.2-2.28-12.42
		c-0.06-0.7-0.14-1.4-0.24-2.38c-0.86,1.16-1.25,2.17-1.17,3.25c0.17,2.21,0.4,4.43,0.71,6.63c0.32,2.28,0.75,4.55,1.14,6.89
		l-2.56,1.13c-2.59-3.33-5.15-6.62-7.7-9.9c-0.11,2.04,0.64,3.71,1.77,5.25c0.38,0.52,0.78,1.04,1.05,1.62
		c0.57,1.22,0.95,2.53,1.61,3.69c0.73,1.28-0.75,2.65,0.3,3.86c0.05,0.05-0.06,0.26-0.12,0.38c-0.31,0.61-0.74,0.62-1.38,0.47
		c-3.93-0.86-7.87-1.32-11.86-0.36c-2.41,0.59-4.65,1.52-6.54,3.23c3.45-1.19,6.87-1.19,10.41,0.04c-0.33,0.78-0.43,1.72-0.95,2.14
		c-1.55,1.25-3.24,2.32-4.91,3.41c-0.91,0.6-1.91,0.91-3.04,0.67c-0.39-0.08-0.82,0.06-1.23,0.08c-0.53,0.03-1.07,0.08-1.6,0.04
		c-0.45-0.04-0.9-0.21-1.34-0.32c1.62,1.33,3.43,2.15,5.49,2.14c2.36-0.01,4.72-0.11,7.07-0.25c1.01-0.06,2.01-0.35,3.01-0.52
		c1.45-0.24,1.8,0.01,2.12,1.45c0.03,0.13,0.09,0.25,0.16,0.45l0.83-0.35c0.79,1.63,0.68,2.17-0.51,3.33
		c-0.43,0.42-0.9,0.89-1.08,1.42c-0.16,0.51,0.05,1.13,0.1,1.73l-2.04,1.16l0.09,0.2l2.16-0.87l0.12,0.26l-1.56,0.93l1.51-0.13
		c-0.6,0.68-1.05,1.27-1.57,1.78c-0.58,0.56-1.17,1.18-1.88,1.54c-2.36,1.18-4.79,2.22-7.15,3.39c-0.82,0.41-1.57,1-2.24,1.63
		c-0.91,0.83-0.74,1.78,0.35,2.36c0.4,0.22,0.86,0.4,1.31,0.44c1.98,0.19,3.96,0.35,5.94,0.45c1.05,0.05,1.98-0.35,2.74-1.14
		c1.81-1.9,4.26-2.42,6.67-2.99c0.28-0.07,0.6,0.02,1.29,0.07c-1.17,1.22-2.12,2.21-3.08,3.19l0.1,0.08l3.18-2.21
		c-0.13,1.39-0.89,1.88-1.68,2.37c-0.08,0.05-0.1,0.17-0.21,0.36l1.44-0.28l-2.19,2.34l0.16,0.16l2.24-1.41l0.08,0.13l-1.13,1.41
		c0.39,0.02,0.61-0.12,0.85-0.23c0.44-0.21,0.88-0.61,1.39-0.13c0.52,0.5,0.12,0.92-0.11,1.36c-0.26,0.49-0.52,0.98-0.78,1.48
		l0.25,0.15l1.09-0.85c2.26,0.04,2.16,1.73,2.15,3.14c-0.04,4.08-0.23,8.17-0.32,12.25c-0.03,1.11-0.04,2.23,0.11,3.32
		c0.31,2.33,1.38,4.4,2.46,6.46c0.05,0.1,0.01,0.24,0.01,0.34l-1.12-0.38c1.37,2.25,2.89,4.3,4.41,6.34
		c0.11,0.15,0.38,0.37,0.36,0.39c-0.79,1.06,0.43,0.98,0.78,1.21c0.83,0.54,1.77,0.91,2.96,1.49l-1.21,0.5l0.23,0.4
		c1.01,0.23,2.02,0.47,3.09,0.72l-1.06,0.95h3.11l-0.13,0.93l3.04-0.26l0.06,0.19l-1.45,0.78c1.25,0.33,2.37,0.63,3.48,0.92v0.34
		l-1.76,0.73l0.06,0.24h2.07l0.02,0.2l-1.43,0.57c0.3,0.27,0.6,0.39,0.89,0.37c1.06-0.1,2.13-0.19,3.17-0.4
		c0.64-0.13,1.05-0.01,1.43,0.59c-0.96,0.33-1.86,0.64-2.76,0.95l0.08,0.36c1.11-0.17,2.32-0.14,3.31-0.58
		c1.13-0.49,1.95-0.18,2.62,0.52c0.58,0.61,0.9,1.47,1.38,2.31l1.44-0.92c2.02,1.35,3.96,2.65,5.96,3.99l-1.12,0.26
		c0.77,0.71,1.33,1.33,1.99,1.81c0.93,0.68,1.95,1.26,2.92,1.9c0.26,0.17,0.7,0.46,0.67,0.61c-0.17,0.81,0.48,0.93,0.92,1.16
		c2.94,1.58,5.96,3,9.31,3.76c0.63,2.2,1.26,4.42,1.89,6.65c1.61,5.72,3.01,11.47,3.6,17.41c0.24,2.4,0.6,4.79,1.04,7.15
		c0.19,1.02,0.81,1.94,1.07,2.96c0.61,2.4,0.81,4.79,0.22,7.28c-0.47,1.99,0.52,3.8,2.24,4.47c0.92,0.36,1.07,0.88,0.94,1.69
		c-0.19,1.2,0.27,2.21,1.33,2.67c2.39,1.04,4.49,2.54,6.72,3.85c0.59,0.34,1.29,0.56,1.96,0.67c1.46,0.24,2.94,0.38,4.41,0.57
		c2.06,0.26,4.14,0.43,5.93,1.66h1.4l2.4-0.59l0.24-0.84c1.44-0.33,2.76-0.45,3.94-0.93c3.33-1.33,6.82-1.8,10.33-2.04
		c5.97-0.41,11.95-0.59,17.93-0.9c0.55-0.03,1.09-0.24,1.63-0.37l0.08-0.45c-0.54-0.38-1.04-0.89-1.64-1.11
		c-1.65-0.61-3.31-1.22-5.01-1.62c-2.28-0.53-3.9-1.9-5.27-3.65c-1.06-1.36-0.98-1.69,0.36-3.01c0.9,0.26,1.81,0.51,3.01,0.85
		c-0.5-1.47,0.35-1.52,1.19-1.51c3.16,0.03,6.32,0.06,9.47,0.15c3.7,0.1,7.4,0.48,11.1-0.36c0.08,0.4,0.12,0.77,0.24,1.11
		c0.14,0.39,0.3,0.79,0.56,1.11c0.73,0.9,1.9,0.8,2.14-0.29c0.39-1.73,1.64-2.36,3.07-2.88c3.08-1.11,6.29-1.67,9.52-1.88
		c3.8-0.25,7.61-0.22,11.42-0.35c0.82-0.03,1.85,0.24,2.02-1.09c0.01-0.11,0.36-0.2,0.56-0.28c0.96-0.4,1.1-0.89,0.26-1.44
		c-0.83-0.55-1.79-0.99-2.75-1.26c-2.85-0.8-5.72-1.5-8.59-2.23c-2.96-0.75-5.9-1.6-8.89-2.2c-2.08-0.42-4.24-0.48-6.36-0.71
		c-1.29-0.14-2.61-0.16-3.86-0.48c-2.29-0.58-4.55-1.27-6.77-2.06c-1.92-0.68-3.81-1.47-5.62-2.38c-1.35-0.68-2.12-2.8-1.94-4.16
		c0.28-2.01,0.61-4.05,0.59-6.07c-0.04-4.69-0.28-9.38-0.43-14.07c-0.02-0.46-0.07-0.94,0-1.39c0.34-2.48,0.73-4.95,1.05-7.43
		c0.11-0.87,0.48-1.4,1.31-1.76c3.09-1.38,6.16-2.81,9.23-4.25c3.81-1.8,7.72-3.4,11.22-5.83c9.2-6.4,16.9-14.36,24.03-22.91
		c1.99-2.39,3.88-4.86,5.96-7.16c3.18-3.51,6.67-6.75,9.71-10.37c2.48-2.95,4.48-6.13,6.05-9.5c10.94-3.26,19.36-11.18,29.66-16.82
		c-3.02,3.54-5.62,6.59-8.23,9.64c0.26,0.27,0.51,0.54,0.77,0.82c8.03-6.19,15.86-12.78,26.55-14.03c-1.32,0.85-2.64,1.69-4.67,2.99
		c6.64-2.35,12.8-4.53,19.09-6.76c1.92-0.68,3.85-1.37,5.81-2.06c0.02-0.01,0.03-0.01,0.05-0.02c0,0-0.01-0.02-0.01-0.06
		c-0.04-0.21-0.16-0.96-0.36-1.68c-0.09-0.3-0.18-0.6-0.27-0.9c-0.67-2.28-1.37-4.55-2.11-6.81c-1.35-4.09,0.42-7.09,3.62-9.79
		c-3.4-2.65-5.87-5.71-6.09-10.25c1.48,1.95,2.64,3.85,4.17,5.41c2.35,2.39,5.07,3.39,8.72,3c4.04-0.44,7.83-1.2,11.45-2.97
		c0.96-0.47,2.04-0.67,3.24-0.55c-2.87,1.56-5.82,2.98-8.6,4.69c-5.95,3.67-10.08,8.7-11.12,15.84c-0.16,1.08-0.27,2.29,0.06,3.29
		c0.5,1.51,1.77,2.34,2.94,0.71c3.48-4.85,8.4-6.22,13.99-6.38c6.91-0.21,11.36-4.42,15-9.77c0.46,0.52,0.79,0.9,1.13,1.29
		C1001.96,894.93,1000.58,883.76,995.01,877.33z M724.98,903.03c-0.36,0.27-0.83,0.4-1.22,0.64c-2.06,1.28-3.87,2.74-3.99,5.46
		c-0.01,0.27-0.22,0.68-0.44,0.77c-1.56,0.65-3.15,1.22-4.99,1.92c0-0.76-0.1-1.31,0.03-1.8c0.18-0.66,0.47-1.31,0.82-1.9
		c2.33-3.92,5.89-5.85,10.61-6.02C725.53,902.42,725.3,902.79,724.98,903.03z M812.06,1024.64c-0.49,2-1.44,3.74-2.99,5.07
		c-2.14,1.84-4.2,3.78-6.67,5.2c-0.36,0.21-0.65,0.55-1.17,1.01c0.67,0.14,1.02,0.24,1.37,0.27c0.41,0.03,0.82-0.03,1.2-0.04
		c1.15,2.06,3.52,2.25,5.88,0.36c-0.13,0.84-0.08,1.58-0.37,2.15c-0.64,1.27-1.31,2.59-2.24,3.64c-1.63,1.84-3.46,3.5-5.2,5.24
		c-1.67,1.67-3.1,3.47-3.11,6.1c-1.09,0.08-2.1,0.26-3.11,0.2c-3.47-0.22-6.96-0.4-10.4-0.85c-2.28-0.3-4.51-1.02-6.75-1.61
		c-0.87-0.23-1.55-0.76-1.96-1.64c-1.76-3.84-3.63-7.62-5.29-11.5c-1.73-4.05-3.07-8.25-3.61-12.66c-0.26-2.09-0.26-4.16,0.71-6.21
		c3.94,1.27,6.73,1.22,10.59-0.11c0.23-0.08,0.51-0.08,0.76-0.05c0.61,0.06,1.23,0.28,1.82,0.22c1-0.1,1.98-0.36,2.99-0.56
		l0.13,0.89c1.46-0.48,2.86-0.83,4.17-1.39c7.57-3.28,15.12-6.62,22.68-9.94c0.7-0.31,1.4-0.62,2.15-0.95
		c0.15,0.47,0.27,0.77,0.33,1.08c0.06,0.32,0.06,0.65,0.08,0.97C814.31,1014.68,813.28,1019.67,812.06,1024.64z"/>
	<path clip-path="url(#SVGID_2_)" d="M969.14,916.43c8.33,6.18,20.46,5.11,23.7-1.47c-4.45-0.83-8.97-1.95-13.55-2.46
		C975.43,912.07,972.01,913.53,969.14,916.43z"/>
	<path clip-path="url(#SVGID_2_)" d="M968.97,920.79c3.13,3.2,8.36,3.56,10.19,0.98c-1.84-0.66-3.68-1.43-5.6-1.96
		C971.94,919.36,970.39,919.76,968.97,920.79z"/>
	<path clip-path="url(#SVGID_2_)" d="M1002.16,894.74c-2.08,9.18-10.52,11.66-17.18,16.72c5.27,0.81,10.06,0.87,13.83-2.94
		C1002.54,904.75,1003.55,900.06,1002.16,894.74z"/>
	<path clip-path="url(#SVGID_2_)" d="M969.37,897.3c-4.24,0.82-8.37,1.58-9.79,6.19c-0.4,1.3,0.56,3.01,1.05,5.26
		C963.95,904.39,966.55,900.98,969.37,897.3z"/>
	<path clip-path="url(#SVGID_2_)" d="M948.72,926.48c1.04-0.69,1.99-1.47,2.86-2.33l-0.3-1.68l0.58,1.41
		c0.47-0.48,0.91-0.98,1.34-1.51l-0.45-1.45c0.06,0.11,0.38,0.72,0.67,1.18c1.35-1.72,2.46-3.67,3.38-5.81l-4.8-3.26
		c-1.4,1.95-2.42,3.86-3.04,5.72c-0.39,1.18-0.63,2.35-0.7,3.49C948.16,923.68,948.31,925.1,948.72,926.48z"/>
	<path clip-path="url(#SVGID_2_)" d="M955.29,923.11c2.35-1.62,4.07-3.9,5.3-6.69c0.02-0.03,0.03-0.05,0.04-0.08
		c-0.04-0.21-0.16-0.96-0.36-1.68c-0.09-0.3-0.18-0.6-0.27-0.9l-2.69-2.05c-1.48,2.3-2.32,4.56-2.53,6.77
		C954.64,920.05,954.81,921.59,955.29,923.11z"/>
	<path clip-path="url(#SVGID_2_)" d="M942.74,925.44l0.65-0.34l-0.63,0.63c0.07,0.89,0.28,1.76,0.6,2.59
		c0.82-0.67,1.57-1.39,2.24-2.17l-0.38-0.59c0.07,0.05,0.33,0.26,0.52,0.44c0.53-0.62,1.01-1.26,1.45-1.94l-1.21-0.44
		c0,0,1.27,0.15,1.48,0.01c0.3-0.45,0.56-0.91,0.8-1.39c0.53-1,0.98-2.05,1.37-3.15l-0.67-0.34l-3.58-1.79
		C943.47,920.04,942.6,922.87,942.74,925.44z"/>
	<path clip-path="url(#SVGID_2_)" d="M927.87,934.3l-0.88,1.02c0.03,0.7,0.08,1.41,0.16,2.11l1.32-0.41l-1.26,0.83
		c0.13,1.02,0.32,2.03,0.58,3.05c2.98-1.81,5.6-4.02,7.9-6.6l-0.88-0.77l1.25,0.35c1.16-1.34,2.24-2.78,3.23-4.3l-1.79-2.54
		c0.25,0.25,1.27,1.33,1.98,2.25c1.47-2.26,2.76-4.7,3.91-7.33l-8.93-7.43c-4.96,6.66-7.45,13.24-7.48,19.77H927.87z"/>
	<path clip-path="url(#SVGID_2_)" d="M900.6,957.87c3.92-2.23,7.55-4.75,10.91-7.53l-1.12-4.31l2.29,3.31
		c1.89-1.61,3.68-3.32,5.38-5.11l-1.25-4.39l2.46,3.1c4.35-4.7,8.15-9.94,11.48-15.63l-14.59-9.8
		C903.22,931.77,898.03,945.23,900.6,957.87z"/>
	<rect x="964.44" y="1018.36" clip-path="url(#SVGID_2_)" fill="#A07822" width="10.09" height="80.16"/>
	<polygon clip-path="url(#SVGID_2_)" fill="#A07822" points="1058.32,1066 1055.9,1068.19 1058.32,1070.6 1058.32,1110.91 
		1048.22,1110.91 1048.22,1030.74 1058.32,1030.74 	"/>
	<rect x="1013.23" y="1039.47" clip-path="url(#SVGID_2_)" fill="#A07822" width="10.09" height="66.38"/>
	<rect x="1000.52" y="1061.25" clip-path="url(#SVGID_2_)" fill="#A07822" width="10.09" height="37.27"/>
	<rect x="964.44" y="1018.36" clip-path="url(#SVGID_2_)" fill="#A07822" width="93.87" height="10.21"/>
	<rect x="964.44" y="1117.75" clip-path="url(#SVGID_2_)" width="93.87" height="10.21"/>
	<rect x="987.53" y="1030.75" clip-path="url(#SVGID_2_)" fill="#A07822" width="70.78" height="10.21"/>
	<rect x="964.44" y="1100.74" clip-path="url(#SVGID_2_)" fill="#A07822" width="93.87" height="10.21"/>
	<rect x="964.44" y="1088.32" clip-path="url(#SVGID_2_)" fill="#A07822" width="46.18" height="10.21"/>
	<rect x="987.53" y="1061.25" clip-path="url(#SVGID_2_)" fill="#A07822" width="23.09" height="10.21"/>
	<rect x="1021.09" y="1063.08" clip-path="url(#SVGID_2_)" fill="#A07822" width="28.89" height="10.21"/>
</g>
<rect x="351.57" opacity="0.51" fill="#FFFFFF" width="1292.7" height="572.15"/>
<path d="M1122.43,933.28c-0.12-2.39-1.72-4.7-4.81-4.7c-1.74,0-3.01,0.74-3.81,1.81c-1.17,0.86-1.8,2.25-1.91,3.69
	c-0.99,2.5-0.08,5.82,2.73,6.79c0.74,0.51,1.67,0.83,2.81,0.83c0.1,0,0.2-0.01,0.3-0.02c0.8,0.89,1.98,1.48,3.55,1.48
	C1127.31,943.17,1127.7,934.4,1122.43,933.28z"/>
</svg>
